<svg width="505" height="459" viewBox="0 0 505 459" fill="none" xmlns="http://www.w3.org/2000/svg">
<path d="M61.2394 391.617L25.4934 443.596L12.7115 443.9L36.1378 390.447L61.2394 391.617Z" fill="black"/>
<path d="M438.442 394.26L457.276 443.365H447.859L414.973 394.476L438.442 394.26Z" fill="black"/>
<path d="M444.435 279.381L444.435 279.38L445.879 215.833C446.143 203.342 441.936 191.168 434.018 181.503C426.1 171.839 414.991 165.32 402.692 163.121L402.691 163.121C294.267 143.586 160.143 157.335 95.0561 166.288C84.411 167.768 74.6598 173.047 67.6011 181.152C60.5421 189.256 56.6518 199.64 56.6477 210.388V286.935C56.6472 289.082 57.0757 291.208 57.9081 293.187C58.7405 295.166 59.96 296.959 61.495 298.461C63.03 299.962 64.8495 301.142 66.8467 301.93C68.8439 302.719 70.9785 303.1 73.1252 303.052L428.693 295.137C432.841 295.045 436.794 293.355 439.727 290.42C442.66 287.484 444.347 283.53 444.435 279.381Z" stroke="black" stroke-width="1.35959"/>
<path d="M448.119 238.046L448.405 238.663L448.325 238.7L448.239 238.715C434.095 241.259 427.212 254.574 423.882 267.579C422.225 274.049 421.47 280.364 421.13 285.066C420.961 287.416 420.895 289.36 420.871 290.714C420.859 291.392 420.858 291.921 420.86 292.281C420.861 292.461 420.862 292.598 420.864 292.689L420.865 292.793L420.866 292.818L420.866 292.824L420.866 292.825C420.866 292.825 420.866 292.825 420.399 292.837L420.866 292.825L420.883 293.527L420.181 293.522L66.0005 290.85L65.4206 290.845L65.3335 290.272L65.3333 290.271L65.3327 290.267L65.3299 290.249L65.3183 290.176C65.3079 290.11 65.2919 290.012 65.2701 289.883C65.2264 289.624 65.1595 289.241 65.0669 288.746C64.8816 287.757 64.5936 286.322 64.1835 284.546C63.3632 280.994 62.0555 276.082 60.1067 270.647C56.2019 259.757 49.7549 246.854 39.5781 238.529C29.446 230.24 20.0693 230.191 13.0831 233.49C6.02539 236.823 1.36835 243.58 0.734833 248.972C0.425629 251.603 1.43716 255.218 3.24075 259.253C5.03094 263.259 7.54858 267.567 10.1194 271.54C12.6882 275.51 15.2999 279.13 17.2702 281.759C18.2551 283.073 19.079 284.138 19.6563 284.875C19.9449 285.243 20.1718 285.529 20.3264 285.722L20.3962 285.809C20.4402 285.864 20.4757 285.909 20.5025 285.942L20.5473 285.997L20.5584 286.011L20.5611 286.014L20.5617 286.015C20.5618 286.015 20.5619 286.015 20.0341 286.444L20.5619 286.015L20.7025 286.189L20.7131 286.411L25.9397 395.926L468.844 400.664C468.844 400.493 468.844 400.292 468.845 400.061C468.846 399.219 468.849 397.983 468.855 396.408C468.867 393.256 468.892 388.743 468.942 383.3C469.042 372.412 469.244 357.798 469.652 342.893C470.061 327.99 470.675 312.787 471.599 300.727C472.062 294.698 472.602 289.442 473.236 285.396C473.553 283.374 473.894 281.642 474.265 280.261C474.629 278.901 475.04 277.809 475.526 277.124C478.777 272.548 482.066 266.146 483.799 259.225C485.533 252.303 485.697 244.919 482.781 238.321C481.402 235.2 478.685 233.604 475.242 232.994C471.779 232.38 467.655 232.785 463.653 233.626C459.662 234.464 455.848 235.723 453.027 236.776C451.618 237.302 450.459 237.775 449.654 238.116C449.252 238.286 448.938 238.424 448.725 238.518C448.619 238.565 448.538 238.602 448.484 238.626L448.424 238.654L448.409 238.661L448.405 238.662L448.405 238.663L448.119 238.046Z" fill="white" stroke="black" stroke-width="1.35959"/>
<path d="M70.4973 312.181C70.4973 312.383 149.196 312.557 246.252 312.557C343.307 312.557 422.006 312.427 422.006 312.181C422.006 311.936 343.336 311.806 246.252 311.806C149.167 311.806 70.4973 312.008 70.4973 312.181Z" fill="black"/>
<path d="M422.006 360.709C422.025 360.594 422.025 360.477 422.006 360.362C422.006 360.088 422.006 359.741 422.006 359.337C422.006 358.432 422.035 357.118 422.093 355.394C422.093 351.913 422.093 346.988 422.093 340.951C422.093 328.733 422.006 311.849 422.57 293.29C422.68 284.551 423.355 275.829 424.592 267.177C424.852 266.224 425.112 265.271 425.357 264.289C425.603 263.307 426.079 262.483 426.455 261.602C427.22 259.855 428 258.179 428.852 256.605C430.391 253.675 432.199 250.895 434.254 248.301C435.97 246.176 437.906 244.239 440.031 242.523C441.645 241.239 443.382 240.117 445.216 239.173C446.814 238.436 448.448 237.781 450.112 237.208H449.78L448.783 237.483C447.509 237.848 446.271 238.332 445.086 238.927C443.2 239.822 441.417 240.921 439.771 242.206C437.601 243.91 435.625 245.847 433.878 247.983C431.767 250.582 429.91 253.377 428.332 256.331C427.451 257.919 426.657 259.595 425.877 261.357C425.487 262.238 425.126 263.148 424.765 264.058L423.942 266.946C422.653 275.637 421.954 284.404 421.847 293.189C421.284 311.82 421.472 328.704 421.588 340.922C421.674 346.974 421.746 351.899 421.79 355.365C421.79 357.026 421.79 358.34 421.79 359.308V360.319C422.006 360.579 422.006 360.709 422.006 360.709Z" fill="black"/>
<path d="M451.571 263.61C451.226 263.375 450.818 263.249 450.401 263.249C449.24 263.16 448.085 263.483 447.137 264.159C446.471 264.625 445.926 265.244 445.548 265.964C445.116 266.81 444.97 267.772 445.129 268.708C445.287 269.786 445.767 270.791 446.507 271.59C447.247 272.39 448.212 272.946 449.274 273.186C450.345 273.339 451.437 273.173 452.414 272.708C453.39 272.243 454.207 271.5 454.763 270.572C455.249 269.762 455.495 268.83 455.47 267.885C455.418 266.891 455.1 265.93 454.549 265.101C453.997 264.273 453.233 263.608 452.336 263.177C451.968 262.978 451.556 262.874 451.138 262.874C451.138 262.946 451.556 263.047 452.206 263.437C453.115 263.999 453.842 264.812 454.301 265.777C454.644 266.454 454.808 267.207 454.778 267.966C454.747 268.724 454.523 269.462 454.127 270.109C453.632 270.902 452.92 271.534 452.074 271.931C451.229 272.328 450.287 272.473 449.361 272.348C448.456 272.136 447.632 271.663 446.993 270.988C446.354 270.313 445.927 269.465 445.765 268.55C445.638 267.795 445.724 267.021 446.015 266.314C446.306 265.606 446.79 264.995 447.411 264.549C448.234 263.894 449.248 263.524 450.3 263.495C451.138 263.538 451.556 263.682 451.571 263.61Z" fill="black"/>
<path d="M449.563 292.12C450.405 291.495 451.092 290.684 451.571 289.751C452.889 287.58 453.601 285.094 453.631 282.554C453.662 280.013 453.01 277.511 451.744 275.308C451.284 274.364 450.617 273.535 449.794 272.882C449.693 272.969 450.444 273.879 451.239 275.554C452.322 277.724 452.877 280.119 452.856 282.544C452.816 284.972 452.208 287.356 451.08 289.506C450.242 291.152 449.448 292.048 449.563 292.12Z" fill="black"/>
<path d="M454.214 249.239C454.292 249.973 454.437 250.698 454.647 251.406C455.281 254.862 454.523 258.428 452.538 261.328C452.07 261.895 451.641 262.494 451.253 263.119C451.253 263.119 452.062 262.714 452.972 261.674C454.144 260.243 454.959 258.554 455.351 256.746C455.742 254.939 455.699 253.064 455.225 251.276C455.063 250.523 454.716 249.823 454.214 249.239Z" fill="black"/>
<path d="M462.865 265.213C462.692 265.069 461.349 266.426 459.298 267.481C457.247 268.535 455.384 268.925 455.413 269.098C456.891 269.288 458.39 268.95 459.644 268.145C461.025 267.57 462.163 266.534 462.865 265.213Z" fill="black"/>
<path d="M23.5871 360.709C23.5871 360.911 123.777 361.084 247.364 361.084C370.951 361.084 471.112 360.911 471.112 360.709C471.112 360.507 370.937 360.333 247.248 360.333C123.56 360.333 23.5871 360.492 23.5871 360.709Z" fill="black"/>
<path d="M72.0427 290.589C71.826 290.589 71.6672 306.274 71.6672 325.613C71.6672 344.952 71.826 360.665 72.0427 360.665C72.2593 360.665 72.4182 344.98 72.4182 325.613C72.4182 306.245 72.2449 290.589 72.0427 290.589Z" fill="black"/>
<path d="M220.385 169.4H221.078L223.1 169.472L230.856 169.688L259.424 170.353L353.649 172.245C362.849 172.461 371.847 172.433 380.483 173.01C388.8 173.368 397.028 174.87 404.935 177.473C412.068 179.867 418.451 184.084 423.451 189.706C425.719 192.246 427.66 195.06 429.228 198.083C430.658 200.863 431.842 203.762 432.766 206.749C434.251 211.936 435.218 217.258 435.655 222.636C436.103 227.402 436.146 231.518 436.175 234.898C436.204 238.277 436.175 240.877 436.074 242.653C436.074 243.52 436.074 244.184 436.074 244.676C436.074 245.167 436.074 245.369 436.074 245.369C436.074 245.369 436.074 245.138 436.074 244.676C436.074 244.213 436.074 243.52 436.189 242.653C436.276 240.891 436.391 238.321 436.42 234.898C436.449 231.475 436.42 227.387 436.03 222.592C435.605 217.161 434.637 211.785 433.142 206.546C432.227 203.508 431.048 200.555 429.618 197.722C428.063 194.638 426.122 191.765 423.841 189.172C418.773 183.465 412.3 179.182 405.065 176.751C397.131 174.103 388.868 172.571 380.512 172.201C371.847 171.624 362.834 171.638 353.634 171.422L259.395 169.746L230.841 169.327L223.071 169.241H221.049L220.385 169.4Z" fill="black"/>
<path d="M334.107 218.881C334.107 218.881 334.584 219.112 335.321 219.675C336.362 220.474 337.141 221.565 337.559 222.809C337.896 223.696 338 224.654 337.861 225.592C337.722 226.53 337.344 227.417 336.765 228.168C336.112 229.156 335.171 229.919 334.07 230.355C332.968 230.79 331.76 230.877 330.607 230.603C329.455 230.328 328.415 229.707 327.628 228.822C326.841 227.936 326.345 226.831 326.207 225.655C326.031 224.721 326.095 223.758 326.393 222.856C326.691 221.954 327.214 221.143 327.911 220.498C328.848 219.583 330.034 218.965 331.32 218.722C332.23 218.563 332.764 218.621 332.764 218.563C332.303 218.393 331.804 218.348 331.32 218.433C330.142 218.568 329.021 219.012 328.07 219.72C327.119 220.427 326.372 221.374 325.904 222.463C325.478 223.516 325.363 224.668 325.572 225.785C325.758 227.077 326.329 228.284 327.21 229.248C328.091 230.212 329.241 230.889 330.512 231.191C331.783 231.493 333.115 231.406 334.335 230.942C335.556 230.477 336.609 229.657 337.357 228.586C338.042 227.686 338.458 226.609 338.556 225.481C338.621 224.497 338.468 223.511 338.108 222.593C337.615 221.281 336.714 220.162 335.537 219.401C335.116 219.103 334.622 218.923 334.107 218.881Z" fill="black"/>
<path d="M340.188 256.301C340.738 254.91 341.107 253.454 341.286 251.969C341.99 248.442 341.911 244.803 341.055 241.31C340.129 237.771 337.907 234.709 334.83 232.731C333.899 232.155 332.879 231.74 331.811 231.503C331.429 231.383 331.025 231.344 330.627 231.388C332.002 231.829 333.32 232.43 334.555 233.179C337.401 235.191 339.447 238.141 340.332 241.512C341.147 244.908 341.294 248.43 340.766 251.882C340.419 254.626 340.072 256.273 340.188 256.301Z" fill="black"/>
<path d="M334.931 196.639C335.698 197.657 336.406 198.718 337.054 199.816C338.521 202.519 338.953 205.664 338.27 208.662C337.587 211.66 335.835 214.307 333.342 216.108C332.28 216.825 331.176 217.476 330.034 218.057C330.392 218.056 330.746 217.982 331.074 217.841C331.984 217.52 332.848 217.083 333.645 216.541C336.37 214.761 338.298 211.992 339.023 208.819C339.748 205.645 339.213 202.314 337.53 199.527C337.045 198.693 336.453 197.926 335.768 197.245C335.277 196.74 334.959 196.538 334.931 196.639Z" fill="black"/>
<path d="M336.259 225.524C338.899 225.967 341.513 226.555 344.087 227.286C346.581 228.262 349.021 229.371 351.396 230.608C347.222 226.977 341.779 225.149 336.259 225.524Z" fill="black"/>
<g opacity="0.3">
<path d="M382.924 313.539C368.902 324.284 351.443 329.548 333.819 328.343C337.477 345.318 341.127 362.298 344.766 379.282C345.734 383.803 346.644 388.843 344.275 392.83C340.953 398.419 333.226 398.968 326.727 398.881C319.506 398.78 311.967 398.607 305.554 395.256C296.469 390.519 291.588 380.467 288.064 370.848C284.54 361.229 281.492 350.917 274.242 343.681C265.919 353.163 254.654 359.577 242.251 361.893C238.64 362.558 234.539 362.76 231.65 360.449C228.762 358.138 227.938 354.065 228.675 350.483C229.636 346.953 231.237 343.629 233.398 340.677L254.542 307.892C257.431 303.458 260.521 298.778 265.36 296.669C269.158 295.009 273.462 295.225 277.593 295.413C312.113 297.424 346.376 302.601 379.949 310.881" fill="black"/>
</g>
<g opacity="0.3">
<path d="M269.952 150.999C278.503 173.588 310.392 178.773 321.643 200.105C332.721 221.249 318.986 249.21 330.396 270.239C334.627 278.009 341.95 283.801 346.023 291.629C348.796 296.886 350.226 303.183 354.688 307.068C359.917 311.618 368.019 311.531 374.302 308.585C380.584 305.639 385.408 300.352 389.885 295.052C398.262 285.115 406.134 274.37 410.105 261.963C416.836 240.631 410.654 216.497 397.107 198.675C383.56 180.853 363.498 168.822 342.311 161.615C321.123 154.408 298.708 151.693 276.423 149.598" fill="black"/>
</g>
<path d="M372.641 91.596C369.404 86.551 364.929 82.419 359.642 79.594C354.318 76.761 348.094 76.1334 342.311 77.8464C339.469 78.748 336.911 80.372 334.885 82.5594C332.86 84.7468 331.437 87.4227 330.757 90.325C329.847 94.9612 331.089 100.132 328.691 104.205C325.947 108.884 319.318 110.357 316.978 115.268C316.363 116.788 316.108 118.43 316.23 120.066C316.353 121.702 316.851 123.287 317.686 124.699C319.37 127.51 321.513 130.02 324.026 132.123C322.513 133.07 321.174 134.272 320.069 135.675C319.521 136.382 319.157 137.214 319.011 138.097C318.864 138.979 318.94 139.885 319.231 140.73C320.173 142.402 321.726 143.645 323.564 144.197C331.633 147.598 340.553 148.435 349.113 146.594C351.395 146.103 354.009 145.482 355.887 146.869" fill="black"/>
<mask id="path-21-inside-1_66_2068" fill="white">
<path d="M314.826 108.74L319.462 122.879L287.89 140.803L319.665 141.828L317.296 167.58L256.131 152.559C256.131 152.559 252.462 127.617 314.826 108.74L319.159 107.7C319.94 107.516 320.665 107.146 321.272 106.62C321.878 106.094 322.348 105.429 322.64 104.681C323.135 103.465 324.061 102.473 325.24 101.894L330.453 99.1787V103.309L327.565 106.675L328.027 114.661C328.148 116.372 327.657 118.07 326.641 119.451C325.624 120.832 324.15 121.807 322.481 122.201L319.592 122.879"/>
</mask>
<path d="M314.826 108.74L319.462 122.879L287.89 140.803L319.665 141.828L317.296 167.58L256.131 152.559C256.131 152.559 252.462 127.617 314.826 108.74L319.159 107.7C319.94 107.516 320.665 107.146 321.272 106.62C321.878 106.094 322.348 105.429 322.64 104.681C323.135 103.465 324.061 102.473 325.24 101.894L330.453 99.1787V103.309L327.565 106.675L328.027 114.661C328.148 116.372 327.657 118.07 326.641 119.451C325.624 120.832 324.15 121.807 322.481 122.201L319.592 122.879" fill="white"/>
<path d="M314.826 108.74L314.432 107.439L314.47 107.427L314.509 107.418L314.826 108.74ZM319.462 122.879L320.754 122.456L321.101 123.513L320.134 124.062L319.462 122.879ZM287.89 140.803L287.847 142.162L283.017 142.006L287.219 139.621L287.89 140.803ZM319.665 141.828L319.708 140.469L321.151 140.516L321.018 141.953L319.665 141.828ZM317.296 167.58L318.65 167.704L318.505 169.277L316.972 168.9L317.296 167.58ZM256.131 152.559L255.806 153.88L254.919 153.662L254.786 152.757L256.131 152.559ZM319.159 107.7L318.842 106.378L318.848 106.376L319.159 107.7ZM322.64 104.681L321.374 104.186L321.377 104.177L321.381 104.168L322.64 104.681ZM325.24 101.894L325.867 103.1L325.853 103.107L325.839 103.114L325.24 101.894ZM330.453 99.1787L329.825 97.9728L331.813 96.9378V99.1787H330.453ZM330.453 103.309H331.813V103.813L331.485 104.195L330.453 103.309ZM327.565 106.675L326.207 106.753L326.176 106.205L326.533 105.789L327.565 106.675ZM328.027 114.661L326.671 114.758L326.67 114.749L326.67 114.74L328.027 114.661ZM322.481 122.201L322.793 123.524L322.792 123.524L322.481 122.201ZM316.118 108.316L320.754 122.456L318.17 123.303L313.534 109.163L316.118 108.316ZM320.134 124.062L288.562 141.985L287.219 139.621L318.791 121.697L320.134 124.062ZM287.934 139.444L319.708 140.469L319.621 143.187L287.847 142.162L287.934 139.444ZM321.018 141.953L318.65 167.704L315.942 167.455L318.311 141.704L321.018 141.953ZM316.972 168.9L255.806 153.88L256.455 151.239L317.62 166.259L316.972 168.9ZM256.131 152.559C254.786 152.757 254.785 152.755 254.785 152.754C254.785 152.753 254.785 152.751 254.784 152.749C254.784 152.746 254.784 152.743 254.783 152.739C254.782 152.732 254.781 152.722 254.779 152.712C254.777 152.691 254.773 152.663 254.77 152.63C254.763 152.563 254.755 152.473 254.748 152.359C254.734 152.132 254.724 151.813 254.736 151.41C254.76 150.604 254.871 149.463 255.21 148.05C255.888 145.219 257.468 141.33 261.03 136.879C268.145 127.989 283.107 116.92 314.432 107.439L315.22 110.041C284.182 119.436 269.796 130.277 263.153 138.578C259.837 142.722 258.437 146.248 257.854 148.684C257.562 149.904 257.473 150.86 257.454 151.491C257.444 151.807 257.452 152.043 257.462 152.19C257.466 152.264 257.471 152.316 257.474 152.345C257.476 152.359 257.477 152.368 257.477 152.371C257.477 152.372 257.477 152.372 257.477 152.37C257.477 152.37 257.477 152.369 257.477 152.367C257.476 152.366 257.476 152.365 257.476 152.365C257.476 152.363 257.476 152.361 256.131 152.559ZM314.509 107.418L318.842 106.378L319.476 109.022L315.144 110.062L314.509 107.418ZM318.848 106.376C319.415 106.243 319.941 105.974 320.381 105.593L322.162 107.647C321.39 108.317 320.466 108.79 319.47 109.024L318.848 106.376ZM320.381 105.593C320.821 105.211 321.162 104.729 321.374 104.186L323.906 105.177C323.534 106.129 322.935 106.977 322.162 107.647L320.381 105.593ZM321.381 104.168C322.002 102.643 323.162 101.4 324.64 100.674L325.839 103.114C324.959 103.546 324.269 104.287 323.899 105.194L321.381 104.168ZM324.612 100.688L329.825 97.9728L331.081 100.385L325.867 103.1L324.612 100.688ZM331.813 99.1787V103.309H329.094V99.1787H331.813ZM331.485 104.195L328.596 107.56L326.533 105.789L329.422 102.424L331.485 104.195ZM328.922 106.596L329.384 114.583L326.67 114.74L326.207 106.753L328.922 106.596ZM329.383 114.565C329.527 116.598 328.943 118.615 327.736 120.257L325.545 118.645C326.37 117.524 326.769 116.146 326.671 114.758L329.383 114.565ZM327.736 120.257C326.528 121.898 324.776 123.056 322.793 123.524L322.169 120.877C323.524 120.558 324.721 119.767 325.545 118.645L327.736 120.257ZM322.792 123.524L319.903 124.203L319.281 121.556L322.17 120.877L322.792 123.524Z" fill="black" mask="url(#path-21-inside-1_66_2068)"/>
<path d="M383.993 160.547H383.875L383.764 160.507L344.258 146.349L310.027 141.718L304.447 164.646L321.316 173.756L321.564 173.889L321.644 174.158L336.087 222.267L336.224 222.723L335.843 223.007C332.44 225.55 329.166 228.261 326.032 231.129C326.25 231.275 326.619 231.461 327.168 231.675C328.515 232.2 330.652 232.785 333.354 233.404C338.746 234.639 346.259 235.976 353.893 237.211C361.522 238.446 369.257 239.577 375.086 240.399C378 240.81 380.437 241.144 382.145 241.375C382.999 241.49 383.671 241.58 384.13 241.641C384.193 241.65 384.253 241.658 384.308 241.665L394.713 215.539L394.854 215.185L395.229 215.12L419.022 211.005C418.965 210.821 418.898 210.605 418.821 210.358C418.545 209.471 418.143 208.193 417.639 206.634C416.632 203.514 415.22 199.268 413.6 194.76C411.98 190.251 410.154 185.487 408.32 181.329C406.479 177.153 404.654 173.647 403.044 171.612C399.799 167.511 395.322 164.736 391.473 162.985C389.552 162.111 387.799 161.497 386.454 161.103C385.781 160.906 385.213 160.765 384.781 160.673C384.328 160.578 384.071 160.547 383.993 160.547ZM325.841 230.971C325.84 230.97 325.84 230.969 325.84 230.969C325.84 230.969 325.84 230.97 325.841 230.971Z" fill="black" stroke="black" stroke-width="1.35959"/>
<path d="M323.997 185.474C323.997 185.677 343.567 185.85 367.687 185.85C391.806 185.85 411.391 185.677 411.391 185.474C411.391 185.272 391.821 185.099 367.687 185.099C343.553 185.099 323.997 185.272 323.997 185.474Z" fill="white"/>
<path d="M327.911 199.614C327.911 199.816 347.481 199.989 371.601 199.989C395.72 199.989 415.305 199.816 415.305 199.614C415.305 199.412 395.749 199.238 371.601 199.238C347.453 199.238 327.911 199.412 327.911 199.614Z" fill="white"/>
<path d="M327.911 214.879C327.911 215.096 342.73 215.269 361.014 215.269C379.299 215.269 394.103 215.096 394.103 214.879C394.103 214.663 379.285 214.504 361.014 214.504C342.744 214.504 327.911 214.677 327.911 214.879Z" fill="white"/>
<path d="M322.842 229.597C322.842 229.799 337.66 229.972 355.931 229.972C374.201 229.972 389.019 229.799 389.019 229.597C389.019 229.395 374.215 229.221 355.931 229.221C337.646 229.221 322.842 229.38 322.842 229.597Z" fill="white"/>
<path d="M307.172 166.453C307.172 166.67 316.964 166.829 329.023 166.829C341.083 166.829 350.89 166.67 350.89 166.453C350.89 166.237 341.112 166.078 329.023 166.078C316.935 166.078 307.172 166.309 307.172 166.453Z" fill="white"/>
<path d="M305.583 151.461C305.583 151.678 315.332 152.068 327.348 152.342C339.364 152.617 349.142 152.689 349.142 152.487C349.142 152.285 339.408 151.88 327.377 151.591C315.346 151.302 305.583 151.259 305.583 151.461Z" fill="white"/>
<path d="M390.232 192.811C390.769 196.795 391.555 200.741 392.586 204.625C393.372 208.57 394.399 212.462 395.663 216.281C395.125 212.299 394.344 208.353 393.323 204.467C392.545 200.519 391.512 196.626 390.232 192.811Z" fill="black"/>
<path d="M318.483 432.504L339.54 430.379L321.604 373.808L298.107 383.199L318.483 432.504Z" fill="white" stroke="black"/>
<path d="M305.785 410.594L316.285 436.591C316.285 436.591 293.35 456.017 294.823 461.014L346.037 442.513L331.349 401.264L305.785 410.594Z" fill="black"/>
<path d="M331.32 428.677C331.867 428.648 332.405 428.823 332.832 429.166C333.258 429.51 333.543 429.999 333.631 430.54C333.681 431.085 333.52 431.628 333.182 432.058C332.843 432.488 332.353 432.772 331.811 432.851C331.232 432.879 330.663 432.693 330.212 432.328C329.762 431.963 329.462 431.445 329.37 430.872C329.37 429.774 330.453 428.518 331.537 428.677" fill="#E0E0E0"/>
<path d="M346.037 442.513L344.391 438.411L295.892 457.736C295.892 457.736 293.971 459.541 294.823 461.057L346.037 442.513Z" fill="#E0E0E0"/>
<path d="M315.361 436.679C315.462 436.924 316.805 436.592 318.249 436.939C319.693 437.285 320.806 438.123 320.993 437.935C321.181 437.747 320.3 436.491 318.451 436.043C316.603 435.595 315.231 436.462 315.361 436.679Z" fill="black"/>
<path d="M310.797 440.838C310.797 441.112 312.068 441.141 313.295 441.892C314.523 442.643 315.13 443.611 315.418 443.611C315.707 443.611 315.317 442.037 313.772 441.141C312.227 440.246 310.71 440.607 310.797 440.838Z" fill="black"/>
<path d="M310.075 448.376C310.32 448.376 310.219 446.932 309.078 445.835C307.937 444.737 306.565 444.578 306.536 444.823C306.507 445.069 307.504 445.546 308.414 446.484C309.324 447.423 309.815 448.449 310.075 448.376Z" fill="black"/>
<path d="M313.685 430.482C313.873 430.67 314.898 429.905 316.343 429.486C317.787 429.067 319.058 429.125 319.116 428.865C319.173 428.605 317.773 428.085 316.083 428.605C314.393 429.125 313.44 430.324 313.685 430.482Z" fill="black"/>
<path d="M311.606 425.182C312.526 425.102 313.409 424.778 314.162 424.243C315.031 423.746 315.831 423.139 316.545 422.437C316.981 422.034 317.382 421.594 317.744 421.123C317.972 420.86 318.157 420.563 318.293 420.242C318.393 420.006 318.413 419.743 318.347 419.494C318.282 419.246 318.136 419.026 317.931 418.87C317.744 418.741 317.528 418.658 317.302 418.627C317.076 418.597 316.847 418.621 316.632 418.697C316.305 418.817 315.995 418.977 315.707 419.173C315.192 419.504 314.709 419.881 314.263 420.3C313.539 421.005 312.93 421.819 312.458 422.712C311.941 423.489 311.679 424.408 311.707 425.34C311.851 425.34 312.14 424.387 313.021 423.044C313.532 422.264 314.144 421.555 314.841 420.935C315.245 420.561 315.686 420.228 316.155 419.939C316.646 419.607 317.108 419.433 317.325 419.621C317.542 419.809 317.426 419.737 317.325 419.924C317.212 420.157 317.071 420.375 316.906 420.574C316.572 421.016 316.215 421.44 315.837 421.845C315.179 422.522 314.464 423.14 313.7 423.694C312.968 424.14 312.268 424.637 311.606 425.182Z" fill="black"/>
<path d="M312.068 425.427C312.288 424.516 312.207 423.558 311.837 422.697C311.361 421.15 310.467 419.765 309.251 418.697C308.992 418.41 308.663 418.194 308.296 418.07C307.93 417.946 307.538 417.918 307.157 417.989C306.93 418.079 306.733 418.231 306.587 418.428C306.442 418.624 306.354 418.857 306.334 419.101C306.309 419.45 306.338 419.801 306.421 420.141C306.538 420.742 306.747 421.322 307.042 421.86C307.526 422.77 308.231 423.545 309.093 424.113C310.537 425.08 311.736 425.008 311.721 424.907C310.949 424.515 310.201 424.076 309.483 423.593C308.771 423.017 308.194 422.292 307.793 421.47C307.567 421.011 307.402 420.526 307.302 420.025C307.186 419.462 307.229 418.942 307.461 418.928C307.692 418.913 308.298 419.087 308.659 419.448C309.075 419.796 309.457 420.183 309.8 420.603C310.386 421.329 310.872 422.131 311.245 422.986C311.837 424.401 311.909 425.441 312.068 425.427Z" fill="black"/>
<path d="M203.564 351.806L225.051 365.594L251.855 319.007L230.474 304.521L203.564 351.806Z" fill="white" stroke="black"/>
<path d="M210.607 338.409L196.496 362.731C196.496 362.731 167.091 356.549 164.043 360.781L210.145 389.811L233.672 352.852L210.607 338.409Z" fill="black"/>
<path d="M212.022 369.678C212.389 370.084 212.592 370.611 212.592 371.158C212.592 371.705 212.389 372.232 212.022 372.638C211.628 373 211.113 373.2 210.578 373.2C210.043 373.2 209.528 373 209.134 372.638C208.755 372.197 208.553 371.632 208.566 371.05C208.579 370.469 208.807 369.913 209.206 369.49C209.665 369.146 210.239 368.992 210.809 369.059C211.379 369.127 211.901 369.41 212.268 369.851" fill="#E0E0E0"/>
<path d="M210.145 389.782L212.369 385.969L167.336 359.568C167.336 359.568 164.722 359.164 164.044 360.752L210.145 389.782Z" fill="#E0E0E0"/>
<path d="M195.904 361.994C195.774 362.225 196.829 363.034 197.479 364.449C198.128 365.865 198.129 367.193 198.388 367.237C198.648 367.28 199.139 365.793 198.388 364.059C197.637 362.326 195.991 361.749 195.904 361.994Z" fill="black"/>
<path d="M189.809 360.94C189.622 361.128 190.358 362.124 190.517 363.569C190.676 365.013 190.272 366.14 190.517 366.27C190.763 366.4 191.687 365.23 191.456 363.381C191.225 361.532 189.954 360.738 189.809 360.94Z" fill="black"/>
<path d="M183.411 364.998C183.599 365.186 184.61 364.262 184.856 362.659C185.101 361.055 184.307 359.914 184.09 360.03C183.873 360.146 184.09 361.229 183.931 362.543C183.772 363.857 183.209 364.839 183.411 364.998Z" fill="black"/>
<path d="M199.731 356.809C199.731 357.084 200.93 357.416 202.143 358.254C203.357 359.091 204.093 360.16 204.339 360.045C204.584 359.929 204.122 358.514 202.678 357.488C201.234 356.463 199.731 356.564 199.731 356.809Z" fill="black"/>
<path d="M202.664 351.971C202.664 352.057 203.4 352.765 204.974 353.415C205.905 353.782 206.874 354.044 207.863 354.195C208.452 354.269 209.045 354.313 209.639 354.325C209.99 354.338 210.34 354.299 210.679 354.209C210.926 354.142 211.143 353.995 211.298 353.792C211.452 353.588 211.534 353.338 211.531 353.083C211.519 352.854 211.453 352.63 211.337 352.432C211.222 352.234 211.061 352.066 210.867 351.942C210.573 351.763 210.258 351.622 209.928 351.523C208.401 350.999 206.765 350.875 205.177 351.162C203.472 351.48 202.577 352.101 202.635 352.187C202.692 352.274 203.646 351.942 205.249 351.812C206.185 351.743 207.126 351.791 208.051 351.956C208.586 352.052 209.113 352.192 209.625 352.375C210.203 352.563 210.622 352.823 210.607 353.112C210.593 353.401 210.607 353.256 210.39 353.343C210.14 353.401 209.882 353.425 209.625 353.415C208.129 353.435 206.638 353.226 205.205 352.794C204.38 352.458 203.53 352.182 202.664 351.971Z" fill="black"/>
<path d="M202.75 352.476C202.75 352.563 203.761 352.029 204.772 350.628C205.352 349.799 205.782 348.875 206.043 347.898C206.199 347.321 206.301 346.731 206.346 346.136C206.412 345.752 206.377 345.357 206.245 344.99C206.114 344.623 205.89 344.297 205.595 344.042C205.392 343.913 205.157 343.845 204.917 343.845C204.676 343.845 204.441 343.913 204.238 344.042C203.947 344.235 203.684 344.469 203.458 344.735C203.06 345.207 202.73 345.732 202.476 346.295C202.065 347.24 201.891 348.271 201.97 349.299C202.115 351.061 202.88 351.927 202.952 351.855C202.793 351.005 202.682 350.147 202.62 349.284C202.639 348.372 202.855 347.475 203.256 346.656C203.485 346.178 203.781 345.735 204.137 345.342C204.512 344.908 204.945 344.619 205.104 344.793C205.248 344.965 205.353 345.167 205.41 345.384C205.468 345.601 205.477 345.828 205.436 346.049C205.411 346.594 205.338 347.135 205.22 347.667C205.008 348.572 204.667 349.443 204.209 350.252C203.429 351.667 202.649 352.361 202.75 352.476Z" fill="black"/>
<path d="M333.775 312.181L280.164 275.727L246.353 341.543L215.619 324.891C215.619 324.891 251.018 238.523 263.728 235.779C270.848 234.219 352.508 249.803 352.508 249.803L361.635 245.224L384.744 242.408L386.188 246.149C390.222 256.363 392.077 267.308 391.634 278.281C391.192 289.254 388.461 300.014 383.617 309.87L382.491 312.167L333.775 312.181Z" fill="black"/>
<path d="M352.594 266.571C352.19 268.376 307.821 309.899 307.821 309.899L333.385 395.82L295.227 403.113L256.911 299.616L326.944 230.912L358.992 244.3L352.594 266.571Z" fill="black"/>
<path d="M280.164 275.713C280.048 275.886 291.963 284.176 306.753 294.243C321.542 304.31 333.645 312.325 333.775 312.181C333.905 312.037 321.99 303.703 307.186 293.636C292.382 283.57 280.294 275.54 280.164 275.713Z" fill="black"/>
<path d="M252.65 329.267C253.144 328.649 253.579 327.987 253.95 327.288C254.744 325.988 255.842 324.068 257.185 321.699C259.857 316.947 263.41 310.304 267.165 302.923C270.92 295.543 274.242 288.74 276.567 283.815C277.737 281.346 278.662 279.338 279.283 277.952C279.648 277.251 279.943 276.515 280.164 275.756C279.728 276.415 279.341 277.105 279.008 277.822L276.12 283.599C273.607 288.582 270.241 295.24 266.53 302.62C262.818 310 259.308 316.702 256.752 321.511C255.524 323.836 254.499 325.757 253.719 327.216C253.31 327.871 252.953 328.557 252.65 329.267Z" fill="black"/>
<path d="M299.864 294.532C301.003 297.7 302.374 300.779 303.965 303.746C305.34 306.815 306.937 309.779 308.746 312.614C306.238 306.375 303.269 300.331 299.864 294.532Z" fill="black"/>
<path d="M396.277 216.333L401.866 237.599L402.112 238.532L401.15 238.449L347.505 233.795L340.877 246.891L408.713 263.597C408.715 263.598 408.717 263.598 408.718 263.599C412.157 264.393 415.762 264.036 418.978 262.582C422.196 261.127 424.846 258.655 426.521 255.546L426.522 255.544C428.484 251.929 428.98 247.697 427.907 243.726L419.403 212.319L396.277 216.333Z" fill="white" stroke="black" stroke-width="1.35959"/>
<path d="M389.438 260.115L388.542 255.465L351.323 248.777L340.506 191.396L271.382 183.164L282.994 244.416L389.438 260.115Z" fill="#EDE2C5"/>
<path d="M309.468 222.304C310.263 222.269 311.028 221.992 311.66 221.51C312.293 221.028 312.763 220.364 313.008 219.607C313.253 218.85 313.26 218.037 313.029 217.276C312.798 216.514 312.34 215.842 311.716 215.349C311.092 214.856 310.332 214.565 309.538 214.516C308.744 214.467 307.954 214.661 307.274 215.074C306.594 215.487 306.057 216.097 305.734 216.824C305.411 217.551 305.318 218.359 305.467 219.141C305.583 220.089 306.068 220.952 306.817 221.545C307.566 222.137 308.519 222.41 309.468 222.304Z" fill="#EBEBEB"/>
<path d="M379.328 95.5386L379.198 99.6837L377.638 161.788C377.45 169.009 371.11 174.584 363.397 174.324C355.598 174.079 349.33 167.969 349.388 160.676C349.46 153.035 349.388 144.976 349.388 144.976C349.388 144.976 339.552 143.229 337.66 130.346C336.722 123.948 337.169 113.462 337.805 104.898C337.94 103.071 338.444 101.291 339.286 99.6637C340.128 98.0369 341.29 96.5973 342.703 95.4314C344.115 94.2656 345.75 93.3977 347.507 92.88C349.264 92.3623 351.107 92.2055 352.926 92.419L379.328 95.5386Z" fill="white"/>
<path d="M349.388 145.02C355.455 145.214 361.457 143.714 366.719 140.688C366.719 140.688 362.386 149.469 349.59 148.111L349.388 145.02Z" fill="black"/>
<path d="M351.049 130.461C351.569 130.545 352.102 130.49 352.594 130.303L354.038 129.898C354.443 129.768 354.891 129.58 355.396 129.393C355.903 129.254 356.362 128.979 356.725 128.598C357.028 128.208 356.97 127.515 356.277 126.894C355.796 126.543 355.238 126.313 354.649 126.221C354.061 126.13 353.459 126.18 352.894 126.368C352.329 126.556 351.817 126.876 351.401 127.301C350.984 127.727 350.675 128.246 350.5 128.815C350.197 129.725 350.572 130.331 351.049 130.461Z" fill="white"/>
<path d="M350.803 130.303C350.977 130.433 351.843 128.656 353.923 128.122C355.195 127.939 356.492 128.084 357.692 128.541C357.692 128.541 357.461 128.079 356.754 127.718C355.819 127.251 354.747 127.138 353.735 127.4C352.72 127.657 351.833 128.272 351.237 129.133C350.789 129.783 350.717 130.274 350.803 130.303Z" fill="black"/>
<path d="M364.452 87.1914C362.468 90.3193 361.617 94.0328 362.04 97.7125C362.463 101.392 364.135 104.815 366.777 107.411C369.853 110.3 374.432 112.51 374.735 116.698C375.082 121.334 369.709 124.8 369.709 129.451C369.709 134.102 375.212 137.279 376.295 141.944C377.161 145.699 374.851 149.454 372.309 152.3C369.767 155.145 366.532 157.658 365.087 161.182C364.321 163.168 363.964 165.288 364.038 167.415C364.113 169.542 364.617 171.632 365.521 173.559C367.349 177.39 369.788 180.897 372.742 183.944C376.583 182.569 380.581 181.681 384.643 181.301C384.397 179.77 384.137 178.224 383.877 176.693C383.916 177.588 384.237 178.448 384.795 179.149C385.353 179.85 386.119 180.355 386.983 180.593C388.724 181.036 390.545 181.061 392.298 180.665C397.711 179.81 403.031 178.441 408.185 176.578C405.88 174.5 403.928 172.061 402.408 169.357C401.658 167.988 401.252 166.459 401.224 164.899C401.197 163.339 401.548 161.796 402.249 160.402C403.52 158.236 405.859 156.849 407.029 154.625C408.777 151.303 407.333 147.086 404.848 144.269C402.364 141.453 398.985 139.619 396.024 137.308C393.063 134.997 390.348 131.877 390.117 128.122C389.799 123.27 393.742 118.836 393.251 113.997C392.702 108.48 386.867 105.1 384.585 100.046C382.924 96.3915 383.141 91.8853 380.599 88.7801C379.602 87.6719 378.362 86.8086 376.977 86.2575C375.592 85.7064 374.098 85.4823 372.612 85.6027C369.642 85.8605 366.783 86.8532 364.293 88.4913" fill="black"/>
<path d="M348.348 146.406C350.659 147.677 350.529 151.216 349.114 153.454C347.698 155.693 345.431 157.296 344.03 159.549C342.846 161.606 342.432 164.018 342.864 166.352C343.295 168.686 344.543 170.79 346.384 172.288L340.838 174.382L339.625 173.703L336.216 171.768L337.819 175.711H334.266C332.379 175.75 330.518 175.259 328.895 174.295C327.272 173.331 325.952 171.932 325.083 170.256C324.214 168.58 323.832 166.694 323.98 164.812C324.127 162.93 324.799 161.127 325.918 159.607C327.363 157.585 329.645 155.982 330.15 153.541C330.742 150.58 328.504 147.908 327.42 145.106C326.558 142.74 326.469 140.16 327.164 137.739C327.86 135.318 329.304 133.18 331.291 131.631" fill="black"/>
<path d="M413.341 76.98C413.341 76.98 413.817 76.98 414.612 77.3844C415.7 77.8529 416.617 78.6445 417.24 79.6519C417.682 80.3412 417.964 81.1211 418.063 81.9339C418.175 82.8662 418.009 83.8105 417.587 84.6492C417.155 85.6451 416.427 86.4844 415.502 87.0534C414.578 87.6224 413.501 87.8938 412.417 87.8307C411.333 87.7677 410.295 87.3734 409.442 86.7011C408.59 86.0287 407.964 85.1108 407.65 84.0714C407.327 83.1876 407.272 82.228 407.491 81.3129C407.693 80.5172 408.063 79.7737 408.575 79.132C409.318 78.2017 410.325 77.5172 411.463 77.1678C412.286 76.9367 412.777 76.9656 412.777 76.9223H412.431C412.287 76.9097 412.142 76.9097 411.998 76.9223C411.807 76.933 411.619 76.9621 411.434 77.0089C410.212 77.2977 409.116 77.9771 408.315 78.9442C407.744 79.6023 407.334 80.3833 407.116 81.2262C406.879 82.1813 406.924 83.1848 407.246 84.1148C407.599 85.1694 408.239 86.1048 409.094 86.8156C410.006 87.5995 411.145 88.0703 412.344 88.1588C413.543 88.2062 414.726 87.8725 415.724 87.2055C416.66 86.6046 417.411 85.7543 417.89 84.7502C418.319 83.8519 418.485 82.8502 418.367 81.8617C418.245 80.9982 417.929 80.1737 417.442 79.4497C416.751 78.3941 415.738 77.5889 414.554 77.1533C414.37 77.0878 414.182 77.0347 413.991 76.9945C413.855 76.953 413.714 76.9288 413.572 76.9223C413.493 76.9311 413.415 76.9506 413.341 76.98Z" fill="#263238"/>
<path d="M399.244 90.9462C399.244 90.9462 399.548 91.0185 400.024 91.2351C400.711 91.5375 401.29 92.0411 401.685 92.6794C401.984 93.1329 402.159 93.6562 402.195 94.198C402.23 94.7399 402.124 95.2816 401.887 95.7701C401.618 96.3834 401.168 96.8995 400.597 97.2491C400.026 97.5987 399.361 97.765 398.693 97.7257C398.024 97.6864 397.384 97.4433 396.857 97.0291C396.331 96.615 395.944 96.0496 395.749 95.4091C395.569 94.8961 395.527 94.345 395.626 93.8105C395.724 93.2759 395.961 92.7765 396.312 92.3616C396.779 91.7723 397.413 91.339 398.132 91.1196C398.638 90.9607 398.941 90.9751 398.941 90.9318C398.662 90.859 398.368 90.859 398.089 90.9318C397.43 91.0882 396.825 91.4186 396.337 91.8886C395.849 92.3586 395.497 92.9509 395.316 93.6037C395.137 94.2216 395.137 94.8778 395.316 95.4957C395.529 96.2125 395.957 96.8464 396.543 97.3111C397.129 97.7758 397.843 98.0488 398.59 98.0929C399.336 98.1371 400.078 97.9503 400.715 97.558C401.351 97.1657 401.851 96.5868 402.147 95.9001C402.436 95.3193 402.542 94.6647 402.451 94.0226C402.373 93.4737 402.17 92.9499 401.858 92.4916C401.415 91.823 400.766 91.3162 400.01 91.0473C399.765 90.9579 399.504 90.9234 399.244 90.9462Z" fill="#263238"/>
<path d="M415.623 48.3545C415.623 48.3545 415.623 48.109 415.623 47.6324C415.623 47.1558 415.623 46.4336 415.623 45.5093C415.623 45.0327 415.623 44.5127 415.623 43.935C415.623 43.3573 415.709 42.7363 415.753 42.0574C415.796 41.3786 415.854 40.6132 415.926 39.8621C415.944 39.4587 415.997 39.0576 416.085 38.6634L416.301 37.3924C417.014 33.1464 418.363 29.0321 420.302 25.1882C422.826 20.1021 426.302 15.5474 430.542 11.7709L432.347 10.1966C432.983 9.70556 433.662 9.24339 434.326 8.75234L435.351 8.0302C435.674 7.76473 436.022 7.53246 436.391 7.33693L438.616 5.99376C438.991 5.77711 439.352 5.54603 439.742 5.34383L440.941 4.795L443.353 3.69736C444.19 3.35073 445.057 3.09075 445.909 2.78745L447.209 2.33973L447.873 2.12309L448.552 1.96422C450.375 1.48286 452.228 1.12102 454.098 0.881012C455.051 0.779913 456.019 0.606583 456.987 0.548812L459.875 0.462158C460.366 0.462158 460.857 0.462158 461.32 0.462158L462.764 0.577703C463.775 0.66436 464.786 0.693243 465.782 0.823229C467.825 1.11358 469.847 1.53816 471.834 2.0942L473.35 2.52749C473.596 2.52749 473.856 2.65747 474.101 2.74412L474.838 3.03298L477.813 4.18841C478.781 4.62169 479.734 5.14163 480.702 5.63269C481.178 5.89266 481.67 6.09486 482.146 6.38372L483.59 7.26473C485.462 8.43746 487.252 9.73547 488.949 11.1498L491.39 13.4463L492.011 14.024L492.574 14.6594L493.686 15.9448L494.812 17.2158L495.823 18.6601L496.82 20.1044L497.326 20.8121C497.484 21.0576 497.629 21.3031 497.773 21.5487L499.521 24.5672C499.997 25.6215 500.488 26.6759 500.965 27.7446C504.724 36.5773 505.49 46.3972 503.146 55.7059L502.193 59.0855L500.936 62.3207L500.618 63.1295L500.229 63.895L499.449 65.4404L498.683 66.9569L497.759 68.4011L496.849 69.8454L496.401 70.5531L495.881 71.2175L493.816 73.875C492.357 75.5333 490.789 77.0918 489.122 78.54L487.894 79.6232C487.49 79.9843 487.028 80.2731 486.595 80.5909C485.714 81.2119 484.861 81.8763 483.966 82.454L481.222 83.9849L480.543 84.3893L479.821 84.7215L478.377 85.3714C476.5 86.2271 474.57 86.9604 472.599 87.5667C471.617 87.8556 470.621 88.0433 469.711 88.2889L468.267 88.6355C467.776 88.7366 467.284 88.7655 466.822 88.8377L463.934 89.2132C462.966 89.3143 461.998 89.2132 461.045 89.3288C459.156 89.3926 457.264 89.325 455.384 89.1266H454.69L454.012 89.011L452.654 88.7799C451.758 88.6066 450.863 88.4911 449.996 88.2744L447.426 87.5667L446.155 87.2201L444.941 86.7435L442.558 85.8192C442.164 85.6783 441.782 85.5043 441.417 85.2992L440.291 84.7359C439.554 84.3604 438.847 84.0138 438.11 83.6238L436.088 82.3384C431.281 79.2642 427.117 75.2863 423.826 70.6253C423.465 70.1198 423.089 69.6288 422.743 69.181L421.847 67.6501L420.981 66.2058C420.836 65.9603 420.692 65.7292 420.562 65.4837C420.432 65.2382 420.345 64.9782 420.23 64.7327L418.93 61.9307C418.554 61.0353 418.294 60.1254 417.991 59.3022L417.558 58.0745C417.416 57.6991 417.305 57.3126 417.226 56.9191L416.706 54.7671C416.561 54.1028 416.388 53.4962 416.287 52.9329C416.186 52.3696 416.142 51.8497 416.07 51.3875C415.955 50.4632 415.854 49.7699 415.781 49.2789C415.709 48.7878 415.666 48.5712 415.666 48.5712C415.666 48.5712 415.666 48.8167 415.666 49.2933L415.926 51.402C415.926 51.8641 416.041 52.384 416.114 52.9473C416.186 53.5106 416.374 54.1316 416.518 54.796C416.662 55.4604 416.836 56.2403 417.009 56.948C417.086 57.3467 417.197 57.7381 417.341 58.1178C417.486 58.5222 417.616 58.9267 417.76 59.3455C418.063 60.1832 418.309 61.0931 418.699 62.003C419.089 62.9129 419.537 63.8372 419.97 64.8915L420.316 65.6426C420.432 65.8881 420.591 66.1336 420.721 66.3791C421.01 66.8558 421.299 67.3612 421.587 67.8234C421.876 68.2856 422.18 68.8489 422.483 69.3832C422.786 69.9176 423.205 70.3798 423.566 70.8997C426.885 75.5371 431.068 79.4898 435.886 82.5406L437.922 83.8405C438.63 84.2304 439.367 84.5915 440.118 84.967L441.23 85.5447C441.601 85.7472 441.987 85.921 442.385 86.0647L444.797 87.0035L446.01 87.4801L447.281 87.8411L449.866 88.5633C450.747 88.7799 451.657 88.8955 452.553 89.0688L453.925 89.3143L454.604 89.4299H455.311C457.201 89.638 459.102 89.7152 461.002 89.6609C461.97 89.6609 462.952 89.6609 463.89 89.5454L466.779 89.1699C467.284 89.1699 467.776 89.0688 468.223 88.9532L469.668 88.6211C470.65 88.3755 471.661 88.1878 472.643 87.8989C474.617 87.2971 476.548 86.5588 478.42 85.6892L479.864 85.0392L480.586 84.7071L481.28 84.3027L484.067 82.6851C484.962 82.1074 485.829 81.4285 486.71 80.8075C487.158 80.4753 487.62 80.1864 488.024 79.8254L489.266 78.7422C491.027 77.2817 492.683 75.6987 494.22 74.0049L496.315 71.333L496.834 70.6542L497.297 69.9321L498.207 68.4878L499.131 67.0435L499.911 65.5126L500.705 63.9528L501.095 63.1728L501.442 62.3207C501.875 61.2375 502.294 60.1399 502.713 59.0566C503.132 57.9734 503.348 56.7891 503.68 55.6481C506.02 46.2573 505.234 36.3597 501.442 27.4558L499.997 24.235C499.405 23.224 498.813 22.213 498.235 21.202C498.077 20.9565 497.947 20.6965 497.788 20.451L497.282 19.7433L496.257 18.299L495.246 16.8548L494.105 15.5549L492.978 14.2695L492.415 13.634L491.794 13.0419L489.324 10.7166C487.611 9.29363 485.801 7.99069 483.908 6.81701L482.464 5.93599C482.002 5.6327 481.496 5.43048 481.02 5.17051C480.052 4.69389 479.099 4.15951 478.131 3.72623L475.127 2.55636L474.376 2.26751L473.625 2.05088L472.094 1.63202C470.094 1.07043 468.057 0.645806 465.999 0.36107C464.974 0.231085 463.963 0.187745 462.952 0.101088L461.507 0C461.016 0 460.511 0 460.063 0L457.088 0.0866533C456.106 0.0866533 455.153 0.317724 454.199 0.433267C452.312 0.667146 450.443 1.03884 448.61 1.54537L447.917 1.70424C447.7 1.70424 447.483 1.84866 447.267 1.92087L445.952 2.36862C445.086 2.68636 444.205 2.93187 443.382 3.2785L440.782 4.54948L439.583 5.09831L438.442 5.74823L436.218 7.04808C435.85 7.25873 435.498 7.49523 435.164 7.75578L434.138 8.49236C433.474 8.98341 432.781 9.44558 432.145 9.93664L430.325 11.5254C426.05 15.3502 422.553 19.9649 420.028 25.116C418.087 28.9812 416.753 33.1217 416.07 37.3924C415.998 37.8257 415.926 38.259 415.854 38.6634C415.779 39.0641 415.731 39.4695 415.709 39.8766C415.709 40.6565 415.594 41.3931 415.55 42.0719C415.507 42.7507 415.449 43.3862 415.435 43.9639C415.42 44.5416 415.435 45.0616 415.435 45.5382C415.435 46.4625 415.435 47.1702 415.435 47.6613L415.623 48.3545Z" fill="#263238"/>
<path d="M460.932 50.7898H459.745C459.76 49.7057 459.877 48.7534 460.097 47.9329C460.317 47.0979 460.676 46.3214 461.174 45.6035C461.672 44.8709 462.353 44.1091 463.218 43.3179C464.111 42.4536 464.873 41.6551 465.503 40.9225C466.148 40.19 466.638 39.3769 466.975 38.4832C467.312 37.5895 467.481 36.476 467.481 35.1428C467.481 33.8242 467.246 32.6522 466.778 31.6266C466.309 30.6011 465.606 29.7953 464.668 29.2092C463.73 28.6086 462.551 28.3082 461.13 28.3082C459.723 28.3082 458.515 28.5939 457.504 29.1653C456.493 29.7367 455.709 30.5351 455.152 31.5607C454.61 32.5716 454.324 33.7363 454.295 35.0549H453.108C453.138 33.3701 453.519 31.9416 454.251 30.7695C454.984 29.5828 455.951 28.6818 457.152 28.0665C458.368 27.4511 459.694 27.1435 461.13 27.1435C462.771 27.1435 464.148 27.4951 465.261 28.1983C466.375 28.9016 467.217 29.8612 467.789 31.0772C468.375 32.2932 468.668 33.6631 468.668 35.1868C468.668 36.476 468.492 37.6188 468.14 38.615C467.803 39.5966 467.276 40.5343 466.558 41.428C465.84 42.307 464.932 43.2447 463.833 44.2409C462.749 45.0907 461.994 46.0796 461.569 47.2077C461.144 48.3358 460.932 49.5299 460.932 50.7898ZM459.218 58.5035C459.218 58.1665 459.335 57.8808 459.569 57.6464C459.804 57.3974 460.09 57.2728 460.427 57.2728C460.763 57.2728 461.049 57.3974 461.284 57.6464C461.533 57.8808 461.657 58.1665 461.657 58.5035C461.657 58.8405 461.533 59.1261 461.284 59.3606C461.049 59.595 460.763 59.7122 460.427 59.7122C460.09 59.7122 459.804 59.595 459.569 59.3606C459.335 59.1261 459.218 58.8405 459.218 58.5035Z" fill="black"/>
</svg>
