<svg width="81" height="62" viewBox="0 0 81 62" fill="none" xmlns="http://www.w3.org/2000/svg">
<g id="Group 427319833">
<path id="Vector" d="M2.63138 23.3185L2.63104 23.3186C1.88485 23.5886 1.27635 24.1438 0.939191 24.8621C0.602084 25.5804 0.563802 26.4031 0.832744 27.1495C0.832785 27.1496 0.832825 27.1497 0.832866 27.1498L12.6135 59.6236C12.6136 59.6239 12.6137 59.6242 12.6138 59.6246C12.8888 60.3688 13.4463 60.9744 14.1653 61.3099C14.8843 61.6453 15.7065 61.6834 16.4534 61.416C16.4538 61.4159 16.4542 61.4157 16.4545 61.4156L78.2617 38.9956L2.63138 23.3185ZM2.63138 23.3185L64.4394 0.889832M2.63138 23.3185L64.4394 0.889832M80.0611 35.1545L68.2805 2.68918L80.0611 35.1545ZM80.0611 35.1545C80.0613 35.1549 80.0614 35.1554 80.0616 35.1558M80.0611 35.1545L80.0616 35.1558M80.0616 35.1558C80.3285 35.9036 80.2894 36.7266 79.9525 37.4456C79.6157 38.1647 79.0084 38.7216 78.263 38.9951L80.0616 35.1558ZM64.4394 0.889832C64.4398 0.889698 64.4402 0.889565 64.4406 0.889431M64.4394 0.889832L64.4406 0.889431M64.4406 0.889431C65.1884 0.622389 66.0115 0.661551 66.7306 0.998424C67.4497 1.33528 68.0066 1.94253 68.2801 2.68798L64.4406 0.889431Z" fill="white" stroke="black" stroke-width="0.814827"/>
<path id="Vector_2" d="M64.4382 0.865303C65.0047 0.669676 65.6131 0.648668 66.1861 0.799179L48.7787 29.4445L48.7786 29.4447C47.1906 32.0612 44.7562 34.0565 41.8788 35.1C39.0015 36.1435 35.8539 36.1725 32.9578 35.1822L32.9576 35.1821L1.2339 24.3557C1.5812 23.8727 2.06693 23.501 2.63197 23.2933C2.63222 23.2932 2.63246 23.2931 2.6327 23.293L64.4355 0.866237C64.4364 0.865925 64.4373 0.865614 64.4382 0.865303Z" fill="white" stroke="black" stroke-width="0.814827"/>
</g>
</svg>
