<svg width="114" height="69" viewBox="0 0 114 69" fill="none" xmlns="http://www.w3.org/2000/svg">
<g id="freepik--bubble-speech--inject-2">
<path id="Vector" d="M21.5328 54.4349V53.9812H21.0791H13.8983C10.3326 53.9812 6.91291 52.5647 4.39157 50.0433C1.87022 47.522 0.453727 44.1023 0.453727 40.5366V13.8983C0.453727 10.3326 1.87022 6.91288 4.39157 4.39154C6.91291 1.8702 10.3326 0.453727 13.8983 0.453727H99.8359C103.402 0.453727 106.821 1.8702 109.343 4.39154C111.864 6.91288 113.28 10.3326 113.28 13.8983V40.5366C113.28 44.1023 111.864 47.522 109.343 50.0433C106.821 52.5647 103.402 53.9812 99.8359 53.9812H34.7457H34.5577L34.4248 54.1141L21.5328 67.0061V54.4349Z" fill="white" stroke="black" stroke-width="0.907453"/>
<path id="Vector_2" opacity="0.3" d="M21.5328 54.4349V53.9812H21.0791H13.8983C10.3326 53.9812 6.91291 52.5647 4.39157 50.0433C1.87022 47.522 0.453727 44.1023 0.453727 40.5366V13.8983C0.453727 10.3326 1.87022 6.91288 4.39157 4.39154C6.91291 1.8702 10.3326 0.453727 13.8983 0.453727H99.8359C103.402 0.453727 106.821 1.8702 109.343 4.39154C111.864 6.91288 113.28 10.3326 113.28 13.8983V40.5366C113.28 44.1023 111.864 47.522 109.343 50.0433C106.821 52.5647 103.402 53.9812 99.8359 53.9812H34.7457H34.5577L34.4248 54.1141L21.5328 67.0061V54.4349Z" fill="white" stroke="black" stroke-width="0.907453"/>
<g id="Group">
<path id="Vector_3" d="M15.8901 11.526H97.8204C99.3289 11.526 100.552 12.7488 100.552 14.2573C100.552 15.7657 99.3289 16.9886 97.8204 16.9886H15.8901C14.3816 16.9886 13.1588 15.7657 13.1588 14.2573C13.1588 12.7488 14.3816 11.526 15.8901 11.526Z" fill="white" stroke="black" stroke-width="0.907453"/>
</g>
<g id="Group_2">
<path id="Vector_4" d="M99.7403 24.9734L100.061 24.6526L99.7403 24.9734C100.253 25.4856 100.54 26.1804 100.54 26.9047C100.54 27.6305 100.253 28.3267 99.7404 28.8408C99.2284 29.3547 98.5336 29.6448 97.8081 29.6476H45.2976C44.5708 29.6448 43.8745 29.3548 43.3606 28.8409C42.8468 28.3271 42.5569 27.6312 42.5538 26.9048C42.5569 26.1796 42.847 25.4852 43.3607 24.9733C43.8748 24.4611 44.571 24.1734 45.2967 24.1735H97.809C98.5334 24.1735 99.2281 24.4612 99.7403 24.9734Z" fill="white" stroke="black" stroke-width="0.907453"/>
</g>
<g id="Group_3">
<path id="Vector_5" d="M29.7064 29.6476H15.891C15.1655 29.6448 14.4708 29.3547 13.9587 28.8408C13.4464 28.3266 13.1588 27.6305 13.1588 26.9047C13.1588 26.1804 13.4466 25.4857 13.9588 24.9734C14.471 24.4612 15.1657 24.1735 15.8901 24.1735H29.7073C30.4317 24.1735 31.1264 24.4612 31.6386 24.9734C32.1508 25.4857 32.4386 26.1804 32.4386 26.9047C32.4386 27.6305 32.151 28.3266 31.6387 28.8408C31.1267 29.3547 30.4319 29.6448 29.7064 29.6476Z" fill="white" stroke="black" stroke-width="0.907453"/>
</g>
<g id="Group_4">
<path id="Vector_6" d="M77.3552 42.2951H15.8901C15.1657 42.2951 14.471 42.0073 13.9588 41.4951C13.4466 40.9829 13.1588 40.2882 13.1588 39.5638C13.1588 38.8381 13.4464 38.1419 13.9587 37.6278C14.4707 37.1139 15.1655 36.8238 15.891 36.8209H77.3544C78.0798 36.8238 78.7746 37.1139 79.2867 37.6278C79.7989 38.1419 80.0865 38.8381 80.0865 39.5638C80.0865 40.2882 79.7987 40.9829 79.2865 41.4951C78.7743 42.0073 78.0796 42.2951 77.3552 42.2951Z" fill="white" stroke="black" stroke-width="0.907453"/>
</g>
</g>
</svg>
