<svg width="400" height="392" viewBox="0 0 400 392" fill="none" xmlns="http://www.w3.org/2000/svg">
<path d="M365.347 374.179C384.485 366.011 393.379 343.876 385.212 324.738C377.045 305.6 354.91 296.706 335.771 304.873C316.633 313.04 307.739 335.175 315.906 354.314C324.073 373.452 346.209 382.346 365.347 374.179Z" stroke="black" stroke-width="0.919383" stroke-linecap="round" stroke-linejoin="round"/>
<path d="M350.545 374.033C369.581 374.033 385.013 358.601 385.013 339.565C385.013 320.529 369.581 305.098 350.545 305.098C331.509 305.098 316.078 320.529 316.078 339.565C316.078 358.601 331.509 374.033 350.545 374.033Z" stroke="black" stroke-width="0.919383" stroke-linecap="round" stroke-linejoin="round"/>
<path d="M352.687 339.547C352.689 339.973 352.564 340.39 352.329 340.746C352.093 341.101 351.757 341.378 351.364 341.542C350.97 341.706 350.537 341.749 350.119 341.667C349.7 341.584 349.316 341.379 349.015 341.077C348.713 340.776 348.508 340.392 348.426 339.974C348.343 339.555 348.386 339.122 348.55 338.729C348.714 338.335 348.991 337.999 349.347 337.764C349.702 337.528 350.119 337.403 350.545 337.405C351.113 337.405 351.658 337.63 352.06 338.032C352.462 338.434 352.687 338.979 352.687 339.547Z" stroke="black" stroke-width="0.919383" stroke-linecap="round" stroke-linejoin="round"/>
<path d="M350.545 341.708V364.444" stroke="black" stroke-width="0.919383" stroke-linecap="round" stroke-linejoin="round"/>
<path d="M348.394 339.566H336.929" stroke="black" stroke-width="0.919383" stroke-linecap="round" stroke-linejoin="round"/>
<path d="M253.39 198.096L253.444 198.443L253.793 198.483L273.667 200.744V219.387L253.186 221.721L252.855 221.759L252.788 222.085C251.987 225.938 250.854 229.715 249.4 233.372L249.269 233.702L249.555 233.912L265.614 245.702L256.154 261.855L237.219 253.741L236.917 253.611L236.696 253.856C234.054 256.799 231.163 259.509 228.057 261.957L227.778 262.177L227.92 262.502L235.863 280.677L219.473 290.008L207.176 273.681L206.979 273.419L206.666 273.521C202.88 274.758 198.996 275.675 195.056 276.261L194.708 276.313L194.667 276.662L192.37 296.243H173.44L171.079 276.056L171.04 275.724L170.712 275.658C166.805 274.878 162.973 273.759 159.26 272.316L158.935 272.189L158.726 272.468L146.796 288.316L130.407 278.985L138.607 260.315L138.743 260.006L138.489 259.784C135.512 257.182 132.762 254.331 130.269 251.262L130.05 250.993L129.731 251.13L111.349 258.978L101.888 242.779L118.415 230.704L118.688 230.505L118.579 230.184C117.308 226.463 116.367 222.638 115.766 218.752L115.713 218.405L115.364 218.366L95.4902 216.104V197.452L116.009 195.072L116.338 195.033L116.406 194.708C117.206 190.854 118.343 187.078 119.803 183.422L119.935 183.09L119.646 182.88L103.58 171.172L113.041 154.947L131.974 163.061L132.277 163.191L132.497 162.946C135.142 160.006 138.033 157.295 141.137 154.845L141.416 154.624L141.273 154.299L133.313 136.19L149.73 126.849L162.054 143.168L162.253 143.43L162.565 143.327C166.346 142.084 170.227 141.168 174.164 140.587L174.513 140.536L174.554 140.185L176.824 120.595H195.754L198.124 140.784L198.163 141.114L198.489 141.18C202.392 141.97 206.221 143.088 209.935 144.524L210.259 144.649L210.468 144.371L222.397 128.522L238.795 137.854L230.596 156.524L230.46 156.833L230.714 157.055C233.691 159.657 236.441 162.508 238.934 165.577L239.153 165.845L239.471 165.709L257.854 157.861L267.314 174.014L250.751 186.135L250.478 186.334L250.587 186.654C251.854 190.379 252.792 194.207 253.39 198.096ZM184.597 255.193H185.056V255.154C211.037 254.911 232.028 234.083 232.028 208.406C232.028 182.578 210.78 161.646 184.597 161.646C158.413 161.646 137.175 182.596 137.175 208.433C137.175 234.271 158.413 255.193 184.597 255.193Z" stroke="black" stroke-width="0.919383"/>
<path d="M348.013 108.558L348.067 108.905L348.416 108.944L361.109 110.387V122.161L348.003 123.633L347.671 123.67L347.604 123.996C347.089 126.481 346.359 128.917 345.42 131.274L345.289 131.605L345.576 131.815L355.841 139.33L349.875 149.517L337.763 144.344L337.46 144.214L337.24 144.459C335.537 146.354 333.674 148.098 331.671 149.673L331.391 149.893L331.535 150.219L336.618 161.792L326.296 167.675L318.431 157.232L318.231 156.967L317.916 157.074C315.484 157.897 312.984 158.506 310.446 158.893L310.1 158.946L310.059 159.294L308.59 171.759H296.646L295.14 158.881L295.101 158.549L294.774 158.483C292.261 157.978 289.794 157.259 287.402 156.335L287.078 156.21L286.87 156.488L279.243 166.609L268.922 160.726L274.161 148.794L274.297 148.484L274.041 148.262C272.123 146.597 270.351 144.771 268.745 142.802L268.527 142.534L268.209 142.67L256.464 147.687L250.498 137.5L261.076 129.747L261.349 129.547L261.239 129.227C260.418 126.832 259.809 124.369 259.42 121.867L259.366 121.521L259.018 121.481L246.315 120.038V108.272L259.405 106.747L259.735 106.708L259.802 106.383C260.316 103.898 261.047 101.463 261.985 99.1051L262.117 98.7744L261.83 98.5641L251.573 91.0588L257.539 80.8638L269.679 86.0906L269.981 86.2211L270.202 85.9759C271.905 84.0835 273.765 82.339 275.763 80.7611L276.042 80.5408L275.899 80.2155L270.815 68.6427L281.137 62.7596L288.993 73.2021L289.193 73.4675L289.507 73.3613C291.941 72.5401 294.44 71.9311 296.978 71.5414L297.324 71.4882L297.365 71.1405L298.835 58.6018H310.796L312.311 71.5084L312.35 71.8397L312.677 71.9054C315.192 72.411 317.658 73.1326 320.048 74.0621L320.373 74.1883L320.582 73.9102L328.209 63.78L338.53 69.6632L333.291 81.5946L333.154 81.9044L333.41 82.1264C335.325 83.7914 337.094 85.618 338.697 87.586L338.915 87.8544L339.234 87.7185L350.987 82.7018L356.945 92.9337L346.357 100.679L346.084 100.878L346.194 101.199C347.015 103.594 347.623 106.057 348.013 108.558ZM303.724 145.575L303.727 145.575C311.836 145.63 319.634 142.464 325.41 136.772C331.185 131.081 334.466 123.329 334.53 115.221L334.53 115.218C334.535 109.225 332.767 103.364 329.45 98.3733C326.133 93.3822 321.414 89.4836 315.887 87.1676C310.359 84.8517 304.27 84.222 298.386 85.3576C292.502 86.4932 287.085 89.3435 282.816 93.55C278.548 97.7564 275.618 103.131 274.397 108.998C273.175 114.865 273.715 120.963 275.95 126.523C278.185 132.084 282.014 136.86 286.956 140.25C291.898 143.64 297.732 145.493 303.724 145.575Z" stroke="black" stroke-width="0.919383"/>
<path d="M207.958 32.6388C202.69 29.7611 200.291 32.1607 198.378 29.7611C196.466 27.3616 203.646 21.1373 189.267 14.9131C189.267 14.9131 188.348 1.49012 168.664 1.01204C148.98 0.53396 154.294 14.435 149.017 17.7632C143.739 21.0914 142.314 15.8509 137.065 19.2066C131.815 22.5624 134.187 29.2647 129.875 30.2392C125.563 31.2138 119.817 25.9273 114.549 29.3198C109.281 32.7124 109.272 35.5532 106.881 35.5532C104.491 35.5532 99.6917 33.6317 96.7681 35.5532C93.8445 37.4748 90.5623 39.8284 90.5623 39.8284H211.792C211.792 39.8284 213.226 35.5165 207.958 32.6388Z" stroke="black" stroke-width="0.919383" stroke-linecap="round" stroke-linejoin="round"/>
<path d="M136.237 30.6348C135.552 31.0231 134.839 31.3611 134.104 31.6461" stroke="black" stroke-width="0.919383" stroke-linecap="round" stroke-linejoin="round"/>
<path d="M162.145 8.28467C160.956 8.81797 159.91 9.62758 159.096 10.6462C158.282 11.6648 157.723 12.863 157.466 14.1411C156.592 18.5266 154.542 21.4502 152.207 21.7444C149.872 22.0386 141.092 21.156 139.63 24.3739C139.243 25.3162 138.969 26.3005 138.812 27.3067" stroke="black" stroke-width="0.919383" stroke-linecap="round" stroke-linejoin="round"/>
<path d="M244.458 60.5787C241.543 58.9974 240.229 60.3213 239.171 58.9974C238.114 57.6735 242.077 54.235 234.142 50.7965C234.142 50.7965 233.618 43.3955 222.779 43.1288C211.939 42.8622 214.844 50.5391 211.939 52.387C209.034 54.235 208.262 51.3297 205.329 53.1777C202.396 55.0257 203.738 58.694 201.357 59.264C198.976 59.834 195.841 56.8828 192.899 58.7308C189.957 60.5787 189.994 62.1693 188.67 62.1693C187.346 62.1693 184.698 61.112 183.153 62.1693C181.609 63.2266 179.715 64.5505 179.715 64.5505H246.609C246.609 64.5505 247.363 62.1693 244.458 60.5787Z" stroke="black" stroke-width="0.919383" stroke-linecap="round" stroke-linejoin="round"/>
<path d="M204.887 59.4941C204.506 59.7093 204.11 59.8967 203.701 60.055" stroke="black" stroke-width="0.919383" stroke-linecap="round" stroke-linejoin="round"/>
<path d="M219.193 47.1836C218.537 47.4775 217.96 47.9235 217.511 48.4847C217.062 49.0459 216.753 49.7061 216.61 50.4106C216.132 52.8286 215.001 54.4467 213.704 54.603C212.408 54.7593 207.581 54.2812 206.772 56.0556C206.557 56.5747 206.406 57.1181 206.322 57.6738" stroke="black" stroke-width="0.919383" stroke-linecap="round" stroke-linejoin="round"/>
<path d="M90.6082 124.881C86.9307 122.858 85.2206 124.54 83.8783 122.858C82.536 121.176 87.5559 116.808 77.4426 112.432C77.4426 112.432 76.7715 103.009 62.9716 102.668C49.1716 102.328 52.8583 112.092 49.1808 114.446C45.5033 116.799 44.4644 113.103 40.7869 115.457C37.1093 117.811 38.7642 122.527 35.7394 123.198C32.7147 123.869 28.6694 120.173 24.9643 122.527C21.2592 124.881 21.2867 126.903 19.5859 126.903C17.885 126.903 14.5385 125.552 12.5158 126.903C10.4932 128.255 8.15796 129.928 8.15796 129.928H93.302C93.302 129.928 94.3041 126.903 90.6082 124.881Z" stroke="black" stroke-width="0.919383" stroke-linecap="round" stroke-linejoin="round"/>
<path d="M40.2444 123.492C39.758 123.761 39.2543 123.998 38.7366 124.2" stroke="black" stroke-width="0.919383" stroke-linecap="round" stroke-linejoin="round"/>
<path d="M58.4575 107.78C57.6215 108.154 56.8867 108.721 56.3143 109.436C55.7418 110.151 55.3482 110.992 55.1661 111.889C54.5501 114.969 53.1158 117.02 51.4885 117.222C49.8612 117.424 43.6922 116.817 42.6625 119.061C42.3922 119.726 42.1979 120.42 42.0833 121.129" stroke="black" stroke-width="0.919383" stroke-linecap="round" stroke-linejoin="round"/>
<path d="M362.47 245.32C358.792 243.297 357.082 244.979 355.74 243.297C354.398 241.614 359.417 237.238 349.35 232.871C349.35 232.871 348.67 223.447 334.879 223.107C321.088 222.767 324.766 232.531 321.088 234.885C317.411 237.238 316.381 233.542 312.676 235.896C308.971 238.25 310.653 242.966 307.628 243.637C304.604 244.308 300.558 240.603 296.863 242.966C293.167 245.329 293.185 247.333 291.475 247.333C289.765 247.333 286.428 245.991 284.405 247.333C282.382 248.675 280.038 250.367 280.038 250.367H365.173C365.173 250.367 366.175 247.333 362.47 245.32Z" stroke="black" stroke-width="0.919383" stroke-linecap="round" stroke-linejoin="round"/>
<path d="M312.106 243.932C311.625 244.208 311.124 244.448 310.607 244.649" stroke="black" stroke-width="0.919383" stroke-linecap="round" stroke-linejoin="round"/>
<path d="M330.319 228.219C329.484 228.591 328.751 229.158 328.18 229.871C327.609 230.584 327.217 231.424 327.037 232.32C326.421 235.409 324.977 237.459 323.359 237.661C321.741 237.864 315.554 237.257 314.524 239.5C314.252 240.164 314.06 240.859 313.954 241.569" stroke="black" stroke-width="0.919383" stroke-linecap="round" stroke-linejoin="round"/>
<path d="M382.374 178.655C382.358 178.184 382.222 177.725 381.979 177.322C381.735 176.919 381.393 176.585 380.983 176.351C380.574 176.118 380.112 175.994 379.641 175.99C379.17 175.986 378.705 176.103 378.292 176.329L339.292 199.102C338.891 199.349 338.56 199.695 338.33 200.106C338.1 200.517 337.979 200.98 337.979 201.451C337.979 201.922 338.1 202.385 338.33 202.797C338.56 203.208 338.891 203.553 339.292 203.8L353.515 211.918L303.215 296.235L253.789 281.157C252.423 280.747 250.959 280.803 249.628 281.315C248.296 281.828 247.173 282.768 246.434 283.989L191.271 375.366L131.686 330.887C130.86 330.269 129.898 329.859 128.88 329.691C127.863 329.523 126.82 329.602 125.839 329.921L4.48044 369.455C3.67188 369.712 2.92231 370.128 2.27486 370.676C1.62742 371.225 1.09489 371.896 0.70793 372.652C0.32097 373.407 0.0872181 374.231 0.0201363 375.077C-0.0469455 375.923 0.053967 376.774 0.31706 377.581C0.580153 378.388 1.00023 379.135 1.55312 379.779C2.10601 380.423 2.78078 380.951 3.5386 381.333C4.29641 381.715 5.12231 381.943 5.96874 382.005C6.81518 382.066 7.66543 381.96 8.47056 381.692L126.639 343.225L189.24 389.957C190.352 390.787 191.704 391.235 193.092 391.235C193.505 391.237 193.918 391.196 194.324 391.115C195.205 390.943 196.041 390.588 196.778 390.074C197.514 389.559 198.134 388.896 198.599 388.127L254.847 294.966L304.3 310.044C305.675 310.464 307.151 310.411 308.492 309.895C309.833 309.378 310.963 308.427 311.701 307.194L364.713 218.327L378.504 226.224C378.919 226.445 379.385 226.557 379.856 226.547C380.326 226.538 380.787 226.408 381.194 226.171C381.6 225.933 381.939 225.595 382.178 225.189C382.417 224.783 382.548 224.323 382.558 223.852L382.374 178.655Z" fill="black"/>
<path d="M118.65 251.525C118.65 251.525 110.623 268.139 108.904 279.888C107.185 291.638 97.4486 312.554 97.4486 312.554C97.4486 312.554 88.8524 315.992 88.5673 318.861C88.2823 321.729 85.9839 330.601 85.9839 330.601L87.4181 331.466L91.1416 322.584C91.1416 322.584 92.8609 328.882 93.4309 331.466C93.6326 332.665 94.0203 333.825 94.5801 334.904C94.5801 334.904 102.027 338.628 103.774 339.198C105.521 339.768 108.077 339.492 106.927 337.193C105.778 334.895 101.485 330.031 101.485 330.031L104.059 314.843C104.059 314.843 140.448 253.53 141.597 250.946C142.747 248.363 134.15 240.925 134.15 240.925L118.65 251.525Z" fill="white"/>
<mask id="mask0_156_1691" style="mask-type:luminance" maskUnits="userSpaceOnUse" x="85" y="240" width="57" height="100">
<path d="M118.65 251.525C118.65 251.525 110.623 268.139 108.904 279.888C107.185 291.638 97.4486 312.554 97.4486 312.554C97.4486 312.554 88.8524 315.992 88.5673 318.861C88.2823 321.729 85.9839 330.601 85.9839 330.601L87.4181 331.466L91.1416 322.584C91.1416 322.584 92.8609 328.882 93.4309 331.466C93.6326 332.665 94.0203 333.825 94.5801 334.904C94.5801 334.904 102.027 338.628 103.774 339.198C105.521 339.768 108.077 339.492 106.927 337.193C105.778 334.895 101.485 330.031 101.485 330.031L104.059 314.843C104.059 314.843 140.448 253.53 141.597 250.946C142.747 248.363 134.15 240.925 134.15 240.925L118.65 251.525Z" fill="white"/>
</mask>
<g mask="url(#mask0_156_1691)">
<path opacity="0.2" d="M98.2484 320.24C98.2484 320.24 130.896 258.513 130.427 252.206C130.261 249.953 128.8 247.728 127.007 245.77L118.65 251.498C118.65 251.498 110.623 268.111 108.904 279.861C107.185 291.61 97.4486 312.526 97.4486 312.526C97.4486 312.526 88.8524 315.965 88.5673 318.833C88.2823 321.702 85.9839 330.574 85.9839 330.574L87.4181 331.438L91.1416 322.557C91.1416 322.557 92.8609 328.855 93.4309 331.438C93.6326 332.637 94.0203 333.797 94.5801 334.877C94.5801 334.877 96.4189 335.796 98.4323 336.771C97.991 330.197 98.2484 320.24 98.2484 320.24Z" fill="black"/>
</g>
<path d="M118.65 251.525C118.65 251.525 110.623 268.139 108.904 279.888C107.185 291.638 97.4486 312.554 97.4486 312.554C97.4486 312.554 88.8524 315.992 88.5674 318.861C88.2823 321.729 85.9839 330.601 85.9839 330.601L87.4181 331.466L91.1416 322.584C91.1416 322.584 92.8609 328.882 93.4309 331.466C93.6326 332.665 94.0203 333.825 94.5801 334.904C94.5801 334.904 102.027 338.628 103.774 339.198C105.521 339.768 108.077 339.492 106.927 337.193C105.778 334.895 101.485 330.031 101.485 330.031L104.059 314.843C104.059 314.843 140.448 253.53 141.597 250.946C142.747 248.363 134.15 240.925 134.15 240.925L118.65 251.525Z" stroke="black" stroke-width="0.919383" stroke-linecap="round" stroke-linejoin="round"/>
<path d="M102.312 331.024C99.0851 332.477 97.7152 330.482 96.2994 326.308C95.1869 322.98 92.8885 317.62 91.9047 315.349C90.1763 316.434 88.6777 317.693 88.5673 318.861C88.2731 321.72 85.9839 330.601 85.9839 330.601L87.4181 331.465L91.1416 322.584C91.1416 322.584 92.8609 328.882 93.4309 331.465C93.6326 332.664 94.0203 333.825 94.5801 334.904C94.5801 334.904 102.027 338.627 103.774 339.197C105.521 339.767 108.077 339.492 106.927 337.193C105.574 335.005 104.029 332.941 102.312 331.024Z" fill="black" stroke="black" stroke-width="0.919383" stroke-linecap="round" stroke-linejoin="round"/>
<path d="M52.739 148.315L45.1541 156.673C44.3866 157.518 43.9614 158.62 43.9614 159.762C43.9614 160.904 44.3866 162.005 45.1541 162.851L56.4165 175.465L64.406 158.962L52.739 148.315Z" fill="#BABABA" stroke="black" stroke-width="0.919383" stroke-linecap="round" stroke-linejoin="round"/>
<path d="M75.5857 125.441L48.4456 148.591L62.2363 160.543L77.1395 129.146C77.1395 129.146 77.7187 125.965 75.5857 125.441Z" fill="white"/>
<mask id="mask1_156_1691" style="mask-type:luminance" maskUnits="userSpaceOnUse" x="48" y="125" width="30" height="36">
<path d="M75.5857 125.441L48.4456 148.591L62.2363 160.543L77.1395 129.146C77.1395 129.146 77.7187 125.965 75.5857 125.441Z" fill="white"/>
</mask>
<g mask="url(#mask1_156_1691)">
<path opacity="0.2" d="M75.5857 125.441L48.4456 148.591L62.2363 160.543L77.1395 129.146C77.1395 129.146 77.7187 125.965 75.5857 125.441Z" fill="black"/>
</g>
<path d="M75.5857 125.441L48.4456 148.591L62.2363 160.543L77.1395 129.146C77.1395 129.146 77.7187 125.965 75.5857 125.441Z" stroke="black" stroke-width="0.919383" stroke-linecap="round" stroke-linejoin="round"/>
<path d="M111.506 61.838C111.506 61.838 116.829 65.8281 117.362 66.8946C117.896 67.9611 119.495 72.4844 120.286 73.0177C121.077 73.5509 125.876 72.751 125.876 74.8564C125.876 76.9618 123.752 80.1796 123.752 80.1796C123.752 80.1796 125.591 86.0361 125.591 88.9598C125.591 91.8834 126.391 97.2342 122.934 98.2731C119.477 99.312 110.982 100.939 110.982 100.939L103.002 125.156L89.2108 114.509L90.8105 102.557C90.8105 102.557 87.133 98.5673 83.6209 88.1967C80.1089 77.826 82.5637 67.9702 88.9442 64.5134C95.3247 61.0565 111.506 61.838 111.506 61.838Z" fill="white" stroke="black" stroke-width="0.919383" stroke-linecap="round" stroke-linejoin="round"/>
<path opacity="0.2" d="M104.381 92.4722C104.381 92.4722 125.113 97.1334 122.52 97.1334C119.927 97.1334 109.309 99.9835 109.309 99.9835L99.9768 121.755L91.1599 113.204L91.684 102.576L104.381 92.4722Z" fill="black"/>
<path d="M112.572 60.505C112.572 60.505 105.925 94.8348 101.135 100.958C96.3453 107.081 87.8227 105.748 80.109 102.024C72.3954 98.3008 70.2625 98.8249 70.2625 94.8348C70.2625 90.8447 80.9089 64.4951 83.0327 62.9046C85.1564 61.3141 109.116 54.9244 112.572 60.505Z" fill="black" stroke="black" stroke-width="0.919383" stroke-linecap="round" stroke-linejoin="round"/>
<path d="M73.986 86.321C73.986 86.321 68.1387 81.2644 63.0821 83.1308C58.0255 84.9971 57.2257 93.5014 58.0255 96.1676C58.8254 98.8338 66.0058 102.291 69.196 102.291C72.3863 102.291 75.5857 98.0248 75.8523 94.5679C76.0347 91.6968 75.3868 88.8339 73.986 86.321Z" fill="black" stroke="black" stroke-width="0.919383" stroke-linecap="round" stroke-linejoin="round"/>
<path d="M59.8826 267.835C59.8826 267.835 29.2855 317.059 27.7042 319.192C26.1229 321.325 21.8569 323.182 19.724 324.248C17.591 325.315 6.4021 335.115 6.4021 335.115L7.46858 335.915L16.2487 331.392C16.8753 333.928 16.8753 336.579 16.2487 339.115C15.1822 343.105 15.1822 345.495 16.2487 347.095C17.3152 348.695 24.2289 354.809 25.8287 353.475C27.4284 352.142 25.2954 344.695 25.2954 344.695C25.2954 344.695 31.4185 330.592 31.9517 329.001C32.485 327.411 34.0755 323.145 34.0755 323.145C34.0755 323.145 76.3671 282.968 80.6423 277.645C84.9174 272.322 85.1656 271.255 85.9655 267.532C86.4822 264.723 86.7498 261.874 86.7653 259.018L59.8826 267.835Z" fill="white"/>
<mask id="mask2_156_1691" style="mask-type:luminance" maskUnits="userSpaceOnUse" x="6" y="259" width="81" height="95">
<path d="M59.8826 267.835C59.8826 267.835 29.2855 317.059 27.7042 319.192C26.1229 321.325 21.8569 323.182 19.724 324.248C17.591 325.315 6.4021 335.115 6.4021 335.115L7.46858 335.915L16.2487 331.392C16.8753 333.928 16.8753 336.579 16.2487 339.115C15.1822 343.105 15.1822 345.495 16.2487 347.095C17.3152 348.695 24.2289 354.809 25.8287 353.475C27.4284 352.142 25.2954 344.695 25.2954 344.695C25.2954 344.695 31.4185 330.592 31.9517 329.001C32.485 327.411 34.0755 323.145 34.0755 323.145C34.0755 323.145 76.3671 282.968 80.6423 277.645C84.9174 272.322 85.1656 271.255 85.9655 267.532C86.4822 264.723 86.7498 261.874 86.7653 259.018L59.8826 267.835Z" fill="white"/>
</mask>
<g mask="url(#mask2_156_1691)">
<path opacity="0.2" d="M72.9654 263.522L59.8826 267.834C59.8826 267.834 29.2855 317.058 27.7042 319.191C26.1229 321.324 21.8569 323.181 19.724 324.248C17.591 325.314 6.4021 335.115 6.4021 335.115L7.46858 335.915L16.2487 331.391C16.8753 333.927 16.8753 336.578 16.2487 339.114C15.1822 343.104 15.1822 345.495 16.2487 347.094C17.7982 348.92 19.5783 350.536 21.5443 351.903C20.9563 349.673 20.7788 347.355 21.0203 345.063C21.9397 339.546 26.0769 326.675 26.0769 326.675L72.9654 264.157V263.522Z" fill="black"/>
</g>
<path d="M59.8826 267.835C59.8826 267.835 29.2855 317.059 27.7042 319.192C26.1229 321.325 21.8569 323.182 19.724 324.248C17.591 325.315 6.4021 335.115 6.4021 335.115L7.46858 335.915L16.2487 331.392C16.8753 333.928 16.8753 336.579 16.2487 339.115C15.1822 343.105 15.1822 345.495 16.2487 347.095C17.3152 348.695 24.2289 354.809 25.8287 353.475C27.4284 352.142 25.2954 344.695 25.2954 344.695C25.2954 344.695 31.4185 330.592 31.9517 329.001C32.485 327.411 34.0755 323.145 34.0755 323.145C34.0755 323.145 76.3671 282.968 80.6423 277.645C84.9174 272.322 85.1656 271.255 85.9655 267.532C86.4822 264.723 86.7498 261.874 86.7653 259.018L59.8826 267.835Z" stroke="black" stroke-width="0.919383" stroke-linecap="round" stroke-linejoin="round"/>
<path d="M19.7056 342.305C18.6023 340.54 20.4135 327.88 21.0755 323.541L19.7056 324.212C17.5818 325.278 6.4021 335.116 6.4021 335.116L7.46858 335.915L16.2487 331.392C16.8753 333.928 16.8753 336.579 16.2487 339.115C15.1822 343.105 15.1822 345.495 16.2487 347.095C17.3152 348.695 24.2289 354.809 25.8287 353.476C27.4284 352.143 25.2954 344.696 25.2954 344.696C25.2954 344.696 21.0387 344.429 19.7056 342.305Z" fill="black" stroke="black" stroke-width="0.919383" stroke-linecap="round" stroke-linejoin="round"/>
<path d="M56.4166 175.464C56.4166 175.464 46.3034 192.491 45.7794 199.414C45.2553 206.337 52.1599 225.755 52.1599 225.755L58.8162 269.131C58.8162 269.131 97.4303 260.342 110.964 255.294C124.497 250.247 136.513 240.658 136.513 240.658L97.6601 199.148L96.0696 187.196L56.4166 175.464Z" fill="black" stroke="black" stroke-width="0.919383" stroke-linecap="round" stroke-linejoin="round"/>
<path d="M75.7236 202.559L94.0469 237.431" stroke="#808080" stroke-width="0.919383" stroke-linecap="round" stroke-linejoin="round"/>
<path d="M63.312 193.099C63.312 193.099 68.626 193.696 74.5377 199.01" stroke="#808080" stroke-width="0.919383" stroke-linecap="round" stroke-linejoin="round"/>
<path d="M84.3657 114.794C84.3657 114.794 74.8041 123.308 72.9653 128.365C71.1266 133.421 52.7389 171.741 52.2057 173.598C51.6724 175.455 59.3952 184.778 64.4518 186.102C69.5084 187.426 95.8488 191.692 98.7724 189.301C101.696 186.911 108.886 166.151 109.152 161.894C109.419 157.638 103.829 129.164 103.829 129.164L84.3657 114.794Z" fill="white"/>
<mask id="mask3_156_1691" style="mask-type:luminance" maskUnits="userSpaceOnUse" x="52" y="114" width="58" height="77">
<path d="M84.3657 114.794C84.3657 114.794 74.8041 123.308 72.9653 128.365C71.1266 133.421 52.7389 171.741 52.2057 173.598C51.6724 175.455 59.3952 184.778 64.4518 186.102C69.5084 187.426 95.8488 191.692 98.7724 189.301C101.696 186.911 108.886 166.151 109.152 161.894C109.419 157.638 103.829 129.164 103.829 129.164L84.3657 114.794Z" fill="white"/>
</mask>
<g mask="url(#mask3_156_1691)">
<path opacity="0.2" d="M80.7985 139.903C80.7985 139.903 91.4174 169.443 91.684 171.52C91.9506 173.598 83.6486 179.795 77.4244 182.148C71.2002 184.502 68.8741 179.298 65.7666 178.471C63.1188 177.809 56.5728 178.085 54.6421 178.186C57.2256 181.441 61.3168 185.247 64.4151 186.056C68.6075 187.159 87.3997 190.276 95.4075 189.945C99.7775 184.007 102.996 177.302 104.896 170.178C108.27 157.785 80.7985 139.903 80.7985 139.903Z" fill="black"/>
</g>
<path d="M84.3657 114.794C84.3657 114.794 74.8041 123.308 72.9653 128.365C71.1266 133.421 52.7389 171.741 52.2057 173.598C51.6724 175.455 59.3952 184.778 64.4518 186.102C69.5084 187.426 95.8488 191.692 98.7724 189.301C101.696 186.911 108.886 166.151 109.152 161.894C109.419 157.638 103.829 129.164 103.829 129.164L84.3657 114.794Z" stroke="black" stroke-width="0.919383" stroke-linecap="round" stroke-linejoin="round"/>
<path d="M87.032 107.872L108.582 125.174L104.859 134.754L83.0327 114.528L87.032 107.872Z" fill="white" stroke="black" stroke-width="0.919383" stroke-linecap="round" stroke-linejoin="round"/>
<path d="M122.152 160.267L122.989 159.946L160.049 146.477C160.049 146.477 162.44 138.763 163.24 136.363C163.443 135.625 163.85 134.96 164.414 134.443C164.979 133.926 165.677 133.578 166.43 133.44C167.661 133.244 168.907 133.155 170.153 133.173H172.553C172.553 133.173 177.076 131.84 178.143 133.44C179.209 135.039 178.143 139.296 178.143 139.296C178.143 139.296 178.143 145.677 177.076 147.276C176.01 148.876 172.553 150.2 170.641 151C169.174 151.573 167.66 152.019 166.117 152.333C166.117 152.333 125.297 177.873 122.373 179.207C119.449 180.54 118.916 181.597 116.517 179.74C114.689 178.203 112.997 176.511 111.46 174.683L117.583 158.714L122.152 160.267Z" fill="white"/>
<mask id="mask4_156_1691" style="mask-type:luminance" maskUnits="userSpaceOnUse" x="111" y="132" width="68" height="49">
<path d="M122.152 160.267L122.989 159.946L160.049 146.477C160.049 146.477 162.44 138.763 163.24 136.363C163.443 135.625 163.85 134.96 164.414 134.443C164.979 133.926 165.677 133.578 166.43 133.44C167.661 133.244 168.907 133.155 170.153 133.173H172.553C172.553 133.173 177.076 131.84 178.143 133.44C179.209 135.039 178.143 139.296 178.143 139.296C178.143 139.296 178.143 145.677 177.076 147.276C176.01 148.876 172.553 150.2 170.641 151C169.174 151.573 167.66 152.019 166.117 152.333C166.117 152.333 125.297 177.873 122.373 179.207C119.449 180.54 118.916 181.597 116.517 179.74C114.689 178.203 112.997 176.511 111.46 174.683L117.583 158.714L122.152 160.267Z" fill="white"/>
</mask>
<g mask="url(#mask4_156_1691)">
<path opacity="0.2" d="M165.547 148.968C162.955 149.75 119.67 165.82 119.67 165.82L115 165.563L111.506 174.665C113.043 176.493 114.735 178.185 116.562 179.721C118.962 181.56 119.495 180.521 122.419 179.188C125.343 177.855 166.163 152.315 166.163 152.315C167.706 152 169.22 151.554 170.687 150.982C172.525 150.182 176.01 148.858 177.122 147.258C178.235 145.658 178.189 139.278 178.189 139.278C177.73 140.955 176.879 142.499 175.706 143.783C173.84 145.603 168.14 148.196 165.547 148.968Z" fill="black"/>
</g>
<path d="M122.152 160.267L122.989 159.946L160.049 146.477C160.049 146.477 162.44 138.763 163.24 136.363C163.443 135.625 163.85 134.96 164.414 134.443C164.979 133.926 165.677 133.578 166.43 133.44C167.661 133.244 168.907 133.155 170.153 133.173H172.553C172.553 133.173 177.076 131.84 178.143 133.44C179.209 135.039 178.143 139.296 178.143 139.296C178.143 139.296 178.143 145.677 177.076 147.276C176.01 148.876 172.553 150.2 170.641 151C169.174 151.573 167.66 152.019 166.117 152.333C166.117 152.333 125.297 177.873 122.373 179.207C119.449 180.54 118.916 181.597 116.517 179.74C114.689 178.203 112.997 176.511 111.46 174.683L117.583 158.714L122.152 160.267Z" stroke="black" stroke-width="0.919383" stroke-linecap="round" stroke-linejoin="round"/>
<path d="M124.285 158.962C124.285 158.962 94.1663 130.912 89.9096 129.854C85.6528 128.797 80.8628 133.045 80.5962 138.901C80.3296 144.757 110.715 184.245 110.715 184.245L124.285 158.962Z" fill="white"/>
<mask id="mask5_156_1691" style="mask-type:luminance" maskUnits="userSpaceOnUse" x="80" y="129" width="45" height="56">
<path d="M124.285 158.962C124.285 158.962 94.1663 130.912 89.9096 129.854C85.6528 128.797 80.8628 133.045 80.5962 138.901C80.3296 144.757 110.715 184.245 110.715 184.245L124.285 158.962Z" fill="white"/>
</mask>
<g mask="url(#mask5_156_1691)">
<path opacity="0.2" d="M115.11 176.044L112.159 172.817L120.194 155.192L110.338 171.006L82.8671 133.679L82.0305 133.973C81.1621 135.476 80.6701 137.167 80.5962 138.901C80.3296 144.748 110.715 184.245 110.715 184.245L115.11 176.044Z" fill="black"/>
</g>
<path d="M124.285 158.962C124.285 158.962 94.1663 130.912 89.9096 129.854C85.6528 128.797 80.8628 133.045 80.5962 138.901C80.3296 144.757 110.715 184.245 110.715 184.245L124.285 158.962Z" stroke="black" stroke-width="0.919383" stroke-linecap="round" stroke-linejoin="round"/>
</svg>
