<svg width="388" height="391" viewBox="0 0 388 391" fill="none" xmlns="http://www.w3.org/2000/svg">
<path d="M369.985 121.424C370.564 117.228 364.589 113.695 360.091 113.334C357.951 113.166 355.727 113.493 353.696 112.78C349.298 111.253 347.536 105.571 343.248 103.759C340.042 102.407 336.341 103.608 333.236 105.177C330.131 106.746 327.051 108.71 323.576 108.937C320.555 109.13 317.265 108.005 314.622 109.482C312.65 110.581 311.617 112.839 309.805 114.19C307.992 115.541 305.709 115.785 303.502 115.868C301.295 115.952 299.021 116.011 297.007 116.926C294.993 117.841 293.339 119.972 293.759 122.137L369.985 121.424Z" fill="#EBEBEB"/>
<path d="M185.559 82.5266C186.146 78.3305 180.163 74.8058 175.673 74.4366C173.533 74.2687 171.301 74.596 169.278 73.8911C164.872 72.3553 163.118 66.6738 158.83 64.8611C155.616 63.51 151.923 64.7101 148.818 66.2794C145.713 67.8487 142.633 69.8125 139.15 70.0391C136.129 70.2321 132.848 69.1076 130.204 70.5846C128.232 71.6839 127.2 73.9414 125.387 75.2926C123.575 76.6437 121.292 76.8871 119.085 76.971C116.878 77.0549 114.595 77.1137 112.589 78.0368C110.584 78.9599 108.922 81.0748 109.341 83.2399L185.559 82.5266Z" fill="#EBEBEB"/>
<path d="M103.417 215.273C103.996 211.035 98.0204 207.544 93.5222 207.183C91.3822 207.015 89.1499 207.343 87.1274 206.629C82.7299 205.102 80.9675 199.42 76.6791 197.608C73.4649 196.257 69.7724 197.457 66.6673 199.026C63.5622 200.595 60.4487 202.517 57.0079 202.735C53.9784 202.937 50.697 201.812 48.0535 203.289C46.0813 204.389 45.0491 206.646 43.2364 207.997C41.4237 209.348 39.141 209.592 36.9339 209.676C34.7268 209.76 32.4441 209.818 30.4384 210.733C28.4326 211.648 26.771 213.779 27.1906 215.945L103.417 215.273Z" fill="#EBEBEB"/>
<path d="M256.12 157.956C256.481 155.362 252.822 153.231 250.078 153.013C248.769 152.904 247.409 153.105 246.167 152.677C243.481 151.737 242.407 148.263 239.781 147.155C237.825 146.316 235.584 147.071 233.663 147.994C231.741 148.917 229.886 150.151 227.788 150.285C225.942 150.403 223.936 149.723 222.316 150.621C221.116 151.292 220.487 152.685 219.371 153.499C218.219 154.214 216.883 154.579 215.527 154.548C214.175 154.511 212.828 154.73 211.558 155.195C210.927 155.439 210.393 155.881 210.034 156.454C209.676 157.027 209.512 157.701 209.569 158.375L256.12 157.956Z" fill="#EBEBEB"/>
<path d="M294.038 390.061L250.881 390.126L313.418 334.386L331.181 358.823L294.038 390.061Z" fill="black" stroke="black"/>
<path d="M189.228 390.094H148.635L360.534 174.716L379.122 198.542L189.228 390.094Z" fill="black" stroke="black"/>
<path d="M43.9339 390.094H1.24295L136.893 259.889L154.661 284.332L43.9339 390.094Z" fill="black" stroke="black"/>
<path d="M130.466 390.094H64.3348L65.2503 389.172L70.23 384.154C74.5214 379.83 80.6546 373.651 88.0223 366.23C102.758 351.387 122.43 331.577 142.18 311.705C161.93 291.833 181.757 271.899 196.8 256.811C204.322 249.266 210.647 242.933 215.17 238.425C217.431 236.171 219.24 234.373 220.523 233.109C221.165 232.477 221.673 231.978 222.041 231.623C222.151 231.516 222.247 231.424 222.329 231.346L253.229 266.604L130.466 390.094Z" fill="white" stroke="black"/>
<path d="M258.91 228.698V335.038L151.727 228.698H258.91Z" fill="white" stroke="black"/>
<path d="M387.166 168.602L385.811 242.731L308.719 171.262L387.166 168.602Z" fill="black" stroke="black"/>
<path d="M337.276 390.095L325.561 390.127L263.125 328.187H341.612L337.276 390.095Z" fill="black" stroke="black"/>
<path d="M163.716 254.679L159.849 328.718L85.2193 254.679H163.716Z" fill="black" stroke="black"/>
<path d="M376.951 281.656C377.395 278.467 372.889 275.84 369.507 275.563C367.895 275.437 366.217 275.681 364.69 275.152C361.375 273.994 360.057 269.714 356.826 268.354C354.409 267.339 351.623 268.245 349.273 269.42C346.923 270.595 344.616 272.08 342.006 272.248C339.731 272.399 337.256 271.552 335.292 272.668C333.807 273.507 333.026 275.185 331.658 276.209C330.237 277.092 328.589 277.538 326.917 277.493C325.248 277.465 323.588 277.749 322.024 278.333C320.513 279.021 319.263 280.624 319.582 282.252L376.951 281.656Z" fill="white"/>
<path d="M376.95 281.655H376.674H375.834L372.561 281.714L360.409 281.899L319.565 282.394H319.38V282.218C319.306 281.737 319.335 281.246 319.465 280.777C319.595 280.308 319.824 279.872 320.136 279.499C320.747 278.716 321.576 278.132 322.519 277.82C324.667 277.09 326.891 277.401 328.922 277.023C329.93 276.876 330.886 276.477 331.7 275.865C332.449 275.168 333.145 274.416 333.781 273.616C334.129 273.219 334.527 272.869 334.964 272.575C335.413 272.286 335.911 272.081 336.433 271.971C337.436 271.795 338.46 271.77 339.471 271.895C340.426 272.009 341.39 272.032 342.35 271.962C343.279 271.856 344.189 271.618 345.052 271.257C346.781 270.561 348.342 269.579 349.986 268.841C351.567 268.044 353.32 267.651 355.089 267.699C355.938 267.765 356.763 268.014 357.506 268.429C358.201 268.844 358.834 269.356 359.386 269.948C360.477 271.09 361.333 272.315 362.331 273.305C363.225 274.297 364.424 274.962 365.739 275.193C366.981 275.395 368.197 275.286 369.339 275.37C371.298 275.537 373.173 276.24 374.76 277.401C375.797 278.095 376.566 279.122 376.942 280.313C377.043 280.733 377.058 281.17 376.984 281.597C376.999 281.173 376.957 280.75 376.858 280.338C376.455 279.186 375.682 278.201 374.659 277.535C373.065 276.448 371.206 275.813 369.28 275.697C368.164 275.63 366.947 275.747 365.655 275.554C364.278 275.319 363.018 274.634 362.071 273.607C361.039 272.592 360.175 271.367 359.1 270.25C358.571 269.684 357.963 269.195 357.296 268.799C356.591 268.419 355.812 268.196 355.013 268.144C353.306 268.109 351.616 268.498 350.096 269.277C348.484 270.007 346.923 270.997 345.153 271.711C344.256 272.093 343.309 272.345 342.341 272.458C341.357 272.528 340.368 272.505 339.387 272.39C338.418 272.277 337.437 272.302 336.475 272.466C335.519 272.69 334.663 273.224 334.041 273.985C333.398 274.806 332.69 275.574 331.927 276.284C331.054 276.945 330.03 277.375 328.947 277.535C326.824 277.921 324.625 277.619 322.611 278.315C321.752 278.598 320.993 279.126 320.429 279.834C320.155 280.16 319.953 280.54 319.838 280.949C319.722 281.359 319.695 281.788 319.758 282.209L319.54 282.033L360.242 281.722L372.444 281.664H376.64C376.743 281.653 376.847 281.65 376.95 281.655Z" fill="black"/>
<path d="M196.653 351.898C197.232 347.66 191.257 344.169 186.759 343.808C184.619 343.64 182.395 343.967 180.364 343.254C175.967 341.726 174.204 336.045 169.916 334.232C166.702 332.881 163.009 334.081 159.904 335.65C156.799 337.22 153.719 339.184 150.245 339.402C147.215 339.603 143.934 338.479 141.29 339.956C139.318 341.055 138.286 343.313 136.473 344.664C134.661 346.015 132.378 346.258 130.171 346.342C127.964 346.426 125.681 346.485 123.675 347.4C121.669 348.314 120.008 350.446 120.427 352.611L196.653 351.898Z" fill="white"/>
<path d="M196.653 351.898H196.276H195.16L190.804 351.974L174.649 352.2L120.428 352.821H120.243V352.645C120.147 352.016 120.184 351.374 120.354 350.761C120.523 350.148 120.82 349.577 121.225 349.087C122.036 348.067 123.127 347.306 124.363 346.896C127.2 345.931 130.146 346.342 132.856 345.839C134.209 345.644 135.491 345.11 136.582 344.286C137.582 343.361 138.508 342.359 139.352 341.29C139.807 340.763 140.332 340.3 140.913 339.914C141.503 339.543 142.153 339.276 142.835 339.125C144.16 338.899 145.511 338.866 146.846 339.024C148.121 339.176 149.408 339.207 150.69 339.117C151.929 338.973 153.141 338.653 154.29 338.168C156.598 337.245 158.671 335.953 160.844 334.954C162.925 333.91 165.231 333.395 167.558 333.452C168.679 333.53 169.768 333.857 170.747 334.409C171.68 334.95 172.528 335.626 173.265 336.415C174.708 337.917 175.849 339.553 177.184 340.879C178.38 342.198 179.979 343.083 181.732 343.397C183.325 343.552 184.924 343.628 186.524 343.623C187.932 343.731 189.314 344.059 190.619 344.597C191.716 345.029 192.756 345.592 193.716 346.275C194.479 346.836 195.153 347.51 195.714 348.273C196.129 348.83 196.434 349.463 196.612 350.136C196.718 350.549 196.755 350.977 196.721 351.403C196.721 351.697 196.721 351.831 196.721 351.831C196.721 351.831 196.721 351.671 196.721 351.386C196.731 350.97 196.68 350.554 196.57 350.152C196.039 348.62 195.015 347.306 193.657 346.418C192.705 345.736 191.674 345.173 190.586 344.74C189.296 344.225 187.934 343.914 186.549 343.816C185.064 343.724 183.444 343.884 181.732 343.623C179.904 343.352 178.217 342.485 176.932 341.156C175.564 339.813 174.414 338.177 172.996 336.708C172.287 335.95 171.473 335.297 170.579 334.77C169.642 334.25 168.602 333.944 167.533 333.872C165.255 333.817 163 334.33 160.97 335.365C158.83 336.347 156.774 337.657 154.407 338.605C153.223 339.104 151.974 339.435 150.698 339.587C149.392 339.676 148.08 339.648 146.779 339.503C145.486 339.345 144.177 339.376 142.893 339.595C142.263 339.739 141.661 339.988 141.114 340.334C140.564 340.7 140.065 341.138 139.629 341.634C138.773 342.722 137.833 343.741 136.817 344.681C135.676 345.56 134.331 346.137 132.907 346.359C130.095 346.871 127.175 346.477 124.473 347.4C123.316 347.779 122.297 348.491 121.544 349.448C121.175 349.888 120.904 350.401 120.748 350.954C120.592 351.506 120.554 352.085 120.637 352.653L120.419 352.477L174.507 352.032L190.703 351.94H196.251C196.384 351.919 196.519 351.905 196.653 351.898Z" fill="black"/>
<path d="M119.043 151.753C119.53 148.195 114.511 145.274 110.743 144.964C108.939 144.821 107.076 145.098 105.372 144.502C101.68 143.218 100.203 138.451 96.6023 136.949C93.9084 135.816 90.8033 136.832 88.2101 138.141C85.6169 139.45 83.0238 141.112 80.1033 141.296C77.5856 141.456 74.8162 140.516 72.5504 141.758C70.8719 142.681 70.0327 144.586 68.5053 145.711C66.978 146.835 65.0646 147.045 63.2183 147.146C61.372 147.246 59.4502 147.263 57.7634 148.035C56.0766 148.807 54.6835 150.553 55.0359 152.408L119.043 151.753Z" fill="white"/>
<path d="M119.043 151.753H118.732H117.792L114.142 151.82L100.588 152.022L55.061 152.559H54.8848V152.383C54.803 151.85 54.8356 151.305 54.9802 150.786C55.1249 150.267 55.3785 149.784 55.724 149.37C56.4072 148.509 57.3255 147.865 58.3675 147.515C60.7593 146.676 63.235 147.054 65.5093 146.626C66.6379 146.468 67.7071 146.023 68.6144 145.333C69.4525 144.557 70.227 143.715 70.9306 142.816C71.3049 142.395 71.7306 142.023 72.1978 141.708C72.6938 141.39 73.2422 141.163 73.8175 141.037C74.9271 140.852 76.057 140.824 77.1744 140.953C78.2408 141.08 79.3169 141.109 80.3886 141.037C81.4277 140.912 82.4444 140.644 83.4097 140.239C85.3399 139.467 87.0771 138.376 88.9066 137.545C90.663 136.658 92.6127 136.223 94.5797 136.278C95.5286 136.356 96.4485 136.642 97.2736 137.117C98.0465 137.575 98.7501 138.14 99.3632 138.796C100.58 140.063 101.528 141.431 102.645 142.539C103.644 143.648 104.985 144.392 106.455 144.654C107.848 144.872 109.207 144.754 110.474 144.847C112.658 145.029 114.748 145.81 116.517 147.104C117.67 147.877 118.525 149.019 118.942 150.343C119.036 150.693 119.067 151.057 119.034 151.418C119.034 151.661 119.034 151.77 119.034 151.77C119.034 151.77 119.034 151.636 119.034 151.401C119.039 151.052 118.994 150.704 118.9 150.369C118.456 149.083 117.597 147.982 116.458 147.238C114.702 145.997 112.643 145.255 110.5 145.09C109.258 145.014 107.898 145.149 106.455 144.93C104.923 144.664 103.522 143.9 102.468 142.757C101.327 141.632 100.362 140.239 99.1618 139.031C98.5708 138.395 97.8893 137.849 97.1393 137.411C96.3644 136.981 95.5055 136.723 94.6217 136.656C92.7165 136.618 90.8314 137.05 89.1332 137.915C87.3373 138.754 85.5917 139.836 83.6279 140.634C82.6291 141.059 81.5753 141.342 80.4977 141.473C79.4014 141.556 78.2999 141.533 77.2079 141.406C76.1245 141.275 75.028 141.301 73.9518 141.481C72.8872 141.731 71.9328 142.32 71.2327 143.16C70.5035 144.071 69.7038 144.924 68.841 145.711C67.8756 146.448 66.737 146.925 65.5344 147.096C63.1679 147.532 60.7173 147.196 58.4682 147.977C57.5052 148.285 56.6535 148.869 56.0177 149.655C55.7116 150.02 55.4866 150.446 55.3579 150.905C55.2291 151.364 55.1994 151.845 55.2708 152.316L55.0526 152.139L100.429 151.787L114.033 151.711H119.068L119.043 151.753Z" fill="black"/>
<path d="M347.83 59.1126C348.207 56.318 344.263 54.0185 341.301 53.7751C339.882 53.666 338.422 53.8758 337.105 53.4143C334.201 52.3988 333.043 48.6475 330.215 47.4559C328.091 46.5663 325.658 47.3551 323.602 48.3958C321.546 49.4364 319.523 50.7288 317.232 50.8715C315.235 50.9973 313.036 50.2588 311.357 51.2323C310.057 51.9624 309.377 53.4562 308.177 54.3458C306.929 55.1125 305.487 55.5029 304.023 55.4704C302.562 55.4339 301.108 55.6702 299.734 56.1669C298.408 56.7795 297.317 58.1726 297.594 59.6077L347.83 59.1126Z" fill="white"/>
<path d="M347.83 59.1127H347.586H346.848L343.986 59.1714L333.336 59.3393L297.536 59.784H297.351V59.6078C297.284 59.1823 297.308 58.7473 297.423 58.332C297.537 57.9167 297.738 57.5305 298.014 57.1993C298.559 56.5158 299.291 56.0055 300.12 55.7306C302.009 55.0844 303.956 55.3614 305.735 55.0257C306.617 54.9062 307.453 54.5592 308.16 54.0186C308.815 53.4097 309.421 52.7503 309.973 52.0465C310.575 51.3232 311.397 50.8163 312.314 50.603C313.196 50.4515 314.095 50.4288 314.983 50.5359C315.818 50.6343 316.661 50.654 317.5 50.5946C318.314 50.5018 319.111 50.2956 319.867 49.982C321.378 49.3778 322.746 48.5218 324.189 47.8672C325.575 47.1622 327.116 46.8187 328.67 46.8685C329.42 46.9195 330.148 47.1374 330.802 47.5063C331.423 47.8672 331.989 48.3167 332.48 48.8407C333.429 49.8393 334.159 50.9219 335.057 51.7863C335.835 52.6583 336.879 53.2484 338.028 53.4647C339.119 53.641 340.184 53.5403 341.183 53.6158C342.903 53.7637 344.549 54.3822 345.941 55.4033C346.846 55.9993 347.519 56.8882 347.847 57.921C347.937 58.289 347.951 58.6717 347.888 59.0455C347.887 58.6756 347.845 58.3069 347.763 57.9462C347.386 56.9536 346.689 56.115 345.782 55.5628C344.404 54.5921 342.789 54.0121 341.108 53.8844C340.134 53.8256 339.068 53.9347 337.927 53.7669C336.722 53.5673 335.617 52.9776 334.78 52.0884C333.874 51.1989 333.102 50.1163 332.178 49.1512C331.712 48.6566 331.178 48.2301 330.592 47.884C329.983 47.5471 329.307 47.3494 328.612 47.3049C327.122 47.2671 325.646 47.5986 324.315 48.27C322.905 48.9162 321.537 49.7806 319.985 50.41C319.197 50.7434 318.366 50.9638 317.517 51.0646C316.65 51.1277 315.78 51.1108 314.916 51.0142C314.078 50.9141 313.23 50.9339 312.398 51.073C311.566 51.2686 310.822 51.735 310.283 52.3989C309.714 53.1167 309.091 53.79 308.42 54.4131C307.657 54.9988 306.755 55.3775 305.802 55.5124C303.939 55.8565 302.009 55.5964 300.255 56.2006C299.499 56.4384 298.828 56.8902 298.324 57.5014C298.089 57.7841 297.915 58.1134 297.816 58.4677C297.716 58.822 297.692 59.1933 297.745 59.5574L297.527 59.3812L333.194 59.1295H343.894H347.57L347.83 59.1127Z" fill="black"/>
<path d="M201.513 206.621L200.908 220.418C200.908 220.418 214.73 225.671 214.873 228.231L188.068 228.021L188.127 206.479L201.513 206.621Z" fill="#F8F8F8"/>
<path d="M192.634 219.193C192.375 219.269 192.154 219.438 192.011 219.667C191.869 219.896 191.816 220.169 191.862 220.435C191.927 220.696 192.091 220.922 192.32 221.066C192.548 221.21 192.823 221.26 193.087 221.207C193.367 221.133 193.609 220.957 193.765 220.712C193.92 220.468 193.978 220.174 193.926 219.889C193.829 219.624 193.633 219.407 193.38 219.284C193.126 219.16 192.835 219.139 192.567 219.226" fill="#E0E0E0"/>
<g opacity="0.6">
<path d="M188.068 228.022L188.161 225.848L213.824 226.864C213.824 226.864 215.016 227.392 214.873 228.232L188.068 228.022Z" fill="white"/>
</g>
<path d="M201.345 220.309C201.345 220.443 200.682 220.502 200.036 220.913C199.389 221.325 199.045 221.878 198.919 221.828C198.794 221.778 199.003 220.989 199.759 220.527C200.514 220.066 201.37 220.166 201.345 220.309Z" fill="black"/>
<path d="M204.148 221.475C204.148 221.601 203.611 221.82 203.157 222.365C202.704 222.911 202.578 223.498 202.444 223.498C202.31 223.498 202.234 222.751 202.805 222.071C203.376 221.392 204.148 221.35 204.148 221.475Z" fill="black"/>
<path d="M205.717 224.849C205.599 224.849 205.423 224.22 205.759 223.506C206.095 222.793 206.716 222.516 206.774 222.625C206.833 222.734 206.447 223.112 206.17 223.699C205.893 224.287 205.843 224.841 205.717 224.849Z" fill="black"/>
<path d="M201.135 217.128C201.076 217.245 200.48 217.061 199.733 217.128C198.986 217.195 198.416 217.405 198.349 217.287C198.282 217.17 198.844 216.716 199.717 216.674C200.589 216.633 201.194 217.027 201.135 217.128Z" fill="black"/>
<path d="M243.154 206.621L242.558 220.418C242.558 220.418 256.389 225.671 256.523 228.231L229.719 228.021L229.777 206.479L243.154 206.621Z" fill="#F8F8F8"/>
<path d="M234.275 219.192C234.018 219.27 233.797 219.439 233.655 219.668C233.513 219.896 233.459 220.169 233.503 220.434C233.569 220.696 233.733 220.922 233.961 221.066C234.189 221.209 234.464 221.26 234.729 221.206C235.01 221.135 235.253 220.958 235.409 220.714C235.565 220.469 235.622 220.174 235.568 219.889C235.473 219.623 235.277 219.404 235.023 219.28C234.769 219.157 234.477 219.137 234.208 219.226" fill="#E0E0E0"/>
<g opacity="0.6">
<path d="M229.71 228.022L229.803 225.848L255.466 226.864C255.466 226.864 256.657 227.392 256.515 228.232L229.71 228.022Z" fill="white"/>
</g>
<path d="M242.987 220.309C242.987 220.443 242.324 220.502 241.677 220.913C241.031 221.325 240.687 221.878 240.57 221.828C240.452 221.778 240.645 220.989 241.409 220.527C242.173 220.066 243.02 220.166 242.987 220.309Z" fill="black"/>
<path d="M245.789 221.475C245.789 221.601 245.252 221.82 244.799 222.365C244.346 222.911 244.22 223.498 244.086 223.498C243.952 223.498 243.884 222.751 244.455 222.071C245.026 221.392 245.789 221.35 245.789 221.475Z" fill="black"/>
<path d="M247.359 224.849C247.241 224.849 247.065 224.22 247.409 223.506C247.753 222.793 248.357 222.516 248.416 222.625C248.475 222.734 248.089 223.112 247.82 223.699C247.552 224.287 247.493 224.841 247.359 224.849Z" fill="black"/>
<path d="M242.777 217.128C242.718 217.245 242.122 217.061 241.384 217.128C240.645 217.195 240.066 217.405 239.999 217.287C239.932 217.17 240.486 216.716 241.358 216.674C242.231 216.633 242.844 217.027 242.777 217.128Z" fill="black"/>
<path d="M188.194 25.3928C187.184 22.8355 186.395 20.1963 185.836 17.5042C185.278 14.8001 185.402 11.9996 186.197 9.35543C186.323 8.961 187.464 6.30068 187.875 6.32586C188.169 6.32586 187.498 8.84351 187.657 9.0701C189.099 11.5321 189.76 14.3733 189.554 17.2189C189.408 19.9775 188.951 22.711 188.194 25.3677" fill="black"/>
<path d="M204.081 36.6049L203.581 36.6346L203.581 36.6348L203.581 36.6354L203.582 36.638L203.582 36.6483L203.585 36.6887L203.594 36.8438C203.602 36.9784 203.613 37.1729 203.627 37.4123C203.654 37.8912 203.691 38.5496 203.73 39.268C203.799 40.5388 203.872 41.9906 203.905 42.9689C203.756 43.0075 203.534 43.0557 203.213 43.1084C202.296 43.2588 200.604 43.4403 197.534 43.549C194.582 43.6536 192.575 42.6911 191.308 41.7196C190.671 41.2315 190.218 40.738 189.925 40.3697C189.779 40.1856 189.674 40.0334 189.606 39.9296C189.592 39.9089 189.58 39.8901 189.57 39.8734L188.576 15.0674L188.577 15.0674L188.576 15.0533C188.346 11.6924 188.986 8.5473 190.483 6.22556C191.966 3.92484 194.306 2.40346 197.578 2.26904H198.311C201.249 2.32275 204.06 3.47929 206.185 5.50918C208.311 7.5401 209.596 10.2966 209.783 13.231C210.161 19.2304 210.503 25.8507 210.404 29.0363L210.404 29.0373C210.313 32.1379 208.726 33.8879 207.152 34.8825C206.359 35.3841 205.567 35.6927 204.972 35.8756C204.676 35.9668 204.431 36.0261 204.261 36.0623C204.177 36.0803 204.111 36.0926 204.068 36.1002C204.047 36.104 204.031 36.1066 204.021 36.1082L204.011 36.1098L204.01 36.1099L204.009 36.11L204.009 36.11L204.009 36.11L203.554 36.1751L203.581 36.6346L204.081 36.6049Z" stroke="black"/>
<path d="M204.081 36.5796C201.042 36.5117 198.087 35.577 195.562 33.8857C195.562 33.8857 197.577 38.728 204.181 38.2497L204.081 36.5796Z" fill="black"/>
<path d="M184.323 23.039C184.307 21.9501 184.561 21.2514 184.92 20.8034C185.279 20.3558 185.767 20.1279 186.28 20.0278C186.796 19.9272 187.325 19.9586 187.737 20.0209C187.942 20.0519 188.116 20.0901 188.24 20.1218C188.256 20.1257 188.27 20.1295 188.284 20.1331L188.286 20.2259L188.303 20.9491C188.317 21.5482 188.336 22.3483 188.354 23.1523C188.373 23.9563 188.391 24.7642 188.404 25.3788C188.41 25.6862 188.415 25.945 188.419 26.1308C188.42 26.1845 188.42 26.232 188.421 26.2727C188.419 26.2731 188.418 26.2735 188.416 26.2739C188.305 26.301 188.139 26.3306 187.936 26.3496C187.53 26.3877 186.993 26.3818 186.459 26.2408C185.927 26.1003 185.406 25.8283 185.014 25.3398C184.623 24.8521 184.34 24.1249 184.323 23.039Z" stroke="black" stroke-width="0.5"/>
<path d="M187.17 24.7716C187.17 24.7716 187.086 24.8303 186.952 24.8891C186.859 24.9283 186.759 24.9485 186.658 24.9485C186.557 24.9485 186.457 24.9283 186.364 24.8891C186.071 24.7069 185.831 24.4502 185.669 24.145C185.506 23.8399 185.428 23.4972 185.441 23.1519C185.423 22.764 185.492 22.3768 185.643 22.019C185.685 21.8776 185.761 21.7484 185.863 21.6419C185.965 21.5353 186.091 21.4546 186.23 21.4063C186.32 21.3815 186.415 21.3889 186.499 21.4272C186.584 21.4656 186.652 21.5325 186.692 21.6161C186.759 21.742 186.692 21.8343 186.759 21.8427C186.826 21.8511 186.851 21.7672 186.809 21.5742C186.783 21.465 186.721 21.3677 186.633 21.2972C186.507 21.2052 186.351 21.1661 186.197 21.1881C186.006 21.2211 185.827 21.3046 185.68 21.4301C185.532 21.5556 185.421 21.7184 185.357 21.9015C185.168 22.2963 185.079 22.7314 185.097 23.1687C185.081 23.5715 185.184 23.9702 185.395 24.314C185.606 24.6577 185.914 24.9309 186.281 25.0989C186.401 25.1325 186.528 25.1386 186.652 25.1169C186.775 25.0951 186.892 25.0459 186.994 24.973C187.17 24.8723 187.17 24.7716 187.17 24.7716Z" fill="black"/>
<path d="M207.388 6.26345C208.124 5.86017 205.955 3.469 204.153 2.63533C201.45 1.37644 197.304 0.572418 194.795 1.25144C191.769 2.08084 189.241 3.5821 187.697 6.28392C186.214 9.06567 185.494 12.1904 185.609 15.3406C185.561 16.3026 185.769 17.2601 186.212 18.1153C186.833 19.1188 188.037 19.7642 187.974 21.1392C187.955 21.3886 187.985 21.6394 188.064 21.8769C188.142 22.1145 188.267 22.3342 188.431 22.5234C189.241 23.3906 190.267 22.5857 190.74 21.7621C191.757 20.008 191.888 17.888 191.999 15.8597C192.152 14.4231 192.07 12.9712 191.758 11.5607C191.54 10.8059 191.195 10.0889 190.995 9.31796C190.883 8.94014 190.855 8.54246 190.913 8.1528C190.972 7.76314 191.114 7.39091 191.331 7.0622C191.444 6.92921 191.569 6.80695 191.705 6.697C192.342 6.15422 193.112 5.7904 193.936 5.64278C194.76 5.49516 195.608 5.56903 196.394 5.85684C198.932 6.78265 203.268 8.17251 204.414 7.3213C205.23 6.79643 205.926 6.10459 206.456 5.29134L207.388 6.26345Z" fill="black"/>
<path d="M203.115 27.5997C203.115 27.6753 202.889 27.8263 202.436 27.8767C201.839 27.9359 201.238 27.8285 200.698 27.5662C200.144 27.3312 199.667 26.9443 199.322 26.45C199.079 26.064 199.037 25.7787 199.104 25.7451C199.171 25.7115 199.8 26.5843 200.908 27.071C202.016 27.5578 203.04 27.4319 203.115 27.5997Z" fill="black"/>
<path d="M265.359 15.7905V15.7906H265.36C265.396 15.7906 265.442 15.8066 265.503 15.8735C265.565 15.9424 265.623 16.045 265.672 16.1646C265.708 16.252 265.737 16.3408 265.758 16.4183C265.705 16.432 265.643 16.4473 265.576 16.4635C265.329 16.523 265.006 16.5935 264.696 16.6403C264.378 16.6884 264.105 16.7059 263.944 16.6775C263.936 16.6761 263.929 16.6747 263.923 16.6734C264.053 16.4124 264.253 16.1919 264.5 16.0362C264.757 15.8743 265.055 15.789 265.359 15.7905Z" stroke="black" stroke-width="0.5"/>
<path d="M252.947 33.5121L252.96 33.4769L252.963 33.4394L253.482 25.1224L255.143 16.6261C255.144 16.6248 255.145 16.6234 255.147 16.6221C255.182 16.5864 255.234 16.5353 255.298 16.4747C255.428 16.3532 255.606 16.1958 255.803 16.0491C256.002 15.901 256.21 15.7715 256.401 15.6974C256.597 15.621 256.73 15.6204 256.813 15.6584C257.03 15.7577 257.127 15.9995 257.147 16.3059C257.157 16.4505 257.148 16.589 257.135 16.6926C257.129 16.744 257.123 16.7856 257.118 16.8139C257.115 16.8279 257.113 16.8386 257.112 16.8453L257.11 16.8524L257.11 16.8533L257.11 16.8534L257.11 16.8535L257.11 16.8537L257.11 16.8537L256.906 17.7614L257.537 17.0778L257.537 17.0777L257.537 17.0777L257.538 17.0776L257.538 17.0767L257.542 17.0729L257.557 17.0574C257.569 17.0437 257.589 17.0233 257.614 16.9974C257.664 16.9456 257.736 16.8717 257.825 16.7843C258.004 16.609 258.248 16.3815 258.512 16.169C258.777 15.9545 259.051 15.7648 259.291 15.6558C259.549 15.5385 259.679 15.5535 259.734 15.5895C259.983 15.7532 260.078 16.0388 260.098 16.332C260.109 16.4747 260.1 16.6067 260.088 16.7036C260.082 16.7517 260.076 16.7902 260.071 16.816C260.069 16.8289 260.067 16.8385 260.066 16.8445L260.065 16.8507L260.064 16.851L260.064 16.8512C260.064 16.8512 260.064 16.8512 260.065 16.8513L260.506 17.0597L260.507 17.0598L260.507 17.0598L260.507 17.0598L260.507 17.0597L260.507 17.0587L260.511 17.0546L260.524 17.0376C260.536 17.0224 260.553 17 260.576 16.9714C260.622 16.9143 260.689 16.833 260.772 16.7371C260.937 16.5446 261.164 16.2964 261.412 16.0682C261.663 15.837 261.921 15.6399 262.15 15.5351C262.385 15.4279 262.515 15.4467 262.595 15.5096C262.74 15.6242 262.803 15.7476 262.827 15.867C262.852 15.9923 262.837 16.1296 262.797 16.2666C262.756 16.4029 262.695 16.5266 262.641 16.618C262.615 16.6631 262.592 16.6989 262.575 16.7229C262.567 16.7349 262.561 16.7438 262.557 16.7493L262.552 16.7551L262.552 16.7554L262.552 16.7556L262.552 16.7557L262.552 16.7558L262.552 16.7559L262.491 16.8349L262.501 16.9348L262.75 16.9081L262.501 16.9349L262.501 16.9352L262.502 16.9365L262.502 16.9416L262.504 16.9621L262.513 17.0428C262.52 17.1138 262.531 17.2184 262.545 17.3528C262.572 17.6217 262.61 18.0098 262.654 18.4864C262.743 19.4396 262.855 20.7461 262.952 22.1597C263.145 24.9981 263.27 28.2314 263.015 29.9199C262.863 30.8832 262.484 31.7964 261.907 32.583C261.331 33.3699 260.575 34.0074 259.701 34.4421L259.599 34.4931L259.571 34.6038L258.266 39.6975L251.916 36.2455L252.947 33.5121Z" fill="white" stroke="black" stroke-width="0.5"/>
<path d="M220.341 19.6259L256.384 18.6134V22.0078L220.341 21.6077V19.6259Z" fill="white" stroke="black"/>
<path d="M296.994 20.2926C297.032 22.0539 296.595 23.777 295.76 24.9408L244.026 22.7593C243.55 21.1904 243.55 19.5152 244.026 17.9463L295.475 15.6726C296.438 16.8056 296.955 18.5188 296.994 20.2926Z" fill="white" stroke="black"/>
<path d="M295.496 15.6411C295.496 15.6411 293.918 17.1181 293.977 20.3323C294.036 23.5465 295.656 24.8977 295.656 24.8977C296.792 23.4794 297.32 21.6689 297.124 19.8624C296.847 16.7153 295.496 15.6411 295.496 15.6411Z" fill="#E0E0E0"/>
<path d="M293.398 25.4515C292.971 25.1089 292.624 24.6762 292.383 24.1843C291.7 23.0342 291.343 21.72 291.35 20.3826C291.349 19.0554 291.663 17.7468 292.265 16.5642C292.49 16.0574 292.843 15.6178 293.289 15.2886C293.348 15.2886 292.945 15.8089 292.542 16.6985C292.05 17.8676 291.793 19.1224 291.787 20.391C291.778 21.6566 292.066 22.9067 292.626 24.0416C292.91 24.4962 293.168 24.967 293.398 25.4515Z" fill="black"/>
<path d="M295.731 15.2798C295.79 15.3301 295.404 15.8169 294.984 16.7065C294.435 17.8602 294.163 19.1258 294.187 20.4032C294.212 21.6807 294.534 22.9348 295.127 24.0664C295.352 24.5432 295.668 24.971 296.059 25.3252C296.059 25.3252 295.882 25.3252 295.639 25.149C295.319 24.8937 295.054 24.577 294.858 24.2174C294.155 23.0701 293.771 21.7556 293.746 20.41C293.721 19.0644 294.056 17.7365 294.716 16.5638C294.948 16.0614 295.296 15.6213 295.731 15.2798Z" fill="black"/>
<path d="M296.411 17.9655C296.352 17.7966 296.257 17.6421 296.134 17.5123C296.073 17.4458 295.997 17.3956 295.912 17.3663C295.827 17.3369 295.736 17.3294 295.647 17.3445C295.559 17.3657 295.478 17.4104 295.413 17.474C295.348 17.5375 295.301 17.6174 295.278 17.7053C295.235 17.8802 295.256 18.0647 295.337 18.2256C295.53 18.6033 295.84 18.9558 295.824 19.3334C295.807 19.711 295.723 20.0887 295.748 20.4663C295.755 20.6039 295.799 20.7371 295.874 20.8524C295.911 20.9114 295.963 20.959 296.025 20.9901C296.087 21.0212 296.157 21.0345 296.226 21.0286C296.453 21.0286 296.562 20.7433 296.612 20.5251C296.811 19.6715 296.741 18.7775 296.411 17.9655Z" fill="white"/>
<path d="M243.65 23.4289C243.099 22.5284 242.85 21.4763 242.936 20.4245C242.892 19.3674 243.186 18.3237 243.776 17.4453C243.901 17.4957 243.415 18.7797 243.398 20.4329C243.381 22.0862 243.775 23.387 243.65 23.4289Z" fill="black"/>
<path d="M219.765 22.8081C219.616 22.8081 219.473 22.7489 219.368 22.6434C219.262 22.538 219.203 22.395 219.203 22.2459V19.1072C219.203 18.9581 219.262 18.8151 219.368 18.7096C219.473 18.6042 219.616 18.5449 219.765 18.5449C219.915 18.5449 220.059 18.6039 220.166 18.7091C220.273 18.8143 220.334 18.9573 220.336 19.1072V22.2543C220.332 22.4027 220.27 22.5436 220.163 22.647C220.057 22.7504 219.914 22.8082 219.765 22.8081Z" fill="white"/>
<path d="M219.765 22.8076C219.765 22.8076 219.916 22.8076 220.067 22.6146C220.158 22.5259 220.209 22.4052 220.21 22.2789C220.21 22.0859 220.21 21.8928 220.21 21.6914C220.21 21.1879 220.21 20.6676 220.168 20.1305C220.168 19.8284 220.168 19.5262 220.168 19.2073C220.181 19.1542 220.181 19.0988 220.17 19.0455C220.158 18.9921 220.134 18.9421 220.1 18.8993C220.066 18.8565 220.023 18.8219 219.974 18.7982C219.924 18.7745 219.87 18.7623 219.816 18.7626C219.762 18.7639 219.708 18.7771 219.66 18.8012C219.611 18.8254 219.569 18.8599 219.535 18.9024C219.502 18.9448 219.478 18.9941 219.465 19.0468C219.453 19.0995 219.452 19.1543 219.463 19.2073C219.463 19.5262 219.463 19.8284 219.463 20.1305C219.463 20.69 219.446 21.2103 219.413 21.6914V22.2789C219.412 22.3409 219.423 22.4025 219.446 22.4601C219.469 22.5178 219.504 22.5702 219.547 22.6146C219.698 22.7656 219.858 22.774 219.849 22.8076C219.841 22.8412 219.69 22.8999 219.438 22.7488C219.364 22.6981 219.302 22.6322 219.256 22.5554C219.209 22.4787 219.18 22.393 219.17 22.3041C219.17 22.1026 219.17 21.9012 219.17 21.6914C219.17 21.1879 219.17 20.6676 219.128 20.1305C219.128 19.8284 219.128 19.5262 219.128 19.2073C219.108 18.9935 219.171 18.7803 219.304 18.6115C219.377 18.5226 219.47 18.451 219.574 18.4017C219.679 18.3524 219.793 18.3266 219.908 18.3262C220.024 18.3287 220.139 18.3553 220.244 18.4044C220.35 18.4536 220.444 18.5241 220.521 18.6115C220.65 18.7815 220.711 18.9946 220.689 19.2073C220.689 19.5262 220.689 19.8284 220.689 20.1305C220.689 20.69 220.672 21.2103 220.638 21.6914C220.638 21.9012 220.638 22.1026 220.638 22.3041C220.625 22.3931 220.593 22.4785 220.545 22.555C220.498 22.6314 220.435 22.6974 220.361 22.7488C219.9 22.8999 219.757 22.8244 219.765 22.8076Z" fill="black"/>
<path d="M226.439 29.196L226.456 29.1472L226.451 29.0958L226.202 29.116C226.451 29.0958 226.451 29.0958 226.451 29.0957L226.451 29.0954L226.451 29.0941L226.451 29.0888L226.449 29.068L226.443 28.9866L226.418 28.6768C226.397 28.4093 226.367 28.0263 226.332 27.564C226.262 26.6392 226.17 25.3975 226.087 24.1293C226.003 22.8607 225.926 21.5672 225.886 20.5383C225.865 20.0235 225.854 19.5774 225.855 19.2347C225.855 19.0631 225.859 18.9201 225.865 18.8085C225.872 18.6913 225.882 18.6259 225.889 18.5997C225.91 18.5255 225.964 18.408 226.058 18.2493C226.15 18.0945 226.272 17.9138 226.418 17.7164C226.71 17.3217 227.09 16.8702 227.492 16.4407C227.895 16.0108 228.317 15.6081 228.691 15.3087C228.878 15.1589 229.05 15.0384 229.199 14.9535C229.352 14.8659 229.461 14.8281 229.527 14.821C229.713 14.8011 229.841 14.8383 229.933 14.8922C230.027 14.948 230.1 15.032 230.157 15.1294C230.213 15.2272 230.248 15.3307 230.268 15.4123C230.278 15.4524 230.284 15.4856 230.288 15.5079C230.29 15.519 230.291 15.5273 230.292 15.5322L230.292 15.5371L230.292 15.5371L230.292 15.5375L230.332 15.9515L230.679 15.7205C231.427 15.2228 232.284 14.9115 233.177 14.8127C233.471 14.784 233.765 14.8669 234 15.0449C234.236 15.2232 234.397 15.4838 234.449 15.7749L234.513 16.1306L234.823 15.9451C235.391 15.6057 236.068 15.4988 236.712 15.6469L236.712 15.6472L236.723 15.6492C236.805 15.6641 236.912 15.717 237.036 15.8121C237.157 15.9046 237.277 16.0234 237.385 16.1447C237.493 16.2652 237.585 16.3836 237.65 16.4721C237.683 16.5162 237.708 16.5525 237.725 16.5775L237.745 16.6059L237.749 16.6128L237.75 16.6143L237.75 16.6144L237.751 16.6145L237.751 16.6145L237.751 16.6146L237.865 16.7899L238.058 16.7073L238.058 16.7072L238.058 16.7072L238.058 16.7072L238.058 16.7071L238.06 16.7063L238.07 16.7024C238.078 16.6988 238.092 16.6934 238.11 16.6866C238.145 16.6729 238.197 16.6537 238.262 16.6321C238.393 16.5889 238.572 16.5375 238.768 16.5035C239.177 16.4326 239.571 16.4526 239.806 16.6556C240.239 17.1361 240.502 17.7424 240.559 18.3821C239.727 18.4267 238.923 18.7077 238.242 19.1946L238.147 19.2626L238.138 19.3793C237.981 21.4864 237.694 23.5819 237.279 25.6538C237.032 26.6376 236.416 27.5533 235.754 28.3714C235.491 28.6964 235.226 29.001 234.976 29.2875C234.912 29.3614 234.848 29.4341 234.786 29.5056C234.488 29.8496 234.217 30.1717 234.032 30.457L233.997 30.5105L233.993 30.5741L233.476 37.3862L225.156 32.9973L226.439 29.196Z" fill="white" stroke="black" stroke-width="0.5"/>
<path d="M228.191 20.1351C228.134 19.6879 228.169 19.2336 228.295 18.8004C228.42 18.3673 228.634 17.9647 228.921 17.6175C229.148 17.2253 229.454 16.8846 229.819 16.6173C230.185 16.35 230.602 16.1618 231.045 16.0649C230.407 16.6152 229.817 17.2188 229.282 17.8693C228.861 18.5952 228.496 19.3528 228.191 20.1351Z" fill="black"/>
<path d="M232.488 19.9669C232.363 19.5804 232.331 19.1697 232.395 18.7685C232.459 18.3673 232.617 17.9871 232.857 17.6591C233.158 17.1542 233.619 16.7642 234.166 16.5513C234.586 16.4086 234.863 16.4422 234.871 16.4925C234.88 16.5429 233.847 16.8282 233.235 17.894C232.916 18.5576 232.665 19.2522 232.488 19.9669Z" fill="black"/>
<path d="M235.694 19.6476C235.576 19.6476 235.769 18.6993 236.6 17.9692C237.431 17.2391 238.354 17.13 238.362 17.2307C238.371 17.3314 237.616 17.6251 236.894 18.2965C236.172 18.9679 235.845 19.6896 235.694 19.6476Z" fill="black"/>
<path d="M253.376 32.6516C253.333 32.264 253.333 31.8727 253.376 31.4851C253.418 30.7382 253.493 29.664 253.653 28.3296C253.806 26.7565 254.156 25.2087 254.694 23.7224C254.79 23.504 254.908 23.296 255.046 23.1013C255.203 22.8962 255.408 22.7321 255.642 22.623C256.045 22.4048 256.481 22.1698 256.859 21.9264L259.376 20.3739C259.813 20.1053 260.216 19.8452 260.669 19.585L260.753 19.5347L260.837 19.5766C261.006 19.6587 261.156 19.776 261.276 19.9208C261.396 20.0655 261.484 20.2343 261.533 20.4158C261.631 20.7248 261.668 21.0496 261.642 21.3726C261.608 22.231 261.311 23.0582 260.792 23.7426C260.273 24.427 259.556 24.9355 258.739 25.1994L258.856 24.9812C259.233 26.5583 259.313 28.1919 259.091 29.7983C259.013 30.2459 258.859 30.6771 258.638 31.0739C258.553 31.209 258.448 31.3307 258.327 31.4347C258.38 31.2868 258.45 31.1458 258.537 31.0151C258.716 30.6181 258.835 30.1967 258.89 29.7647C259.026 28.1904 258.896 26.6043 258.504 25.0735L258.462 24.914L258.621 24.8553C259.559 24.4948 260.336 23.8099 260.811 22.9251C261.053 22.4355 261.19 21.9011 261.214 21.3558C261.261 21.1057 261.237 20.8476 261.145 20.6104C261.053 20.3732 260.897 20.1663 260.694 20.013H260.862C260.467 20.2396 260.023 20.5249 259.611 20.7851C258.772 21.3222 257.933 21.8425 257.094 22.3376C256.682 22.581 256.254 22.816 255.86 23.0342C255.675 23.112 255.513 23.2363 255.39 23.3951C255.262 23.5589 255.158 23.7396 255.08 23.9322C254.536 25.3769 254.167 26.8813 253.98 28.4136C253.779 29.7311 253.653 30.8053 253.561 31.5438C253.533 31.918 253.471 32.2888 253.376 32.6516Z" fill="black"/>
<path d="M189.1 109.188C189.1 109.188 190.133 151.426 189.1 156.578C188.068 161.731 186.331 183.022 186.331 198.816C186.331 214.61 186.994 218.21 186.994 218.21H202.326C202.326 218.21 203.417 188.183 208.151 170.795C212.548 154.657 217.609 130.118 217.609 119.477V105.067H190.477L189.1 109.188Z" fill="black"/>
<path d="M226.194 105.067C226.194 105.067 242.282 149.714 243.314 162.763C244.346 175.813 244.388 218.21 244.388 218.21H228.51L226.395 167.018L214.176 133.836V105.067H226.194Z" fill="black"/>
<path d="M217.609 129.111C217.577 129.519 217.51 129.924 217.407 130.32C217.248 131.159 217.03 132.284 216.769 133.61C216.224 136.471 215.494 140.273 214.697 144.469C213.899 148.665 213.102 152.551 212.489 155.312C212.179 156.696 211.91 157.829 211.709 158.576C211.627 158.981 211.506 159.378 211.348 159.759C211.378 159.349 211.446 158.941 211.55 158.543C211.709 157.703 211.927 156.579 212.179 155.253C212.733 152.391 213.455 148.59 214.26 144.385C215.066 140.181 215.855 136.312 216.467 133.551C216.778 132.166 217.046 131.033 217.248 130.286C217.327 129.883 217.448 129.489 217.609 129.111Z" fill="#F8F8F8"/>
<path d="M235.216 124.235C235.215 124.251 235.214 124.266 235.213 124.281H232.621L225.474 107.007L206.221 42.455L211.044 44.6012L222.04 62.7393L222.05 62.7753L222.134 63.066L222.456 64.1765C222.734 65.1372 223.134 66.5184 223.62 68.2008C224.591 71.5657 225.907 76.135 227.285 80.9531C230.041 90.5949 233.037 101.217 234.017 105.188C234.984 109.113 235.28 113.995 235.33 117.918C235.355 119.874 235.319 121.584 235.277 122.804C235.256 123.413 235.233 123.901 235.216 124.235Z" fill="#F8F8F8" stroke="black"/>
<path opacity="0.3" d="M219.9 67.7725C219.9 67.7725 230.188 98.2612 231.892 106.25C233.076 112.378 233.939 118.563 234.477 124.78H232.278L224.196 103.498C224.196 103.498 215.804 69.6607 216.165 69.7446C216.526 69.8285 219.9 67.7725 219.9 67.7725Z" fill="black"/>
<path d="M186.751 40.8174L187.674 34.9429L204.089 42.3112V38.7613L211.34 50.8628L227.285 96.1804C227.797 97.5819 228.418 102.231 227.486 103.398L226.185 105.076L208.898 107.317L192.508 48.1102L186.751 40.8174Z" fill="#E0E0E0"/>
<path opacity="0.3" d="M189.47 129.112C189.47 129.112 211.424 131.571 215.922 129.783C217.218 129.254 218.344 128.378 219.176 127.252C220.008 126.125 220.514 124.791 220.638 123.397C220.638 123.397 222.837 107.812 222.686 104.372C222.432 101.189 221.956 98.0289 221.259 94.9136L189.428 126.359L189.47 129.112Z" fill="black"/>
<path d="M206.002 47.5898C206.002 47.5898 213.505 73.1355 213.446 73.3201C213.387 73.5047 221.763 99.4617 221.763 99.4617L223.441 91.6486L211.776 52.7174L207.085 46.9688L206.002 47.5898Z" fill="white"/>
<path d="M182.135 43.6611L182.135 43.6612L182.145 43.6549C183.444 42.8208 184.659 41.8618 185.771 40.7915L185.867 40.6999L185.904 40.5732L187.056 36.6859L193.031 40.5977L193.031 40.598C197.398 43.4517 201.287 46.9762 204.555 51.0416L204.555 51.0419C208.911 56.4517 212.589 64.7841 213.702 68.1079C215.566 73.7008 220.148 88.7589 221.123 97.628C221.562 101.615 221.256 108.116 220.491 113.995C220.108 116.931 219.613 119.694 219.045 121.896C218.76 122.998 218.46 123.95 218.15 124.708C217.835 125.478 217.528 126.006 217.248 126.298C217.155 126.394 216.96 126.517 216.612 126.638C216.273 126.756 215.833 126.858 215.297 126.943C214.226 127.112 212.826 127.202 211.202 127.231C207.957 127.287 203.877 127.093 199.872 126.808C195.869 126.523 191.95 126.148 189.032 125.844C187.574 125.692 186.365 125.558 185.522 125.462C185.206 125.426 184.941 125.396 184.733 125.371C184.771 125.173 184.819 124.923 184.875 124.625C185.03 123.809 185.252 122.638 185.517 121.212C186.049 118.36 186.757 114.492 187.466 110.426C188.174 106.36 188.883 102.093 189.415 98.4454C189.945 94.8112 190.305 91.7541 190.305 90.1295C190.305 89.7093 190.176 89.1723 189.978 88.578C189.777 87.9714 189.488 87.2583 189.137 86.4686C188.434 84.8888 187.465 82.9693 186.399 80.924C185.772 79.7218 185.111 78.4763 184.449 77.2279C182.851 74.2145 181.244 71.184 180.079 68.7037C179.925 68.368 179.756 68.001 179.579 67.6177C178.901 66.1487 178.113 64.442 177.672 63.3551L177.671 63.3533C175.977 59.2266 175.255 55.4256 175.864 52.1099C176.468 48.8188 178.393 45.942 182.135 43.6611Z" fill="#F8F8F8" stroke="black"/>
<path d="M212.206 45.6107C212.434 45.6754 212.732 45.7634 213.091 45.872C213.915 46.1209 215.056 46.4759 216.403 46.9001C219.096 47.7486 222.612 48.8729 226.057 49.9765C226.592 50.1479 227.125 50.3187 227.653 50.4879C230.526 51.4086 233.251 52.2815 235.288 52.9276C236.493 53.31 237.459 53.6133 238.074 53.8001C238.379 53.8931 238.602 53.9586 238.724 53.9903C238.754 53.9982 238.782 54.005 238.805 54.0097C238.816 54.0118 238.831 54.0146 238.846 54.0163C238.853 54.0172 238.866 54.0184 238.882 54.0183L238.883 54.0183C238.892 54.0182 238.935 54.018 238.984 53.9967C239.013 53.9816 239.074 53.9291 239.102 53.8891C239.115 53.8594 239.122 53.8136 239.125 53.7714L239.752 53.1171L239.767 53.1009L239.78 53.0821L249.719 38.0404L258.542 43.2618L258.256 43.8074C258.004 44.2902 257.642 44.9831 257.202 45.8232C256.324 47.5032 255.136 49.7719 253.902 52.1264C251.431 56.837 248.775 61.8859 248.021 63.2551L248.02 63.2572C247.319 64.5598 246.276 65.6468 245.004 66.4013C243.731 67.1559 242.277 67.5495 240.798 67.54H240.796C240.305 67.54 238.843 67.3597 236.897 67.0822C234.962 66.8063 232.574 66.4384 230.25 66.0702C227.925 65.7021 225.665 65.334 223.985 65.0579C223.146 64.9198 222.451 64.8048 221.967 64.7243L221.406 64.6308L221.336 64.6192L212.206 45.6107ZM248.24 63.3757C247.517 64.7183 246.443 65.8386 245.131 66.6164C243.82 67.3941 242.321 67.7998 240.796 67.79L248.24 63.3757Z" fill="#F8F8F8" stroke="black" stroke-width="0.5"/>
<path d="M223.038 34.7503L225.212 30.9067L234.98 36.4707L233.461 40.7004L223.038 34.7503Z" fill="#E0E0E0"/>
<path opacity="0.3" d="M180.062 63.8039C180.062 63.8039 198.919 74.2857 204.92 75.7039C210.92 77.1222 217.609 79.0104 217.609 79.0104L214.915 70.4337L198.525 60.4722L180.062 63.8039Z" fill="black"/>
<path d="M180.062 63.8039C179.827 63.6276 208.352 73.7737 214.168 71.9442C219.984 70.1147 221.864 64.3913 223.945 60.8079C227.746 54.3207 234.485 41.4136 234.485 41.4136L222.417 34.5068L210.4 54.648C210.4 54.648 189.126 45.8698 187.17 45.2991C185.215 44.7285 179.164 43.9396 176.21 51.0142C172.904 58.8441 180.062 63.8039 180.062 63.8039Z" fill="#F8F8F8"/>
<path d="M180.062 63.8037C179.983 63.7698 179.91 63.7246 179.844 63.6694C179.71 63.5687 179.508 63.4093 179.256 63.1911C178.521 62.5507 177.862 61.8269 177.293 61.0343C176.356 59.7652 175.713 58.303 175.413 56.7543C175.324 56.2834 175.271 55.8065 175.253 55.3276C175.253 54.8325 175.304 54.3206 175.321 53.7835C175.337 53.2464 175.505 52.726 175.673 52.1889C175.841 51.6372 176.043 51.0963 176.277 50.5693C176.771 49.4155 177.458 48.3541 178.308 47.4306C179.248 46.423 180.425 45.667 181.732 45.2318C183.146 44.7649 184.652 44.6468 186.121 44.8878C186.891 45.0086 187.644 45.2228 188.362 45.5256L190.586 46.3648C196.578 48.723 203.25 51.4504 210.442 54.4045L210.19 54.4884L222.199 34.3472L222.308 34.1626L222.493 34.2717L226.848 36.7893L234.594 41.212L234.779 41.3127L234.678 41.4973C232.303 46.0291 229.962 50.4182 227.662 54.6059C226.504 56.7039 225.363 58.7516 224.205 60.7406C223.047 62.7295 222.157 64.7688 220.949 66.6151C219.821 68.4579 218.27 70.0056 216.425 71.13C215.531 71.6581 214.556 72.0352 213.538 72.2462C212.549 72.3596 211.549 72.3596 210.559 72.2462C207.015 71.786 203.509 71.068 200.069 70.0978C193.758 68.4194 188.773 66.7409 185.349 65.6332C181.925 64.5254 180.062 63.8037 180.062 63.8037C180.183 63.8144 180.302 63.8427 180.415 63.8876L181.438 64.2065L185.391 65.4821C188.84 66.5647 193.834 68.1676 200.136 69.8125C203.566 70.7619 207.061 71.4603 210.593 71.9021C211.555 72.0113 212.526 72.0113 213.488 71.9021C214.457 71.6903 215.387 71.3248 216.241 70.8195C218.032 69.718 219.534 68.2046 220.621 66.4053C221.813 64.6009 222.703 62.5449 223.861 60.5308C225.019 58.5166 226.143 56.5025 227.293 54.4129C229.584 50.2168 231.926 45.8277 234.292 41.2959L234.385 41.5897L226.613 37.1838L222.266 34.6661L222.56 34.5906C218.314 41.6736 214.252 48.4712 210.526 54.7318L210.433 54.8828L210.274 54.8157C203.115 51.8533 196.402 49.109 190.46 46.7173L188.244 45.878C187.549 45.5762 186.819 45.362 186.071 45.2402C184.651 45.0028 183.195 45.1093 181.824 45.5508C180.562 45.9668 179.422 46.6907 178.51 47.6572C177.677 48.5487 177 49.5726 176.504 50.6868C176.27 51.2024 176.068 51.7321 175.9 52.2729C175.732 52.7932 175.665 53.3303 175.547 53.8338C175.43 54.3373 175.438 54.8493 175.463 55.336C175.475 55.8061 175.523 56.2746 175.606 56.7375C175.887 58.2647 176.5 59.7115 177.402 60.9755C177.954 61.771 178.593 62.5027 179.307 63.1575C179.542 63.3841 179.735 63.5435 179.869 63.6526L180.062 63.8037Z" fill="black"/>
<path d="M193.775 106.796L196.418 101.442L214.915 101.769L212.859 107.308L193.775 106.796Z" fill="#F8F8F8"/>
<path d="M193.775 106.796H195.277H199.305C202.721 106.847 207.446 106.914 212.867 107.048L212.657 107.191C213.287 105.512 213.941 103.725 214.621 101.904L214.713 101.652L214.915 101.946C207.463 101.812 200.816 101.669 196.452 101.543L196.578 101.467L194.547 105.336C194.32 105.764 194.136 106.108 193.993 106.394C193.929 106.524 193.856 106.651 193.775 106.771C193.775 106.771 193.775 106.662 193.918 106.427C194.06 106.192 194.211 105.806 194.404 105.378L196.293 101.358V101.274H196.402C200.799 101.274 207.446 101.392 214.864 101.526H215.175L215.066 101.812L214.973 102.063L213.01 107.342L212.951 107.485H212.8C207.278 107.325 202.461 107.141 199.07 107.006L195.109 106.847L194.069 106.796C193.971 106.804 193.873 106.804 193.775 106.796Z" fill="black"/>
<path d="M206.12 52.264C206.061 52.3731 201.378 49.7967 195.655 46.5154C189.931 43.234 185.349 40.4898 185.408 40.3891C185.467 40.2884 190.15 42.8564 195.873 46.1377C201.596 49.4191 206.187 52.1633 206.12 52.264Z" fill="black"/>
<path d="M212.515 92.6474C212.515 92.7649 208.058 92.5802 202.57 92.2278C197.082 91.8753 192.634 91.4976 192.642 91.3885C192.65 91.2794 197.107 91.4557 202.595 91.8081C208.084 92.1606 212.523 92.5299 212.515 92.6474Z" fill="black"/>
<path d="M250.254 38.1152L252.117 34.9766L259.502 39.2901L258.067 42.6973L250.254 38.1152Z" fill="#E0E0E0"/>
<path d="M240.746 60.1778C239.933 59.3618 239.317 58.3722 238.942 57.2835C238.567 56.1948 238.443 55.0353 238.581 53.8921C238.707 53.8921 238.748 55.4027 239.353 57.1399C239.957 58.877 240.88 60.1023 240.746 60.1778Z" fill="black"/>
<path d="M222.677 63.1738C223.391 64.8718 223.972 66.6226 224.415 68.4105C224.997 70.1597 225.438 71.9531 225.732 73.7731C225.021 72.0741 224.441 70.3235 223.995 68.5364C223.412 66.7872 222.972 64.9939 222.677 63.1738Z" fill="black"/>
<path d="M211.348 60.9837C210.6 60.1104 210.104 59.0497 209.913 57.9156C209.722 56.7815 209.844 55.6169 210.266 54.5469C210.21 55.6468 210.238 56.7493 210.349 57.845C210.602 58.9151 210.936 59.9643 211.348 60.9837Z" fill="black"/>
<path opacity="0.3" d="M195.26 106.83L194.933 108.45L214.084 108.987L214.915 101.77L212.859 107.308L195.26 106.83Z" fill="black"/>
<path d="M203.686 45.8778L203.887 46.096L206.002 47.5898L207.06 46.994L206.372 44.6526L204.139 42.9741L203.686 45.8778Z" fill="white"/>
<path d="M206.539 42.9743C206.769 43.63 206.929 44.3078 207.018 44.9968L207.085 45.3577L206.774 45.1395C206.036 44.6192 205.096 43.931 204.013 43.1422L204.349 43.0079C204.248 43.6709 204.139 44.3674 204.03 45.0892C203.955 45.5255 203.888 45.9284 203.829 46.3564L203.778 46.6501L203.518 46.5158C201.907 45.727 200.505 45.022 199.507 44.4933C198.952 44.2456 198.426 43.9389 197.938 43.5786C198.52 43.7353 199.083 43.9577 199.616 44.2415C200.648 44.6947 202.083 45.3577 203.695 46.1298L203.392 46.2892L203.585 45.022C203.703 44.3003 203.812 43.6037 203.921 42.9492L203.98 42.5967L204.257 42.8065C205.314 43.6457 206.246 44.3422 206.951 44.9045L206.707 45.0472C206.582 44.3636 206.526 43.6692 206.539 42.9743Z" fill="black"/>
</svg>
