<svg width="505" height="484" viewBox="0 0 505 484" fill="none" xmlns="http://www.w3.org/2000/svg">
<path d="M327.48 42.0862V84.1958H316.424V42.0862C316.424 25.6303 303.922 12.1909 288.48 12.1909C273.039 12.1909 260.52 25.6299 260.52 42.0862V84.1958H249.479V42.0862C249.479 19.1235 267.005 0.5 288.48 0.5C309.955 0.5 327.48 19.1235 327.48 42.0862Z" stroke="black"/>
<path d="M234.044 159.611V69.4272H342.916V159.611H234.044Z" fill="white" stroke="black"/>
<path d="M293.23 114.416L297.62 135.245H279.308L283.782 114.02L283.854 113.677L283.557 113.492C281.846 112.427 280.529 110.834 279.804 108.954C279.08 107.074 278.987 105.01 279.541 103.072C280.095 101.135 281.264 99.4309 282.873 98.2177C284.481 97.0044 286.441 96.3481 288.456 96.3481C290.471 96.3481 292.431 97.0044 294.039 98.2177C295.648 99.4309 296.818 101.135 297.371 103.072C297.925 105.01 297.832 107.074 297.108 108.954C296.383 110.834 295.066 112.427 293.355 113.492L291.87 114.416H293.23Z" stroke="black"/>
<path d="M237.406 423.495L237.407 423.495C238.392 422.985 239.512 421.978 240.8 420.534C242.096 419.081 243.596 417.147 245.337 414.737C248.674 410.119 252.923 403.715 258.352 395.534C258.586 395.181 258.822 394.825 259.061 394.466C270.604 377.071 287.366 351.888 311.852 318.855L311.853 318.853C316.359 312.723 320.549 308.25 324.253 305.417C327.974 302.571 331.12 301.443 333.566 301.827C335.959 302.203 337.866 304.064 339.043 307.683C340.223 311.307 340.631 316.598 340.062 323.593C337.996 348.549 328.887 388.254 317.466 424.055C311.757 441.952 305.475 458.858 299.215 472.445C296.085 479.239 292.964 485.196 289.926 490.028C286.884 494.867 283.944 498.55 281.183 500.825C277.616 503.754 271.058 506.803 262.652 509.729C254.264 512.649 244.093 515.426 233.348 517.834C211.852 522.65 188.107 525.974 171.802 525.998C171.115 525.997 170.399 525.705 169.655 525.081C168.907 524.456 168.155 523.518 167.413 522.287C165.928 519.824 164.531 516.276 163.284 511.974C160.791 503.377 158.923 491.882 158.104 480.333C157.284 468.781 157.517 457.215 159.204 448.471C160.048 444.096 161.249 440.465 162.839 437.899C164.425 435.339 166.356 433.9 168.663 433.75C186.031 432.624 200.87 431.266 212.529 429.592C224.165 427.921 232.699 425.926 237.406 423.495Z" fill="white" stroke="black"/>
<path d="M189.475 524.563C187.778 524.991 163.713 531.003 149.483 531.876C138.854 532.526 108.237 533.589 106.35 521.977C105.065 514.045 123.007 511.301 135.634 509.08C142.297 507.906 151.228 503.226 150.324 498.895C148.737 491.36 131.494 494.707 119.85 498.388C97.3074 505.495 66.072 520.39 56.1731 507.541C52.4293 502.687 59.3458 496.928 68.6895 491.852C54.206 496.96 39.2149 500.45 34.8524 495.215C32.33 492.233 32.9011 489.044 35.4076 485.808C31.2037 486.204 27.7931 485.173 25.8894 482.08C22.7167 476.845 26.175 470.975 32.1556 465.407C31.4053 465.144 30.7272 464.708 30.1762 464.135C29.6251 463.562 29.2163 462.868 28.9828 462.108C23.2878 446.831 75.6377 418.403 91.5013 418.229C138.347 417.626 184.795 432.109 184.795 432.109C199.12 449.988 189.507 524.531 189.475 524.563Z" fill="#D3766A"/>
<path d="M133.254 468.929C122.299 468.215 111.317 469.837 101.035 473.688C88.0906 478.59 78.6517 485.617 67.2141 492.28C67.1639 492.32 67.13 492.378 67.1185 492.441C67.1069 492.505 67.1185 492.57 67.1511 492.626C67.1838 492.681 67.2353 492.724 67.2963 492.745C67.3573 492.765 67.4238 492.764 67.4838 492.74C72.925 489.567 95.1182 478.098 100.797 475.623C110.997 471.012 122.113 468.782 133.302 469.103C133.381 469.135 133.381 468.944 133.254 468.929Z" fill="black"/>
<path d="M129.209 448.194C116.804 448.781 104.097 449.321 92.009 452.414C78.7787 455.793 67.2776 463.519 55.9985 471.022C49.2406 475.496 42.5779 480.112 36.0104 484.871C35.7407 485.077 36.0104 485.537 36.2801 485.347C47.7442 477.616 59.4409 470.239 71.3704 463.217C82.4066 456.623 94.6407 452.283 107.365 450.447C114.63 449.4 121.959 448.861 129.273 448.416C129.336 448.416 129.352 448.194 129.209 448.194Z" fill="black"/>
<path d="M120.421 428.889C108.539 428.683 98.2117 428.445 86.7582 432.284C71.6402 437.344 55.7448 448.036 50.1608 451.844C43.974 456.032 37.9458 460.442 31.9811 464.931C31.7432 465.121 32.0605 465.55 32.3143 465.359C45.8412 455.61 59.984 446.745 74.6543 438.819C81.5889 434.944 89.0801 432.161 96.8633 430.57C104.661 429.368 112.548 428.837 120.437 428.984L120.421 428.889Z" fill="black"/>
<path d="M322.967 439.486L260.259 378.03C260.259 378.03 297.601 325.014 322.793 301.885C336.912 288.892 347.175 299.695 347.096 317.034C346.81 377.729 322.967 439.486 322.967 439.486Z" fill="#EDE2C5"/>
<path d="M322.967 439.486L260.259 378.03C260.259 378.03 297.601 325.014 322.793 301.885C336.912 288.892 347.175 299.695 347.096 317.034C346.81 377.729 322.967 439.486 322.967 439.486Z" fill="black"/>
<path opacity="0.1" d="M326.933 356.963C328.672 355.227 330.521 353.606 332.47 352.109C331.201 353.14 329.979 354.251 328.758 355.282L326.933 356.963ZM346.715 329.424C345.383 328.837 343.987 328.314 342.559 327.838V328.139C342.566 328.17 342.566 328.203 342.559 328.234C342.593 328.365 342.619 328.497 342.638 328.631C342.813 329.614 342.987 330.582 343.146 331.566C343.652 335.418 344.475 339.222 345.605 342.94C345.457 344.389 345.298 345.832 345.129 347.271C343.349 343.525 342.182 339.519 341.671 335.405C340.811 351.812 336.798 367.9 329.852 382.789C329.927 382.877 329.981 382.98 330.011 383.091C334.897 400.461 329.471 414.818 315.274 425.335C315.274 425.51 315.194 425.669 315.147 425.827C315.02 426.271 314.369 426.065 314.401 425.637C315.623 410.662 311.815 393.418 327.33 385.359C330.689 376.063 333.455 366.562 335.611 356.916C328.742 370.32 319.287 379.125 303.566 384.296C303.524 384.387 303.457 384.465 303.373 384.519C303.289 384.573 303.191 384.602 303.09 384.602C302.99 384.602 302.892 384.573 302.808 384.519C302.723 384.465 302.656 384.387 302.614 384.296C302.592 384.255 302.581 384.208 302.581 384.161C302.581 384.114 302.592 384.068 302.614 384.027C304.145 372.995 309.094 362.721 316.765 354.647C322.491 348.714 329.551 347.493 337.387 348.095C340.367 331.156 340.426 313.831 337.562 296.872C316.765 322.904 303.439 353.568 289.559 383.741V383.915C289.908 391.514 292.097 400.001 290.447 407.711L288.353 405.665C289.495 399.43 288.353 392.72 287.909 386.406C287.572 392.026 286.862 397.617 285.783 403.142L285.386 402.746C286.356 397.471 287.049 392.149 287.465 386.803C285.371 390.8 283.372 394.83 281.484 398.923L281.341 398.796C283.324 394.671 285.386 390.594 287.496 386.533L287.592 385.74C287.131 386.358 286.671 386.945 286.196 387.532C283.996 390.832 281.981 394.195 280.152 397.622L279.755 397.241C281.103 394.782 282.547 392.355 284.07 390.007C282.246 392.054 280.358 394.021 278.597 396.115L276.773 394.306C280.163 390.428 283.878 386.846 287.877 383.598C287.885 383.556 287.885 383.513 287.877 383.471C287.883 383.443 287.895 383.416 287.913 383.394C287.932 383.372 287.955 383.354 287.982 383.343C288.009 383.332 288.038 383.328 288.067 383.331C288.095 383.334 288.123 383.344 288.147 383.36L289.13 382.504C291.764 375.048 294.64 367.645 297.76 360.295C292.493 365.894 287.179 371.986 280.485 375.508C276.217 377.745 268.777 379.363 262.59 380.378L261.385 379.204C266.832 378.287 272.156 376.744 277.248 374.604C284.466 371.272 291.304 364.752 297.237 358.994C293.673 361.928 289.886 364.579 285.91 366.926V366.846C289.987 364.102 293.842 361.151 297.633 358.026C289.701 360.723 281.532 362.579 274.076 366.45C270.795 368.156 267.617 370.052 264.558 372.129L265.033 371.478C267.89 369.495 270.861 367.683 273.933 366.053C281.726 362.318 289.901 359.44 298.315 357.471C290.009 356.505 281.605 358.088 274.218 362.008C272.743 362.837 271.318 363.753 269.951 364.752L270.665 363.8C272.222 362.736 273.861 361.797 275.567 360.993C282.652 357.577 290.588 356.33 298.379 357.407L298.775 357.074C289.13 354.647 280.881 355.25 273.06 360.485C274.044 359.152 275.107 357.741 276.233 356.297C282.706 352.759 290.161 352.03 299.331 356.646C308.613 335.022 320.665 314.694 335.182 296.174C336.747 296.271 338.26 296.768 339.577 297.617C341.195 306.751 342.012 316.008 342.02 325.284C342.099 325.633 342.162 325.997 342.242 326.346C343.785 326.427 345.316 326.667 346.81 327.06C346.81 327.853 346.763 328.647 346.715 329.424ZM328.71 386.168V385.946L328.393 386.168H328.298C328.035 386.328 327.786 386.509 327.552 386.707C327.449 386.765 327.354 386.835 327.266 386.914C320.239 392.18 317.066 399.224 316.765 408.282C316.685 410.471 316.765 412.645 316.638 414.786C316.655 417.851 316.346 420.908 315.718 423.908C320.477 417.927 326.124 413.517 328.409 405.791C330.067 399.367 330.171 392.64 328.71 386.168ZM304.502 381.679C308.722 373.747 311.117 364.911 317.843 358.454C322.09 354.337 327.367 351.438 333.12 350.063C324.585 350.776 318.986 353.584 313.259 362.198C309.118 368.417 306.913 374.857 304.502 381.679ZM304.502 382.44C308.807 375.805 313.805 369.647 319.414 364.07C321.825 361.595 324.363 359.311 326.949 356.963C324.395 359.454 322.016 362.103 319.747 364.419C314.555 369.766 309.782 375.504 305.47 381.584C311.054 376.951 317.32 373.271 322.412 367.973C327.564 362.386 332.184 356.331 336.214 349.888H335.801C334.653 350.556 333.546 351.293 332.486 352.093C333.404 351.326 334.368 350.617 335.373 349.967C328.347 351.265 321.915 354.759 317.003 359.946C310.863 366.466 308.754 375.143 304.312 382.646L304.502 382.44ZM336.848 349.872H336.563C332.631 356.229 328.163 362.236 323.205 367.83C317.704 373.268 311.624 378.088 305.073 382.202L304.835 382.535C310.514 379.267 316.796 376.618 321.809 372.494C329.011 366.592 332.628 357.931 336.832 349.872H336.848ZM283.879 368.211C277.217 373.128 268.999 376.142 260.893 378.665L260.274 378.062C268.397 375.428 276.598 373.414 283.816 368.242L283.879 368.211ZM328.964 385.66L328.726 386.2C328.551 386.565 328.377 386.93 328.218 387.31C327.853 393.481 327.647 399.573 325.426 405.474C322.922 411.861 319.674 417.931 315.749 423.559C315.727 423.709 315.695 423.857 315.654 424.003C315.663 424.119 315.663 424.236 315.654 424.352C315.654 424.463 315.464 424.431 315.48 424.352C315.488 424.225 315.488 424.098 315.48 423.971C315.457 423.977 315.434 423.976 315.411 423.971C315.389 423.965 315.368 423.954 315.351 423.938C315.333 423.922 315.32 423.903 315.312 423.881C315.305 423.859 315.302 423.835 315.305 423.812C315.294 423.796 315.287 423.777 315.287 423.757C315.287 423.737 315.294 423.718 315.305 423.701C315.416 423.289 315.559 422.877 315.67 422.448C315.924 419.942 316.225 417.435 316.622 414.945C318.208 404.951 321.207 395.29 327.251 387.072C327.584 386.581 327.949 386.105 328.329 385.629C328.329 385.296 328.329 384.947 328.329 384.613H328.409C328.409 384.931 328.409 385.232 328.409 385.534C328.694 385.169 328.964 384.804 329.265 384.439C329.265 384.439 329.408 384.439 329.36 384.439C329.027 384.836 328.71 385.248 328.393 385.645V386.216V386.327L328.488 386.152C328.615 385.93 328.742 385.692 328.869 385.486C328.996 385.28 329.011 385.486 328.948 385.629L328.964 385.66ZM328.123 387.501C323.189 398.605 320.191 410.281 316.13 421.687C316.13 422.004 316.019 422.337 315.94 422.654C319.508 417.182 322.557 411.388 325.046 405.347C326.939 399.598 327.97 393.6 328.107 387.548L328.123 387.501ZM328.202 386.311C328.202 386.136 328.202 385.962 328.202 385.787C327.933 386.136 327.663 386.501 327.425 386.85C323.668 391.782 320.929 397.412 319.366 403.412C318.081 408.536 317.479 413.787 316.606 418.974C318.192 413.644 320.033 408.345 321.778 403.031C323.347 397.312 325.472 391.759 328.123 386.454C328.123 386.454 328.187 386.343 328.187 386.279L328.202 386.311ZM342.638 328.234H342.511C342.518 328.266 342.518 328.298 342.511 328.329L342.686 328.694C343.807 331.106 345.013 333.464 346.303 335.769C346.295 335.912 346.295 336.055 346.303 336.198C345.113 333.993 343.987 331.772 342.94 329.503C343.939 332.47 344.954 335.468 346.112 338.419L346.017 339.545C344.94 336.955 344.008 334.307 343.225 331.613C342.86 330.439 342.543 329.265 342.258 328.107L341.211 327.663L342.242 328.076V327.917C342.242 327.742 342.099 327.584 342.035 327.425C341.972 327.267 342.035 327.33 342.115 327.425C342.115 327.425 342.226 327.33 342.242 327.425C342.258 327.52 342.448 327.996 342.543 328.282H342.686C344.085 328.881 345.446 329.564 346.763 330.328C346.771 330.391 346.771 330.455 346.763 330.519C345.441 329.647 344.057 328.873 342.622 328.202L342.638 328.234Z" fill="black"/>
<path opacity="0.1" d="M266.287 383.932L322.967 439.454C322.967 439.454 346.763 377.697 347.096 317.019C347.096 310.531 345.716 304.963 343.193 301.155L266.287 383.932Z" fill="black"/>
<path d="M272.109 370.336C282.531 378.982 310.181 403.269 326.045 421.401C326.14 421.512 325.775 421.909 325.664 421.829C310.181 408.742 281.246 380.457 271.569 370.939C271.379 370.764 271.918 370.098 272.109 370.336Z" fill="black"/>
<path d="M490.186 532.811L274.441 532.256L287.496 451.003C287.496 451.003 268.841 428.334 272.362 403.729C276.233 376.761 324.712 308.548 328.853 304.629C345.319 289.194 362.547 285.069 378.204 293.16C432.03 320.921 490.186 532.811 490.186 532.811Z" fill="black"/>
<path opacity="0.5" d="M410.138 435.408C410.474 437.843 410.654 440.296 410.677 442.753C410.677 441.167 410.455 439.485 410.328 437.867L410.138 435.408ZM425.494 532.652H422.861C421.781 531.872 420.652 531.162 419.482 530.527C411.661 526.323 405.395 527.576 397.764 528.036L396.337 528.115L397.193 529.02V529.115C398.304 530.305 399.319 531.479 400.366 532.589H398.097C396.697 530.933 395.621 529.028 394.925 526.973C403.11 525.514 410.36 524.578 418.101 528.1C420.748 529.299 423.232 530.829 425.494 532.652ZM431.966 532.652H429.507C427.209 527.433 425.316 522.045 423.844 516.535H423.701C416.896 513.505 409.234 509.317 405.807 502.258C402.381 495.198 403.681 485.125 404.475 477.526C404.479 477.424 404.522 477.327 404.596 477.256C404.67 477.185 404.769 477.146 404.871 477.146C404.933 477.143 404.995 477.156 405.05 477.184C405.106 477.212 405.153 477.253 405.188 477.304C417.07 487.282 427.001 498.355 424.495 514.441C426.473 520.714 428.973 526.811 431.966 532.668V532.652ZM422.861 514.457L423.336 514.679C423.307 514.62 423.292 514.555 423.292 514.489C423.292 514.423 423.307 514.357 423.336 514.298C423.391 514.201 423.474 514.124 423.574 514.076C423.368 505.954 422.924 499.466 417.499 492.502C414.04 488.092 410.265 483.888 406.394 479.811L405.791 479.176L405.474 478.827L405.379 478.732L405.236 478.573V478.764C405.244 478.843 405.244 478.923 405.236 479.002C405.569 485.649 404.966 492.47 406.822 498.895C409.027 506.43 415.849 511.284 422.861 514.457ZM432.839 371.319C430.19 378.791 427.302 386.073 427.096 394.322C427.096 386.247 429.603 378.093 432.363 370.288C432.569 370.574 432.664 370.907 432.839 371.256V371.319ZM479.335 496.356C477.622 496.896 475.893 497.356 474.179 497.768H474.084C471.753 509.534 466.88 520.649 459.807 530.336C459.807 531.161 459.807 531.923 459.712 532.795H456.936C457.759 518.814 456.853 504.785 454.239 491.026C453.684 488.139 453.033 485.284 452.351 482.444C452.192 482.449 452.035 482.417 451.891 482.349C442.907 477.914 434.357 472.651 426.351 466.628L425.367 466.152C412.835 480.874 393.64 471.276 379.791 464.09C379.652 464.037 379.533 463.944 379.449 463.822C379.365 463.7 379.32 463.556 379.32 463.408C379.32 463.26 379.365 463.115 379.449 462.993C379.533 462.872 379.652 462.778 379.791 462.726H379.902L380.124 462.63C388.373 459.093 395.829 454.477 405.141 455.698C409.877 456.415 414.432 458.03 418.562 460.457C406.005 449.874 395.6 436.975 387.913 422.464C387.803 422.486 387.69 422.486 387.58 422.464C370.764 415.896 362.563 402.92 362.722 385.264L362.404 384.867C362.135 384.486 362.69 384.09 363.007 384.375C374.239 394.369 390.293 401.698 387.374 418.958C392.782 427.253 398.706 435.2 405.109 442.753C398.542 429.19 397.177 416.309 402.539 400.683C402.493 400.596 402.472 400.498 402.479 400.4C402.486 400.302 402.52 400.208 402.578 400.128C402.636 400.049 402.715 399.987 402.807 399.951C402.898 399.914 402.998 399.904 403.094 399.922C403.193 399.917 403.29 399.951 403.364 400.017C411.232 407.867 416.442 417.987 418.26 428.952C419.545 437.106 416.261 443.467 411.042 449.416C422.776 461.994 436.576 472.473 451.843 480.398C443.578 448.115 427.096 419.037 411.359 389.785C411.359 389.785 411.248 389.785 411.201 389.705C403.856 384.708 394.052 380.949 389.357 372.906C384.28 364.197 385.058 352.14 385.121 342.448C385.121 342.448 385.581 342.178 385.597 342.289C393.529 348.365 402.032 355.139 407.029 363.927C411.359 371.541 411.946 380.044 412.502 388.563L412.597 388.658C412.62 388.674 412.638 388.696 412.651 388.721C412.664 388.746 412.671 388.773 412.671 388.801C412.671 388.829 412.664 388.857 412.651 388.882C412.638 388.906 412.62 388.928 412.597 388.944C412.597 389.372 412.597 389.801 412.676 390.229C417.054 396.828 421.227 403.581 425.193 410.487C423.892 402.888 422.226 394.988 423.447 387.532C424.32 382.17 428.302 374.032 431.379 368.226L432.093 369.812C429.477 374.794 427.453 380.065 426.065 385.517C424.383 393.291 425.478 402.682 426.493 410.899C426.284 406.273 426.432 401.638 426.938 397.034H427.033C426.763 401.936 426.795 406.806 427.033 411.708C429.65 403.776 433.093 396.114 434.504 387.833C435.081 384.463 435.473 381.063 435.678 377.649L435.916 378.188C435.787 381.442 435.459 384.684 434.933 387.897C433.225 396.375 430.597 404.641 427.096 412.549C432.873 406.5 436.674 398.837 437.994 390.578C438.304 388.286 438.415 385.972 438.328 383.661C438.47 383.994 438.629 384.343 438.772 384.692C438.766 387.25 438.506 389.801 437.994 392.307C436.443 400.041 432.64 407.144 427.064 412.723C427.064 412.898 427.064 413.057 427.064 413.231C435.71 406.267 440.295 398.414 439.866 387.31C440.453 388.69 441.04 390.054 441.611 391.45C441.516 400.493 438.042 408.52 427.096 413.929C446.989 449.495 460.41 488.615 459.95 528.147C467.455 512.708 472.15 496.056 473.814 478.97C474.592 481.318 475.401 483.618 476.051 485.855C475.734 488.964 475.29 492.052 474.719 495.119C475.433 492.692 476.051 490.36 476.717 487.949C476.924 488.583 477.114 489.218 477.304 489.837C476.765 491.502 476.194 493.152 475.528 494.802C475.528 494.802 475.528 494.802 475.528 494.881C475.337 495.373 475.131 495.849 474.925 496.325L475.147 496.245C476.448 495.833 477.717 495.421 478.97 494.96C479.002 495.23 479.161 495.769 479.335 496.293V496.356ZM386.898 343.733C396.86 354.68 404.558 367.49 409.551 381.425C408.329 375.285 407.631 369.13 404.268 363.277C399.747 355.361 393.465 349.586 386.898 343.669V343.733ZM410.106 386.66C403.999 381.123 397.415 375.444 393.418 368.226C389.277 360.58 387.532 351.284 385.565 342.844C386.454 351.49 387.231 363.768 391.451 371.304C395.464 378.379 403.412 382.202 410.106 386.596V386.66ZM393.465 367.369C397.304 374.778 403.983 380.346 410.059 386.057C402.891 371.332 394.839 357.055 385.946 343.304C388.151 351.268 389.61 359.866 393.465 367.306V367.369ZM410.836 386.786C410.63 386.073 410.423 385.343 410.249 384.613C404.985 369.854 397.042 356.194 386.818 344.32C395.683 357.682 403.521 371.698 410.265 386.247L410.836 386.786ZM385.74 419.275L385.946 419.37C385.954 419.244 385.954 419.116 385.946 418.99C385.952 418.953 385.952 418.915 385.946 418.879V418.799C385.962 418.503 385.962 418.207 385.946 417.911C385.953 417.789 385.953 417.668 385.946 417.546C385.946 408.726 382.266 401.952 375.206 396.257C373.477 394.861 371.732 393.56 370.051 392.228C367.629 390.369 365.402 388.27 363.404 385.962C365.355 393.338 365.45 400.524 370.241 406.965C374.351 412.246 379.665 416.467 385.74 419.275ZM403.904 402.634C407.743 410.82 413.311 418.022 414.405 427.286C415.154 433.146 414.304 439.098 411.946 444.514C416.515 437.264 417.641 431.109 414.215 421.353C411.708 414.294 407.901 408.662 403.904 402.618V402.634ZM409.995 447.385C407.269 440.421 405.146 433.234 403.65 425.906C402.618 418.235 402.427 410.474 403.079 402.761C403.079 402.634 402.999 402.507 402.968 402.38C402.159 408.884 400.493 415.484 400.763 421.972C401.127 431.3 405.871 439.422 409.773 447.608L409.995 447.385ZM410.63 446.354C413.808 439.978 414.891 432.76 413.723 425.732C412.216 416.896 406.569 409.979 403.285 401.936C403.285 402.047 403.285 402.158 403.285 402.269C405.986 409.704 407.895 417.404 408.98 425.24C409.488 428.651 409.821 432.077 410.122 435.519C409.646 431.998 408.98 428.492 408.536 425.287C407.379 417.874 405.655 410.561 403.38 403.412C403.697 410.661 402.872 417.895 404.046 425.145C405.405 432.621 407.455 439.955 410.17 447.052L410.439 446.672C410.599 445.35 410.679 444.021 410.677 442.69C410.735 443.906 410.72 445.124 410.63 446.338V446.354ZM424.003 465.47L423.717 465.327H423.638L423.305 465.153C422.432 464.724 421.576 464.28 420.735 463.836C415.627 461.139 410.63 458.427 404.649 457.649C397.622 456.745 391.752 459.616 385.613 462.075C384.471 462.519 383.328 462.964 382.155 463.36L382.329 463.455L382.615 463.598L386.342 465.613C391.863 468.595 397.558 471.482 403.792 471.958C411.566 472.545 417.752 469.595 424.003 465.454V465.47ZM387.263 419.91L386.565 419.275C386.676 419.735 386.803 420.179 386.914 420.624C386.914 420.624 386.818 420.735 386.803 420.624C386.691 420.116 386.565 419.608 386.422 419.117L386.009 418.752L385.914 418.672L385.994 418.863C386.107 419.089 386.208 419.322 386.295 419.561C386.295 419.719 386.136 419.799 386.057 419.656L385.771 419.148L385.2 418.069C380.441 414.056 375.761 410.233 372.367 404.903C368.781 399.057 365.89 392.812 363.753 386.295L363.451 385.946L363.213 385.676C363.213 385.597 363.213 385.486 363.34 385.549L363.626 385.819C363.639 385.799 363.657 385.783 363.677 385.772C363.698 385.761 363.721 385.755 363.745 385.755C363.768 385.755 363.792 385.761 363.812 385.772C363.833 385.783 363.851 385.799 363.864 385.819H363.975L364.736 386.866C366.587 388.568 368.39 390.324 370.146 392.133C377.189 399.43 383.122 407.679 386.009 417.514C386.2 418.07 386.358 418.641 386.501 419.212L387.263 419.91ZM385.058 418.006C379.22 407.425 371.669 397.939 364.99 387.865L364.324 387.135C366.547 393.274 369.341 399.19 372.668 404.808C376.127 409.787 380.302 414.229 385.058 417.99V418.006ZM386.358 419.132C386.247 418.72 386.136 418.323 385.994 417.911C384.315 411.912 381.457 406.309 377.586 401.429C374.27 397.304 370.447 393.671 366.83 389.832C370.098 394.353 373.176 398.986 376.444 403.554C379.807 408.409 383.439 413.215 385.819 418.656L385.978 418.799L386.358 419.132ZM424.78 465.407C424.859 465.407 424.78 465.549 424.78 465.533L423.908 465.248H423.765C417.766 468.74 410.885 470.426 403.951 470.102C400.224 469.871 396.546 469.129 393.021 467.897C390.895 467.183 388.516 466.454 386.311 465.502C384.999 464.967 383.749 464.292 382.583 463.487L382.329 463.328L380.632 463.868C380.425 463.868 380.314 463.614 380.521 463.551L381.679 463.17C381.704 463.16 381.732 463.16 381.758 463.17H381.806L381.568 462.995L381.932 463.186C383.059 462.821 384.201 462.456 385.359 462.123C390.759 460.361 396.415 459.508 402.095 459.6C408.423 460.073 414.641 461.518 420.529 463.884C421.639 464.28 422.734 464.724 423.796 465.169L424.796 464.598L423.844 465.169L424.003 465.248L424.526 465.359V465.47L424.78 465.407ZM383.947 462.9C396.812 461.369 409.842 462.007 422.496 464.788C415.944 462.63 409.17 460.298 402.285 460.029C396.054 459.914 389.849 460.88 383.947 462.884V462.9ZM423.765 465.216H423.67L423.305 465.137C409.944 462.43 396.244 461.815 382.694 463.313H382.519C395.48 470.308 410.455 472.498 423.638 465.264L423.765 465.216ZM424.288 515.599L423.432 514.869C423.432 515.187 423.432 515.488 423.432 515.805C423.421 515.837 423.401 515.865 423.374 515.884C423.347 515.904 423.314 515.914 423.281 515.914C423.247 515.914 423.215 515.904 423.188 515.884C423.161 515.865 423.141 515.837 423.13 515.805C423.13 515.377 423.035 514.949 422.987 514.52C422.992 514.589 422.992 514.658 422.987 514.727C422.987 514.727 422.908 514.822 422.892 514.727L422.797 514.409C417.879 510.158 413.057 505.494 410.106 499.609C406.933 493.263 406.061 486.14 405.426 479.16L405.252 478.954C405.252 478.954 405.109 478.795 405.046 478.7C404.982 478.605 405.046 478.557 405.157 478.605L405.236 478.716L405.395 478.891C405.403 478.822 405.403 478.753 405.395 478.684C405.395 478.684 405.395 478.78 405.395 478.827C405.395 478.875 405.395 478.97 405.395 479.033L405.934 479.636L405.68 479.176L405.268 478.399H405.347C405.664 478.891 405.982 479.382 406.283 479.874C406.426 480.08 406.553 480.302 406.696 480.525C415.389 490.043 422.036 501.242 423.178 514.393C423.178 514.473 423.178 514.552 423.178 514.631L424.209 515.567C424.542 515.504 424.399 515.694 424.288 515.583V515.599ZM423.019 514.14C422.265 507.874 420.486 501.775 417.752 496.087C415.019 490.891 411.639 486.062 407.695 481.714C410.043 485.664 412.073 489.773 414.12 493.913C411.804 489.329 409.17 484.903 406.68 480.414C406.362 480.017 406.029 479.636 405.712 479.255C406.664 485.601 407.552 492.248 410.154 498.292C412.946 504.637 417.721 509.396 422.765 513.902C421.138 508.651 419.013 503.567 416.42 498.72C419.109 503.581 421.264 508.719 422.845 514.044L423.019 514.14ZM420.148 532.652H418.942C417.856 532.16 416.744 531.726 415.611 531.352C410.661 529.885 405.554 529.011 400.398 528.75C404.974 529.791 409.487 531.094 413.913 532.652H411.629C407.108 531.066 402.492 529.765 397.78 528.544H396.86C398.519 530.021 400.256 531.408 402.063 532.7H401.381C399.922 531.59 398.526 530.431 397.209 529.21V529.115L396.559 528.512H396.051C395.829 528.512 395.829 528.258 395.972 528.147C395.958 528.135 395.947 528.121 395.94 528.104C395.933 528.088 395.929 528.07 395.929 528.052C395.929 528.034 395.933 528.016 395.94 528C395.947 527.983 395.958 527.969 395.972 527.957L395.702 527.671C395.694 527.664 395.687 527.655 395.682 527.645C395.677 527.635 395.674 527.624 395.673 527.613C395.673 527.602 395.674 527.591 395.678 527.581C395.681 527.57 395.687 527.561 395.694 527.552C395.701 527.544 395.71 527.537 395.72 527.532C395.73 527.527 395.741 527.524 395.752 527.524C395.763 527.523 395.774 527.524 395.785 527.528C395.795 527.531 395.805 527.537 395.813 527.544L396.305 527.989L397.05 528.131C397.304 528.131 397.558 528.131 397.812 528.131C403.935 528.249 410.014 529.199 415.881 530.955C417.341 531.414 418.767 531.976 420.148 532.637V532.652ZM478.732 494.405C477.573 494.919 476.381 495.353 475.163 495.706L475.004 495.976C474.963 496.064 474.915 496.148 474.861 496.23C474.75 496.404 474.449 496.23 474.56 496.087L474.703 495.833L474.306 495.944L474.052 496.15C473.957 496.15 473.878 496.15 473.862 496.055C473.291 496.198 472.72 496.341 472.149 496.436C471.578 496.531 471.752 495.96 472.149 495.896C473.021 495.738 473.894 495.516 474.75 495.278L475.369 494.738C475.39 494.693 475.416 494.65 475.448 494.611C475.448 494.611 475.448 494.611 475.448 494.532C476.178 493.215 476.876 491.883 477.558 490.55L477.749 491.169C477.225 492.137 476.702 493.089 476.162 494.025L478.098 492.279C478.098 492.422 478.193 492.565 478.225 492.692C477.384 493.453 476.543 494.167 475.686 494.865L475.591 495.024C476.608 494.688 477.604 494.29 478.574 493.834C478.574 494.04 478.685 494.215 478.732 494.389V494.405ZM328.758 355.345C329.979 354.266 331.201 353.156 332.47 352.172C330.521 353.669 328.672 355.29 326.933 357.026L328.758 355.345ZM289.606 383.899C290.019 392.783 292.938 402.936 289.336 411.454C286.608 417.974 280.849 423.178 274.964 427.683C274.79 427.175 274.631 426.636 274.472 426.096C279.485 421.337 284.562 415.864 286.925 410.487C290.225 402.983 288.512 394.338 287.956 386.342C287.227 394.544 286.703 403.3 283.308 410.756C280.826 415.797 277.724 420.507 274.076 424.78C274.076 424.589 273.965 424.399 273.917 424.193C277.287 420.221 280.193 415.878 282.579 411.248C286.196 403.729 286.608 395.02 287.512 386.739C282.054 397.329 277.135 408.188 272.775 419.275L272.632 418.498C277.01 407.6 282.15 397.003 287.544 386.548L287.639 385.755C287.179 386.374 286.719 386.961 286.243 387.548C280.348 396.379 275.654 405.955 272.283 416.023C272.283 415.436 272.156 414.849 272.093 414.262C275.157 405.747 279.191 397.614 284.117 390.023C279.961 394.687 275.456 398.954 272.807 405.172C272.521 405.839 272.267 406.489 272.013 407.155C272.013 406.045 272.204 404.919 272.362 403.792C272.596 402.286 272.908 400.793 273.298 399.319C276.931 393.084 282.404 388.357 287.893 383.614C287.901 383.572 287.901 383.529 287.893 383.487C287.898 383.458 287.911 383.432 287.929 383.409C287.947 383.387 287.971 383.37 287.998 383.359C288.025 383.348 288.054 383.343 288.082 383.346C288.111 383.349 288.139 383.359 288.163 383.376L289.146 382.519C291.779 375.063 294.656 367.66 297.776 360.31C293.767 364.945 289.332 369.194 284.53 373.001C285.355 371.415 286.227 369.828 287.1 368.242C290.685 365.371 294.08 362.103 297.221 359.057C294.529 361.297 291.705 363.373 288.765 365.275L289.067 364.72C291.986 362.642 294.809 360.437 297.57 358.153C295.65 358.803 293.715 359.406 291.779 360.025C291.922 359.755 292.081 359.501 292.24 359.231C294.238 358.66 296.237 358.121 298.204 357.645C296.618 357.502 294.936 357.423 293.318 357.439L293.477 357.169C295.113 357.182 296.746 357.315 298.363 357.566L298.759 357.233C297.191 356.83 295.603 356.512 294 356.281C294.27 355.837 294.524 355.376 294.809 354.932C296.345 355.444 297.84 356.07 299.283 356.804C307.161 338.581 316.934 321.236 328.44 305.057C328.57 304.907 328.708 304.764 328.853 304.629C331.188 302.421 333.663 300.365 336.261 298.474C316.194 324.093 303.154 354.234 289.559 383.741L289.606 383.899ZM366.989 364.863H366.878C366.802 364.842 366.731 364.804 366.672 364.752C358.883 360.294 350.697 357.121 346.049 348.888C343.754 344.696 342.284 340.102 341.718 335.357C340.849 351.783 336.82 367.888 329.852 382.789C329.927 382.876 329.981 382.979 330.011 383.09C334.897 400.461 329.471 414.817 315.273 425.335C315.273 425.51 315.194 425.668 315.147 425.827C315.02 426.271 314.369 426.065 314.401 425.636C315.623 410.661 311.815 393.417 327.33 385.359C330.689 376.062 333.455 366.562 335.611 356.915C328.742 370.32 319.287 379.124 303.566 384.296C303.524 384.387 303.457 384.464 303.373 384.518C303.289 384.572 303.19 384.601 303.09 384.601C302.99 384.601 302.892 384.572 302.808 384.518C302.723 384.464 302.656 384.387 302.614 384.296C302.592 384.254 302.58 384.208 302.58 384.161C302.58 384.114 302.592 384.068 302.614 384.026C304.145 372.995 309.094 362.721 316.765 354.647C322.491 348.714 329.551 347.492 337.387 348.095C340.325 331.373 340.421 314.276 337.673 297.522C338.244 297.109 338.831 296.729 339.418 296.364C341.183 305.903 342.075 315.582 342.083 325.283C342.162 325.632 342.226 325.997 342.305 326.346C361.611 327.504 365.482 348.555 368.083 363.99V364.086C368.138 364.23 368.145 364.388 368.102 364.537C368.059 364.685 367.969 364.816 367.846 364.909C367.722 365.002 367.572 365.052 367.418 365.052C367.263 365.053 367.113 365.003 366.989 364.911V364.863ZM328.71 386.12V385.898L328.393 386.12H328.298C328.035 386.28 327.786 386.461 327.552 386.66C327.449 386.717 327.354 386.787 327.266 386.866C320.239 392.133 317.066 399.176 316.765 408.234C316.685 410.423 316.765 412.597 316.638 414.738C316.655 417.803 316.346 420.86 315.718 423.86C320.477 417.879 326.124 413.469 328.409 405.743C330.06 399.334 330.163 392.625 328.71 386.168V386.12ZM304.502 381.631C308.722 373.699 311.117 364.863 317.843 358.406C322.09 354.289 327.367 351.39 333.12 350.015C324.585 350.728 318.986 353.536 313.259 362.15C309.118 368.416 306.913 374.857 304.502 381.678V381.631ZM304.502 382.392C308.807 375.757 313.805 369.599 319.414 364.022C321.825 361.547 324.363 359.263 326.949 356.915C324.395 359.406 322.016 362.055 319.747 364.371C314.555 369.718 309.782 375.457 305.47 381.536C311.054 376.903 317.32 373.223 322.412 367.925C327.564 362.338 332.184 356.284 336.213 349.84H335.801C334.653 350.508 333.546 351.245 332.486 352.045C333.404 351.278 334.368 350.569 335.373 349.919C328.347 351.217 321.915 354.711 317.003 359.898C310.863 366.418 308.754 375.095 304.312 382.598L304.502 382.392ZM336.848 349.824H336.562C332.631 356.181 328.162 362.189 323.205 367.782C317.704 373.22 311.624 378.04 305.073 382.154L304.835 382.487C310.514 379.22 316.796 376.57 321.809 372.446C329.011 366.592 332.628 357.931 336.832 349.872L336.848 349.824ZM363.134 360.627C364.133 361.23 365.133 361.849 366.101 362.515C366.101 362.515 366.101 362.388 366.101 362.325C366.101 362.261 366.101 362.214 366.101 362.166C365.847 360.659 365.625 359.136 365.403 357.613C364.467 351.474 363.324 345.271 360.041 340.163C355.773 333.453 349.698 330.296 342.591 327.806V328.107C342.598 328.138 342.598 328.171 342.591 328.202C342.625 328.333 342.651 328.465 342.67 328.599C342.844 329.582 343.019 330.55 343.178 331.533C344.098 337.197 344.938 342.781 347.937 347.984C351.474 354.234 357.391 357.169 363.118 360.675L363.134 360.627ZM382.932 320.112C379.331 327.187 370.542 332.12 363.975 336.07C363.917 336.112 363.85 336.136 363.779 336.141C363.708 336.146 363.638 336.131 363.575 336.098C363.513 336.065 363.461 336.016 363.425 335.955C363.389 335.894 363.37 335.824 363.372 335.753C363.364 335.711 363.364 335.668 363.372 335.626C364.165 320.128 367.036 305.485 381.393 297.855L382.757 295.904C383.106 296.126 383.455 296.38 383.804 296.649L383.439 297.125C383.442 297.173 383.442 297.221 383.439 297.268C385.184 304.565 386.454 313.211 382.916 320.159L382.932 320.112ZM382.345 299.188C382.345 299.013 382.266 298.854 382.234 298.68C382.199 298.731 382.155 298.774 382.103 298.807C382.051 298.839 381.993 298.861 381.932 298.87C381.814 298.91 381.686 298.91 381.568 298.87C375.222 303.915 370.304 308.182 368.02 316.717C366.561 322.126 365.482 327.694 364.498 333.231L364.356 334.087C364.321 334.234 364.295 334.382 364.276 334.532V334.659C364.284 334.727 364.284 334.796 364.276 334.865L364.435 334.738L364.609 334.595C369.717 330.312 375.508 326.663 379.569 321.397C384.296 315.083 383.995 306.754 382.329 299.235L382.345 299.188ZM328.964 385.581L328.726 386.12C328.551 386.485 328.377 386.85 328.218 387.231C327.853 393.402 327.647 399.493 325.426 405.394C322.922 411.782 319.674 417.852 315.749 423.479C315.727 423.629 315.695 423.777 315.654 423.923C315.663 424.039 315.663 424.156 315.654 424.272C315.654 424.383 315.464 424.351 315.48 424.272C315.488 424.145 315.488 424.018 315.48 423.891C315.457 423.897 315.434 423.897 315.411 423.891C315.389 423.885 315.368 423.874 315.351 423.858C315.333 423.843 315.32 423.823 315.312 423.801C315.304 423.779 315.302 423.756 315.305 423.733C315.294 423.717 315.287 423.697 315.287 423.677C315.287 423.657 315.294 423.638 315.305 423.622C315.416 423.209 315.559 422.797 315.67 422.369C315.924 419.862 316.225 417.356 316.622 414.865C318.208 404.871 321.206 395.21 327.251 386.993C327.584 386.501 327.949 386.025 328.329 385.549C328.329 385.216 328.329 384.867 328.329 384.534H328.409C328.409 384.851 328.409 385.152 328.409 385.454C328.694 385.089 328.964 384.724 329.265 384.359C329.265 384.359 329.408 384.359 329.36 384.359C329.027 384.756 328.71 385.168 328.393 385.565V386.136V386.247L328.488 386.073C328.615 385.851 328.742 385.613 328.869 385.406C328.996 385.2 329.011 385.486 328.948 385.628L328.964 385.581ZM328.123 387.421C323.189 398.526 320.191 410.201 316.13 421.607C316.13 421.924 316.019 422.257 315.94 422.575C319.508 417.102 322.557 411.308 325.045 405.268C326.931 399.543 327.963 393.573 328.107 387.548L328.123 387.421ZM328.202 386.231C328.202 386.057 328.202 385.882 328.202 385.708C327.933 386.057 327.663 386.422 327.425 386.771C323.658 391.726 320.919 397.384 319.366 403.412C318.081 408.535 317.479 413.786 316.606 418.974C318.192 413.644 320.033 408.345 321.778 403.031C323.347 397.311 325.472 391.759 328.123 386.453C328.123 386.453 328.187 386.342 328.187 386.279L328.202 386.231ZM367.338 363.752L366.323 363.054C366.323 363.054 366.323 363.054 366.243 363.054L366.101 362.912V363.213C366.101 363.213 366.101 363.213 366.021 363.213V362.817C365.085 362.166 364.149 361.5 363.229 360.818C358.513 357.536 354.374 353.494 350.983 348.857C347.564 343.556 344.979 337.762 343.32 331.676C342.955 330.502 342.638 329.328 342.353 328.17L341.306 327.726L342.337 328.139V327.98C342.337 327.806 342.194 327.647 342.131 327.488C342.067 327.33 342.131 327.393 342.21 327.488C342.21 327.488 342.321 327.393 342.337 327.488C342.353 327.583 342.543 328.059 342.638 328.345H342.781C349.195 331.035 354.702 335.512 358.645 341.242C360.683 344.367 362.284 347.756 363.404 351.315C364.086 353.378 364.911 355.63 365.498 357.899C365.889 359.388 366.123 360.914 366.196 362.452V362.594L367.655 363.61C367.703 363.515 367.528 363.752 367.338 363.752ZM342.702 328.678C348.573 340.97 356.329 352.269 365.688 362.166L365.831 362.277C363.594 347.714 356.313 334.437 342.622 328.266H342.495C342.502 328.297 342.502 328.329 342.495 328.361L342.702 328.678ZM364.625 361.421C355.659 352.063 348.324 341.269 342.924 329.487C345.145 336.023 347.366 342.828 351.236 348.523C354.926 353.537 359.456 357.873 364.625 361.341V361.421ZM382.313 299.077V299.172L382.424 298.997C382.424 298.997 382.567 298.997 382.519 298.997L382.329 299.251C381.901 305.739 381.076 312.386 378.125 318.287C374.952 324.633 369.813 329.63 364.625 334.341C364.625 334.437 364.625 334.532 364.625 334.611C364.619 334.717 364.619 334.823 364.625 334.928C364.625 334.928 364.467 334.928 364.482 334.928C364.475 334.881 364.475 334.833 364.482 334.786C364.475 334.712 364.475 334.637 364.482 334.563L364.324 334.706L364.419 334.611C364.468 334.554 364.521 334.501 364.578 334.452L364.72 333.659L364.498 334.167C364.371 334.421 364.26 334.69 364.133 334.944C364.007 335.198 364.022 334.944 364.038 334.944C364.229 334.405 364.435 333.881 364.641 333.358L364.927 332.596C367.338 319.905 372.224 307.881 382.075 299.045L382.218 298.902C382.218 298.426 382.218 297.966 382.345 297.506C382.354 297.482 382.37 297.461 382.391 297.446C382.413 297.431 382.438 297.423 382.464 297.423C382.49 297.423 382.515 297.431 382.536 297.446C382.558 297.461 382.574 297.482 382.583 297.506C382.583 297.887 382.583 298.267 382.504 298.648L383.202 298.014C383.36 297.887 383.566 298.125 383.424 298.252L382.313 299.077ZM382.012 299.362C377.454 303.734 373.654 308.832 370.764 314.448C368.264 319.757 366.442 325.358 365.339 331.121C367.084 326.87 369.162 322.777 371.224 318.652C368.94 323.269 367.005 328.028 364.879 332.723C364.768 333.215 364.641 333.707 364.53 334.199C369.083 329.566 373.81 324.902 376.999 319.223C380.41 313.163 381.282 306.532 381.885 299.759C378.661 304.209 375.872 308.958 373.556 313.941C375.823 308.896 378.626 304.109 381.917 299.663C381.917 299.663 382.012 299.362 382.012 299.283V299.362ZM291.954 514.901C290.748 516.011 289.559 517.122 288.321 518.185C290.242 516.65 292.064 514.997 293.778 513.235L291.954 514.901ZM278.803 532.351H276.614C276.242 530.739 275.776 529.149 275.218 527.592L275.852 523.689C277.192 526.415 278.183 529.299 278.803 532.272V532.351ZM317.701 485.886C316.356 496.918 311.585 507.249 304.058 515.425C298.41 521.453 291.367 522.785 283.435 522.325C282.928 525.657 282.515 528.972 282.23 532.319H279.485C280.349 516.832 284.054 501.636 290.415 487.489C290.344 487.399 290.29 487.297 290.257 487.187C285.085 469.896 290.257 455.46 304.28 444.689C304.28 444.53 304.359 444.371 304.407 444.197C304.518 443.769 305.184 443.959 305.152 444.371C304.185 459.378 308.325 476.559 292.89 484.871C289.693 494.215 287.091 503.753 285.101 513.426C291.732 499.91 300.965 490.899 316.669 485.522C316.711 485.43 316.778 485.353 316.863 485.299C316.947 485.245 317.045 485.216 317.145 485.216C317.246 485.216 317.344 485.245 317.428 485.299C317.513 485.353 317.58 485.43 317.621 485.522C317.655 485.56 317.679 485.606 317.693 485.656C317.706 485.705 317.709 485.757 317.701 485.807V485.886ZM291.494 484.173V484.379L291.811 484.141C291.811 484.141 291.811 484.141 291.906 484.141C292.16 483.972 292.414 483.782 292.668 483.57C292.782 483.516 292.884 483.441 292.969 483.348C299.886 477.971 302.932 470.879 303.09 461.837C303.09 459.616 303.09 457.427 303.09 455.27C303.028 452.243 303.283 449.217 303.852 446.243C299.235 452.319 293.62 456.808 291.494 464.566C289.962 470.985 289.962 477.675 291.494 484.094V484.173ZM284.26 520.564C288.095 514.15 292.467 508.074 297.332 502.4C302.725 496.842 308.709 491.89 315.178 487.631C315.247 487.522 315.321 487.416 315.4 487.314C309.785 490.661 303.55 493.422 298.601 497.626C291.478 503.654 288.02 512.363 283.927 520.501L284.26 520.564ZM315.797 488.234C311.704 496.309 309.452 505.113 302.821 511.681C298.649 515.876 293.419 518.863 287.687 520.326C296.221 519.47 301.758 516.567 307.342 507.858C311.387 501.496 313.481 495.024 315.797 488.155V488.234ZM316.035 487.251L315.781 487.473C311.583 494.179 306.685 500.422 301.171 506.097C298.807 508.603 296.301 510.983 293.778 513.315C296.269 510.776 298.617 508.111 300.838 505.732C305.927 500.282 310.589 494.448 314.782 488.282C309.277 493.041 303.059 496.801 298.077 502.178C293.013 507.843 288.493 513.973 284.577 520.485H285.037C286.181 519.794 287.283 519.037 288.337 518.217C287.422 518.995 286.463 519.72 285.466 520.39C292.47 518.974 298.846 515.375 303.677 510.11C309.69 503.463 311.657 494.754 316.035 487.171V487.251ZM368.099 487.473C367.972 487.631 367.544 488.25 367.481 488.282C355.504 503.892 343.685 523.816 321.476 513.108C318.732 519.628 315.797 526.053 312.624 532.367H309.594C317.256 517.185 323.967 501.449 330.836 485.855C330.825 485.797 330.825 485.738 330.836 485.68C330.265 476.812 327.187 466.771 330.645 458.125C334.389 448.766 344.383 441.96 352.061 436.043C352.061 436.043 352.553 436.249 352.474 436.329C352.553 446.307 352.474 457.189 348.603 466.469C345.272 474.576 338.926 480.255 332.549 485.95C332.54 485.992 332.54 486.035 332.549 486.077C332.544 486.105 332.531 486.132 332.513 486.154C332.494 486.177 332.471 486.194 332.444 486.205C332.417 486.216 332.388 486.22 332.36 486.217C332.331 486.214 332.303 486.204 332.279 486.188L331.312 487.06C328.805 494.569 326.05 502.009 323.047 509.38C328.234 503.685 333.437 497.515 340.068 493.882C348.206 489.44 368.21 487.124 368.274 487.187C368.337 487.251 368.194 487.346 368.099 487.394V487.473ZM333.945 482.111C342.348 468.886 348.227 454.218 351.284 438.851C346.202 454.037 339.965 468.812 332.628 483.047C332.628 483.317 332.628 483.586 332.628 483.84C333.025 483.221 333.485 482.619 333.945 482.032V482.111ZM351.554 437.534C346.62 444.276 340.703 450.669 337.197 458.284C333.691 465.898 333.453 474.481 332.628 482.73C339.845 468.034 346.165 452.915 351.554 437.455V437.534ZM351.807 438.565C349.292 453.134 343.928 467.064 336.023 479.557C340.1 474.798 344.542 470.483 347.128 464.217C350.491 455.761 351.173 447.29 351.807 438.486V438.565ZM332.248 483.269C332.85 475.052 333.215 466.295 336.499 458.776C339.973 450.844 346.239 443.705 351.681 436.947C345.414 442.96 336.229 451.129 332.882 459.156C329.709 466.58 331.581 475.21 332.248 483.19V483.269ZM358.518 498.07C354.698 502.274 350.165 505.77 345.129 508.397C338.079 511.946 330.135 513.326 322.301 512.363L321.92 512.68C333.199 515.329 342.543 513.902 351.347 505.859C353.927 503.415 356.324 500.786 358.518 497.99V498.07ZM363.61 491.724C361.548 493.438 359.295 494.976 357.153 496.483C353.825 498.956 350.338 501.208 346.715 503.225C338.977 507.084 330.845 510.094 322.46 512.204C330.781 513.04 339.159 511.319 346.477 507.271C353.251 503.352 358.423 497.419 363.61 491.661V491.724ZM366.783 487.996C358.851 490.376 350.998 491.169 343.209 494.834C336.023 498.292 329.313 504.923 323.475 510.776C326.995 507.768 330.739 505.031 334.675 502.591C330.645 505.415 326.838 508.429 323.094 511.601C331.026 508.794 339.117 506.842 346.509 502.797C353.526 499.089 359.996 494.429 365.736 488.948C355.9 492.993 345.494 494.738 336.673 501.274C345.176 494.77 356.36 491.439 366.497 488.203L366.783 487.996ZM304.423 446.418C304.312 446.846 304.185 447.259 304.074 447.687C303.883 450.162 303.614 452.636 303.265 455.095C301.869 465.121 299.029 474.845 293.144 483.174C292.795 483.681 292.43 484.173 292.049 484.665V485.68V484.76C291.764 485.125 291.494 485.506 291.193 485.871H291.097C291.43 485.474 291.748 485.062 292.049 484.649C292.049 484.459 292.049 484.268 292.049 484.078V483.967L291.954 484.141L291.589 484.824C291.51 484.966 291.304 484.824 291.367 484.681C291.451 484.516 291.525 484.346 291.589 484.173C291.764 483.792 291.938 483.412 292.097 483.031C292.351 476.844 292.462 470.768 294.571 464.82C296.976 458.394 300.123 452.272 303.947 446.576C303.969 446.427 304.001 446.278 304.042 446.132C304.033 446.016 304.033 445.899 304.042 445.783C304.042 445.672 304.217 445.704 304.217 445.783C304.209 445.91 304.209 446.037 304.217 446.164C304.239 446.159 304.263 446.159 304.285 446.165C304.308 446.17 304.329 446.182 304.346 446.197C304.363 446.213 304.376 446.232 304.384 446.254C304.392 446.276 304.394 446.3 304.391 446.323L304.375 446.354L304.423 446.418ZM303.122 451.177C301.536 456.539 299.854 461.869 298.204 467.199C296.459 472.831 294.905 478.669 292.081 483.872C292.081 483.951 292.081 484.015 292.081 484.078C292.081 484.141 292.081 484.427 292.081 484.602C292.351 484.237 292.62 483.872 292.858 483.507C296.53 478.503 299.172 472.82 300.631 466.787C301.758 461.52 302.281 456.253 303.074 451.002L303.122 451.177ZM303.55 448.512C303.55 448.179 303.661 447.861 303.725 447.528C300.249 453.056 297.302 458.898 294.92 464.978C293.103 470.723 292.146 476.705 292.081 482.73C296.824 471.625 299.664 459.838 303.503 448.385L303.55 448.512ZM275.519 532.256H274.948C274.853 531.97 274.726 531.701 274.615 531.415L274.758 530.463C275.027 531.066 275.281 531.653 275.519 532.256Z" fill="white"/>
<path d="M324.839 444.8C334.492 445.685 344.068 447.276 353.489 449.559C358.153 450.765 362.737 452.177 367.306 453.684C369.591 454.429 371.891 455.111 374.191 455.762C376.584 456.527 379.061 456.995 381.568 457.158C381.614 457.158 381.658 457.176 381.691 457.209C381.724 457.242 381.742 457.286 381.742 457.332C381.742 457.379 381.724 457.423 381.691 457.456C381.658 457.488 381.614 457.507 381.568 457.507C379.198 457.623 376.824 457.581 374.461 457.38C372.177 457.103 369.914 456.674 367.687 456.095C362.928 454.921 358.169 453.541 353.521 452.319C344.003 449.861 334.484 447.402 324.728 445.641C324.673 445.634 324.62 445.615 324.572 445.588C324.523 445.56 324.481 445.523 324.447 445.478C324.413 445.434 324.389 445.384 324.374 445.33C324.36 445.276 324.356 445.22 324.363 445.165C324.371 445.11 324.389 445.056 324.417 445.008C324.445 444.96 324.482 444.918 324.526 444.884C324.57 444.85 324.62 444.825 324.674 444.811C324.728 444.796 324.784 444.793 324.839 444.8Z" fill="black"/>
<path d="M300.996 453.367C308.942 452.529 316.929 452.142 324.919 452.208C328.932 452.208 332.85 452.542 336.88 452.922C338.783 453.113 340.671 453.319 342.575 453.573C344.478 453.827 346.699 454.382 348.793 454.62C349.015 454.62 349.015 454.985 348.793 454.969C346.81 454.794 344.796 454.969 342.813 454.969L336.848 454.81C332.866 454.715 328.916 454.651 324.887 454.525C316.955 454.255 309.023 454.065 300.98 454.065C300.552 454.017 300.584 453.398 300.996 453.367Z" fill="black"/>
<path d="M404.002 316.645L404.002 316.645C430.87 350.882 459.563 399.837 479.388 443.316C489.3 465.056 496.987 485.409 501.121 501.855C503.188 510.08 504.362 517.309 504.489 523.238C504.615 529.181 503.687 533.742 501.626 536.698C499.322 540 496.175 541.591 492.397 541.848C488.593 542.107 484.135 541.013 479.267 538.89C469.533 534.645 458.336 526.367 447.8 517.073C437.272 507.786 427.438 497.515 420.433 489.321C416.93 485.223 414.142 481.652 412.33 478.989C411.423 477.655 410.771 476.565 410.396 475.758C410.207 475.352 410.099 475.041 410.057 474.821C410.029 474.675 410.038 474.61 410.04 474.593C410.198 474.378 410.265 474.091 410.301 473.824C410.34 473.528 410.349 473.166 410.336 472.75C410.309 471.915 410.189 470.803 409.986 469.447C409.581 466.731 408.84 462.983 407.829 458.407C405.807 449.252 402.694 436.747 398.998 422.484C393.578 401.569 386.897 376.861 380.546 353.368C378.234 344.816 375.965 336.426 373.817 328.438C369.792 313.473 368.923 304.268 370.014 299.118C370.557 296.557 371.567 295.08 372.831 294.349C374.1 293.616 375.744 293.566 377.705 294.123C381.644 295.242 386.548 298.726 391.334 303.046C396.104 307.35 400.694 312.425 404.002 316.645Z" fill="white" stroke="black"/>
<path d="M470.467 398.653L383.075 405.855C383.075 405.855 367.481 342.844 366.481 308.611C365.926 289.416 377.126 289.701 390.166 301.123C435.742 341.147 470.467 398.653 470.467 398.653Z" fill="black"/>
<path opacity="0.1" d="M435.742 361.929C435.742 361.929 435.536 361.152 435.488 360.945C435.488 360.85 435.488 360.818 435.329 360.945C435.171 361.072 424.764 378.141 423.273 387.295C422.622 392.395 422.772 397.565 423.717 402.619L425.478 402.476C424.795 396.731 424.955 390.916 425.954 385.217C427.794 376.761 432.109 370.099 435.076 362.421V362.801C431.379 372.78 427.144 383.646 427.033 394.354C427.302 383.361 432.331 374.096 435.202 363.848C435.983 371.747 435.679 379.716 434.298 387.533C433.345 392.495 431.954 397.363 430.142 402.08H430.824C432.53 397.387 433.836 392.557 434.727 387.644C435.374 383.549 435.745 379.415 435.837 375.27C435.948 372.637 436.107 369.908 436.027 367.211C437.376 374.858 438.867 382.663 437.788 390.325C437.22 394.318 436.003 398.192 434.187 401.794H434.489C435.965 398.693 437.072 395.429 437.788 392.07C438.811 386.477 438.844 380.747 437.883 375.143C438.712 378.581 439.29 382.075 439.613 385.597C440.181 391.104 439.163 396.657 436.678 401.604L439.486 401.382C444.387 389.912 439.216 375.286 435.742 361.929ZM426.811 396.623C426.604 398.51 426.462 400.398 426.382 402.302H426.731C426.731 400.43 426.811 398.558 426.906 396.67C426.922 396.575 426.826 396.559 426.826 396.623H426.811ZM412.533 389.896C412.533 389.468 412.533 389.04 412.454 388.611C412.477 388.595 412.496 388.574 412.509 388.549C412.521 388.524 412.528 388.497 412.528 388.469C412.528 388.441 412.521 388.413 412.509 388.388C412.496 388.363 412.477 388.342 412.454 388.326L412.359 388.231C411.804 379.712 411.217 371.209 406.886 363.595C401.889 354.806 393.37 348.032 385.454 341.957C385.454 341.846 384.946 342.083 384.978 342.115C384.978 351.808 384.137 363.864 389.214 372.573C393.973 380.616 403.713 384.376 411.058 389.373C411.058 389.373 411.169 389.373 411.217 389.452L418.498 402.952L420.624 402.778C418.012 398.42 415.304 394.127 412.502 389.896H412.533ZM404.3 363.214C407.663 369.067 408.361 375.223 409.583 381.362C404.59 367.427 396.891 354.618 386.929 343.67C393.465 349.587 399.747 355.361 404.268 363.214H404.3ZM391.482 371.146C387.263 363.61 386.485 351.332 385.597 342.686C387.564 351.142 389.309 360.438 393.449 368.068C397.368 375.286 404.03 380.965 410.138 386.502C403.412 382.203 395.464 378.379 391.451 371.225L391.482 371.146ZM385.978 343.162C394.862 356.929 402.903 371.222 410.059 385.962C403.983 380.251 397.368 374.683 393.465 367.275C389.563 359.867 388.151 351.269 385.946 343.242L385.978 343.162ZM410.297 386.105C403.553 371.556 395.715 357.54 386.85 344.177C397.074 356.052 405.017 369.712 410.281 384.471C410.455 385.201 410.661 385.93 410.868 386.644L410.297 386.105ZM407.124 403.809C405.939 402.319 404.651 400.914 403.269 399.605C403.195 399.539 403.098 399.505 402.999 399.51C402.902 399.492 402.803 399.502 402.711 399.539C402.62 399.575 402.541 399.637 402.483 399.716C402.425 399.796 402.391 399.89 402.384 399.988C402.377 400.086 402.398 400.184 402.444 400.271C401.968 401.635 401.556 402.984 401.191 404.316L402.777 404.19C402.872 403.555 402.952 402.936 403.031 402.302C403.031 402.429 403.11 402.556 403.142 402.683C403.142 403.174 403.142 403.666 403.063 404.158H403.396C403.396 403.92 403.396 403.682 403.396 403.444C403.396 403.682 403.539 403.904 403.602 404.142H404.03C403.808 403.476 403.57 402.809 403.317 402.159C403.317 402.048 403.317 401.937 403.317 401.826C403.634 402.603 403.967 403.412 404.332 404.126H404.665C404.411 403.634 404.173 403.143 403.935 402.651L404.903 404.11L407.124 403.809ZM381.742 400.017C382.25 402.191 382.646 403.825 382.884 404.776C383.075 405.094 383.249 405.411 383.408 405.744L385.533 405.57C384.495 403.588 383.204 401.748 381.694 400.097L381.742 400.017ZM383.551 297.237C383.553 297.189 383.553 297.142 383.551 297.094C383.725 296.872 383.915 296.634 384.074 296.396C383.709 296.158 383.328 295.936 382.964 295.73L381.504 297.824C374.615 301.469 369.394 307.627 366.925 315.02C367.036 316.607 367.163 318.193 367.322 319.779C367.576 318.732 367.83 317.701 368.115 316.607C370.4 308.072 375.301 303.805 381.663 298.76C381.781 298.8 381.909 298.8 382.028 298.76C382.088 298.751 382.146 298.729 382.198 298.696C382.25 298.664 382.295 298.62 382.329 298.57C382.329 298.744 382.408 298.903 382.44 299.077C384.106 306.597 384.407 314.941 379.6 321.286C376.404 325.087 372.718 328.448 368.639 331.28C368.718 331.883 368.797 332.486 368.892 333.105C374.429 329.662 380.267 325.49 383.027 320.049C386.454 313.212 385.184 304.566 383.503 297.316L383.551 297.237ZM383.313 298.046C383.455 297.919 383.313 297.681 383.09 297.808L382.392 298.443C382.392 298.062 382.392 297.681 382.472 297.3C382.463 297.276 382.447 297.255 382.425 297.24C382.404 297.226 382.379 297.218 382.353 297.218C382.327 297.218 382.302 297.226 382.28 297.24C382.259 297.255 382.243 297.276 382.234 297.3C382.234 297.761 382.155 298.221 382.107 298.696L381.964 298.839C375.161 305.123 370.156 313.107 367.465 321.968C367.465 322.175 367.465 322.381 367.465 322.587C368.309 319.729 369.408 316.952 370.749 314.29C373.638 308.674 377.438 303.576 381.996 299.204C381.996 299.283 381.996 299.379 381.996 299.458C378.705 303.904 375.902 308.69 373.636 313.735C375.952 308.752 378.74 304.003 381.964 299.553C381.361 306.311 380.489 312.958 377.078 319.018C374.651 323.069 371.725 326.8 368.369 330.122C368.361 330.265 368.361 330.408 368.369 330.551C372.258 326.968 375.518 322.759 378.014 318.098C380.965 312.244 381.79 305.597 382.218 299.061L382.408 298.808C382.408 298.808 382.408 298.696 382.313 298.808L382.202 298.982V298.887L383.313 298.046ZM371.272 318.494C370.114 320.81 368.956 323.111 367.846 325.443C367.846 325.633 367.846 325.807 367.846 325.998C368.94 323.491 370.051 320.985 371.272 318.526C371.304 318.574 371.24 318.526 371.224 318.574L371.272 318.494Z" fill="black"/>
<path d="M384.978 391.848C398.335 389.627 434.727 384.63 458.792 384.487C458.934 384.487 458.998 385.042 458.792 385.058C438.788 388.231 398.51 391.61 385.01 392.657C384.836 392.688 384.74 391.879 384.978 391.848Z" fill="black"/>
<path d="M393.719 404.998C390.155 404.998 386.591 405.072 383.027 405.22L383.709 405.728C382.123 396.099 380.108 386.565 377.951 377.062C375.793 367.56 373.414 358.026 370.574 348.73C371.907 358.407 373.747 367.988 375.698 377.538C377.649 387.088 379.918 396.575 382.44 406.014L382.583 406.6L383.122 406.521C386.66 406.077 390.197 405.585 393.719 404.998Z" fill="black"/>
<path d="M374.477 367.814C373.897 365.823 373.088 363.907 372.065 362.103C371.069 360.281 369.928 358.541 368.655 356.9C368.751 357.95 368.997 358.981 369.384 359.962C369.737 360.938 370.172 361.883 370.685 362.785C371.674 364.652 372.954 366.35 374.477 367.814Z" fill="black"/>
<path d="M369.495 302.123C369.035 306.263 352.918 334.675 334.437 335.992C328.409 336.404 324.665 303.598 324.665 303.598L323.824 301.235L312.228 268.207L349.015 237.939L354.361 233.862C354.361 233.862 356.931 243.11 360.025 254.659C360.183 255.198 360.326 255.722 360.469 256.245C360.612 256.769 360.85 257.499 361.008 258.117C361.484 259.831 361.976 261.591 362.42 263.352C362.769 264.685 363.118 265.986 363.42 267.398C363.721 268.809 364.086 270.205 364.435 271.617C367.528 285.704 369.67 300.378 369.495 302.123Z" fill="white"/>
<path d="M360.025 254.659C357.736 264.586 353.312 273.895 347.061 281.939C340.809 289.983 332.879 296.567 323.824 301.235L312.228 268.207L349.015 237.939L354.361 233.862C354.361 233.862 356.931 243.19 360.025 254.659Z" fill="black"/>
<path d="M363.515 240.017C364.61 241.312 365.44 242.811 365.958 244.427C368.29 251.772 365.006 259.323 360.881 265.303C356.455 271.649 350.237 277.471 348.095 285.117C347.098 288.101 347.234 291.348 348.476 294.239C350.062 297.411 353.235 298.998 356.487 299.934C359.739 300.87 364.213 301.33 366.561 304.391C367.423 305.712 367.962 307.218 368.133 308.787C368.304 310.355 368.102 311.942 367.544 313.418C365.196 321.016 357.011 324.982 352.141 330.868C346.904 337.079 343.664 344.725 342.844 352.807C342.141 360.378 343.657 367.99 347.207 374.715C348.904 378.007 351.068 381.037 353.632 383.709C356.503 386.66 359.977 388.944 362.975 391.752C365.974 394.56 368.385 397.891 368.274 401.905C368.274 404.998 361.928 414.596 348.777 419.355C347.841 419.688 348.508 421.37 349.586 421.37C351.658 421.407 353.729 421.317 355.789 421.1C364.294 420.225 372.47 417.341 379.641 412.685C386.812 408.029 392.774 401.735 397.035 394.322C401.528 386.314 403.99 377.327 404.205 368.147C404.332 363.055 404.046 357.899 405.03 352.871C405.988 348.471 407.985 344.365 410.852 340.894C416.198 334.151 423.114 328.758 427.286 321.096C430.934 314.18 432.809 306.467 432.744 298.649C432.657 290.618 430.841 282.701 427.42 275.436C423.998 268.17 419.05 261.728 412.914 256.547C400.731 246.029 362.912 239.287 363.515 240.017Z" fill="black"/>
<path d="M363.848 240.429C365.808 243.146 367.116 246.278 367.671 249.582C367.99 252.605 367.543 255.661 366.37 258.466C363.864 264.811 359.041 269.57 354.425 274.329C350.094 278.85 345.732 283.847 344.732 290.272C344.241 293.022 344.538 295.854 345.589 298.442C346.907 301.194 349.263 303.311 352.141 304.327C357.344 306.437 364.593 307.5 366.592 313.639C368.591 319.778 363.546 325.394 359.977 329.582C351.268 339.814 338.45 351.791 341.909 366.751C343.669 374.318 348.635 381.409 353.695 387.151C357.344 391.308 362.008 396.511 361.024 402.491C361.024 402.713 360.659 402.602 360.691 402.396C361.627 396.051 356.059 391.641 352.141 387.564C347.41 382.771 343.641 377.117 341.036 370.907C338.617 364.633 338.759 357.66 341.433 351.49C344.034 345.065 348.381 339.687 352.95 334.563C355.297 331.93 357.709 329.344 359.961 326.632C362.185 324.296 363.859 321.494 364.863 318.43C365.289 316.89 365.211 315.253 364.64 313.76C364.069 312.268 363.036 310.997 361.69 310.133C358.946 308.246 355.694 307.532 352.616 306.374C349.828 305.486 347.358 303.805 345.51 301.535C344.111 299.602 343.236 297.339 342.971 294.968C342.484 289.57 344.029 284.185 347.302 279.866C351.712 273.679 358.058 269.126 362.357 262.86C364.706 259.693 366.153 255.949 366.545 252.025C366.783 247.885 364.958 244.41 363.182 240.825C363.166 240.742 363.176 240.656 363.211 240.579C363.245 240.502 363.303 240.437 363.376 240.393C363.449 240.35 363.533 240.33 363.617 240.337C363.702 240.343 363.782 240.375 363.848 240.429Z" fill="black"/>
<path d="M419.958 256.356C432.522 266.747 437.408 283.943 434.552 299.664C432.842 308.44 429.068 316.683 423.543 323.713C418.482 330.312 412.438 336.404 408.821 344.002C404.871 352.442 406.251 361.548 406.267 370.542C406.295 377.805 404.747 384.987 401.73 391.593C395.806 404.443 385.039 414.429 371.78 419.37C370.114 419.995 368.413 420.524 366.688 420.957C366.664 420.967 366.639 420.973 366.613 420.973C366.587 420.972 366.562 420.966 366.539 420.955C366.515 420.943 366.495 420.927 366.479 420.907C366.463 420.887 366.451 420.863 366.445 420.838C366.439 420.813 366.439 420.787 366.444 420.762C366.45 420.737 366.461 420.713 366.476 420.693C366.492 420.672 366.512 420.655 366.534 420.643C366.557 420.631 366.583 420.625 366.608 420.624C380.203 417.007 391.562 406.997 398.082 394.671C401.315 388.596 403.27 381.923 403.824 375.063C404.475 366.592 402.619 358.042 404.38 349.682C405.966 341.75 411.153 335.325 416.198 329.297C421.718 322.713 427.112 316.193 430.174 308.055C435.869 292.953 433.902 275.249 423.416 262.67C411.709 248.63 393.164 244.442 375.825 242.681L368.861 241.999C368.607 241.999 368.591 241.571 368.861 241.587C386.565 242.491 405.76 244.617 419.958 256.356Z" fill="black"/>
<path d="M366.957 230.975C369.654 231.577 372.605 234.354 372.652 236.21C372.7 238.066 363.975 249.503 360.406 249.789C356.836 250.074 355.361 243.618 355.361 243.618L366.957 230.975Z" fill="#EDE2C5"/>
<path d="M257.805 224.101L257.308 224.153L257.805 224.101C254.585 193.645 260.523 173.63 270.601 161.059C280.677 148.489 294.957 143.282 308.589 142.574C322.22 141.866 336.536 145.553 347.462 156.997C358.394 168.446 366.005 187.735 366.061 218.38C366.116 248.978 356.062 265.637 344.594 274.818C333.103 284.019 320.109 285.78 314.158 286.412C307.654 287.103 295.178 286.689 283.535 278.554C271.909 270.431 261.022 254.543 257.805 224.101Z" fill="white" stroke="black"/>
<path d="M307.389 257.467C306.723 258.688 306.168 260.274 304.772 260.845C303.282 261.27 301.721 261.378 300.187 261.163C300.06 261.163 299.965 261.337 300.092 261.417C300.898 262.022 301.854 262.397 302.856 262.504C303.859 262.61 304.872 262.442 305.787 262.019C306.532 261.557 307.123 260.883 307.485 260.083C307.846 259.284 307.962 258.395 307.818 257.53C307.818 257.308 307.484 257.324 307.389 257.467Z" fill="black"/>
<path d="M281.119 164.442C281.119 164.442 281.31 174.103 286.227 179.719C296.348 191.268 311.371 183.225 318.335 186.953C324.855 190.443 325.966 201.23 332.01 204.847C340.386 209.876 348.381 204.736 350.745 209.051C353.108 213.366 360.136 223.058 366.529 223.328C372.922 223.598 374.73 121.087 296.047 142.424C286.587 144.352 277.82 148.791 270.665 155.273C255.515 169.725 256.245 204.815 256.245 204.815C256.245 204.815 256.499 204.292 258.466 201.23C261.242 196.915 261.813 193.489 263.907 190.602C267.223 186.065 269.919 186.667 273.425 182.162C278.692 175.182 281.119 164.442 281.119 164.442Z" fill="black"/>
<path d="M281.087 159.858C280.973 164.016 281.341 168.174 282.182 172.247C282.771 176.275 284.449 180.066 287.036 183.209C289.942 185.942 293.742 187.526 297.728 187.667C301.742 187.984 305.866 187.239 310.229 187.667C312.484 187.885 314.635 188.719 316.447 190.078C318.089 191.563 319.421 193.359 320.366 195.361C322.285 199.073 324.221 202.721 327.615 204.8C329.311 205.858 331.218 206.533 333.202 206.777C335.186 207.021 337.199 206.828 339.101 206.211C342.955 205.133 346.906 202.832 351.157 203.467C346.874 203.181 343.32 205.688 339.386 207.131C337.349 207.885 335.171 208.183 333.006 208.005C330.841 207.827 328.741 207.177 326.854 206.1C322.856 203.959 320.746 199.755 318.811 196.217C317.951 194.444 316.749 192.859 315.273 191.553C313.722 190.439 311.895 189.77 309.991 189.618C306.057 189.126 301.869 189.808 297.586 189.428C295.408 189.27 293.268 188.777 291.24 187.968C289.152 187.224 287.29 185.957 285.831 184.288C283.215 180.847 281.596 176.753 281.151 172.454C280.634 168.272 280.613 164.044 281.087 159.858Z" fill="black"/>
<path d="M280.611 163.776C280.896 167.672 280.656 171.588 279.898 175.42C279.231 179.413 277.392 183.118 274.615 186.064C273.157 187.416 271.562 188.613 269.856 189.634C268.392 190.61 267.232 191.979 266.509 193.584C266.006 195.475 265.321 197.314 264.462 199.072C263.449 200.771 262.06 202.215 260.401 203.292C261.757 201.969 262.835 200.389 263.574 198.644C264.248 196.858 264.742 195.008 265.049 193.124C265.721 191.121 267.009 189.383 268.73 188.158C270.301 187.134 271.781 185.977 273.156 184.7C275.656 181.967 277.42 178.642 278.28 175.039C279.311 171.342 280.09 167.579 280.611 163.776Z" fill="black"/>
<path d="M370.329 243.318L370.315 243.327L370.301 243.337C369.213 244.108 367.98 244.651 366.677 244.933C365.374 245.216 364.027 245.231 362.717 244.978C361.408 244.726 360.163 244.211 359.058 243.464C357.995 242.745 357.082 241.826 356.371 240.759L356.589 224.264C356.606 224.227 356.627 224.18 356.654 224.123C356.725 223.97 356.83 223.744 356.968 223.458C357.245 222.884 357.65 222.068 358.167 221.096C359.2 219.152 360.673 216.597 362.434 214.141C364.199 211.679 366.235 209.344 368.386 207.816C370.538 206.288 372.733 205.613 374.878 206.306C376.978 206.985 378.394 209.155 379.133 212.353C379.867 215.529 379.893 219.576 379.335 223.733C378.777 227.887 377.64 232.116 376.074 235.65C374.5 239.2 372.524 241.977 370.329 243.318Z" fill="white" stroke="black"/>
<path d="M373.509 214.127C373.667 214.127 373.731 214.301 373.604 214.381C367.132 218.585 364.705 225.818 363.436 233.084C365.022 230.07 367.576 228.103 371.542 229.911C371.748 230.006 371.637 230.324 371.431 230.324C370.12 230.164 368.791 230.418 367.631 231.049C366.471 231.68 365.536 232.658 364.958 233.845C364.011 235.818 363.277 237.887 362.769 240.016C362.563 240.699 361.357 240.587 361.468 239.81C361.468 239.81 361.468 239.699 361.468 239.652C359.596 230.784 364.07 216.887 373.509 214.127Z" fill="black"/>
<path d="M318.002 522.437C410.852 543.551 480.255 551.642 500.878 539.205C514.822 530.765 479.351 468.136 439.168 453.288L318.002 522.437ZM318.002 522.437C305.153 519.518 335.801 430.428 349.729 432.887L318.002 522.437ZM438.995 453.757C458.943 461.128 477.782 480.397 489.902 498.923C495.959 508.181 500.313 517.216 502.287 524.44C503.275 528.054 503.657 531.182 503.381 533.643C503.105 536.1 502.184 537.83 500.619 538.777C495.57 541.822 487.467 543.643 476.63 544.302C465.809 544.96 452.328 544.457 436.574 542.905C405.069 539.801 364.528 532.505 318.113 521.949L318.113 521.949C317.473 521.804 316.943 521.391 316.519 520.67C316.088 519.937 315.778 518.905 315.6 517.584C315.245 514.942 315.435 511.287 316.075 506.94C317.352 498.259 320.404 486.958 324.296 475.81C328.189 464.663 332.912 453.697 337.522 445.681C339.829 441.669 342.095 438.421 344.199 436.258C346.333 434.063 348.171 433.119 349.642 433.379L349.643 433.379C358.353 434.9 379.505 439.556 399.09 444.056C408.88 446.306 418.272 448.515 425.515 450.271C432.78 452.033 437.836 453.329 438.995 453.757Z" fill="white" stroke="black"/>
<path d="M373.398 441.58C373.398 441.58 367.814 439.518 340.084 423.829C320.921 412.978 267.286 398.812 219.267 437.852C200.865 452.828 203.324 472.26 225.2 460.061C240.603 451.495 250.582 444.198 256.356 442.865C256.356 442.865 246.061 467.803 254.389 481.033C261.7 492.622 269.822 503.68 278.692 514.125C280.968 512.936 283.166 511.606 285.275 510.143C289.028 515.053 294.089 518.806 299.878 520.973C305.666 523.139 311.947 523.63 318.002 522.389L373.398 441.58Z" fill="white"/>
<path d="M320.144 416.404C308.833 418.72 285.038 424.034 266.937 435.139C246.917 447.512 211.7 476.781 220.933 491.455C227.738 502.226 242.174 492.232 242.174 492.232C242.174 492.232 230.165 507.397 238.446 515.773C245.997 523.42 256.705 515.012 256.705 515.012C256.705 515.012 250.994 525.466 259.687 531.415C270.126 538.585 280.31 515.551 297.221 513.616C301.076 513.251 320.144 416.404 320.144 416.404Z" fill="white"/>
<path d="M283.546 454.176C273.283 458.11 252.232 473.022 242.206 491.836C241.984 492.248 242.206 492.661 242.475 492.312C254.633 478.037 268.484 465.294 283.721 454.366C283.768 454.287 283.673 454.176 283.546 454.176Z" fill="black"/>
<path d="M295.476 474.799C286.957 479.098 265.938 495.421 256.451 514.838C256.229 515.283 256.451 515.663 256.737 515.314C268.116 500.438 281.156 486.909 295.603 474.989C295.698 474.799 295.571 474.688 295.476 474.799Z" fill="black"/>
<path d="M256.737 515.25C253.6 517.484 249.891 518.777 246.045 518.978C244.091 519.014 242.164 518.518 240.471 517.543C238.777 516.568 237.381 515.15 236.431 513.442C235.572 511.672 235.179 509.712 235.289 507.747C235.435 505.808 235.841 503.898 236.495 502.068C237.812 498.426 239.714 495.023 242.126 491.994L242.745 492.676C239.717 494.779 236.296 496.252 232.688 497.007C230.858 497.404 228.965 497.404 227.135 497.007C225.28 496.54 223.593 495.562 222.265 494.183C220.947 492.81 219.978 491.14 219.441 489.313C218.956 487.488 218.848 485.582 219.124 483.713C219.779 480.08 221.16 476.616 223.185 473.529C225.141 470.459 227.429 467.613 230.007 465.042C232.497 462.456 235.067 459.934 237.669 457.459C242.831 452.408 248.264 447.642 253.945 443.182L254.722 444.53C249.452 446.891 244.315 449.539 239.334 452.462C236.844 453.922 234.464 455.492 232.132 457.221C229.751 458.958 227.225 460.486 224.581 461.79C221.93 463.133 219.098 464.084 216.174 464.614C214.657 464.875 213.106 464.875 211.589 464.614C209.992 464.309 208.561 463.435 207.56 462.155C206.596 460.873 206.067 459.317 206.053 457.713C206.027 456.179 206.279 454.652 206.798 453.208C207.83 450.421 209.303 447.818 211.161 445.498C214.859 440.945 219.204 436.958 224.058 433.664C228.801 430.297 233.773 427.265 238.938 424.59C249.234 419.159 260.383 415.527 271.902 413.85C260.47 415.781 249.45 419.649 239.319 425.288C234.219 428.01 229.316 431.084 224.645 434.489C219.933 437.778 215.727 441.738 212.16 446.244C210.411 448.471 209.034 450.968 208.083 453.636C207.163 456.222 207.02 459.252 208.654 461.298C210.288 463.345 213.255 463.678 215.952 463.249C218.715 462.735 221.388 461.816 223.883 460.521C226.441 459.25 228.883 457.759 231.181 456.063C233.534 454.327 235.975 452.712 238.494 451.225C243.508 448.265 248.7 445.616 254.04 443.293L260.385 440.485L254.897 444.403C249.262 448.787 243.861 453.462 238.716 458.411C236.114 460.865 233.565 463.371 231.07 465.93C228.543 468.417 226.302 471.178 224.391 474.164C222.454 477.077 221.127 480.353 220.488 483.793C220.222 485.477 220.297 487.199 220.711 488.853C221.162 490.491 222.006 491.994 223.169 493.232C224.327 494.463 225.805 495.348 227.437 495.786C229.112 496.188 230.854 496.226 232.545 495.897C236.003 495.225 239.292 493.872 242.222 491.915L244.681 490.329L242.84 492.581C240.47 495.511 238.58 498.799 237.24 502.322C236.576 504.077 236.144 505.911 235.956 507.779C235.811 509.635 236.144 511.497 236.923 513.188C237.804 514.849 239.12 516.239 240.729 517.212C242.338 518.184 244.181 518.701 246.061 518.709C249.875 518.589 253.577 517.39 256.737 515.25Z" fill="black"/>
<path d="M471.578 477.749C468.405 474.18 459.22 462.885 444.61 455.54C431.823 449.194 413.628 445.752 404.141 444.61C403.903 444.61 403.792 444.848 404.03 444.927C412.216 447.719 428.889 451.273 442.579 457.872C453.088 463.136 462.772 469.907 471.324 477.971C471.482 478.114 471.72 477.971 471.578 477.749Z" fill="black"/>
<path d="M127.306 183.526C127.3 194.197 130.261 204.66 135.857 213.746C141.454 222.832 149.465 230.183 158.998 234.98C168.53 239.777 179.208 241.829 189.839 240.909C200.471 239.989 210.637 236.132 219.203 229.768L247.409 236.97L235.67 210.7C239.798 202.982 242.112 194.424 242.436 185.677C242.76 176.93 241.086 168.224 237.541 160.221C233.996 152.218 228.673 145.128 221.977 139.491C215.28 133.854 207.387 129.818 198.897 127.688C190.407 125.559 181.543 125.394 172.98 127.204C164.416 129.015 156.377 132.754 149.475 138.137C142.573 143.52 136.99 150.406 133.148 158.271C129.306 166.136 127.308 174.773 127.306 183.526Z" fill="white"/>
<path d="M127.306 183.526C127.374 194.18 130.376 204.608 135.983 213.667C137.375 215.913 138.906 218.069 140.568 220.124C142.289 222.133 144.133 224.035 146.088 225.819C147.103 226.675 147.992 227.659 149.086 228.42L152.259 230.768C153.322 231.561 154.512 232.164 155.622 232.862L157.32 233.877C157.906 234.21 158.509 234.464 159.112 234.75C160.302 235.305 161.492 235.892 162.697 236.431L166.409 237.78C167.652 238.231 168.924 238.597 170.217 238.874C171.502 239.176 172.755 239.588 174.056 239.763C176.649 240.237 179.273 240.523 181.908 240.619C184.55 240.806 187.204 240.769 189.84 240.508C195.088 240.029 200.245 238.828 205.164 236.939C210.061 235.019 214.677 232.447 218.886 229.293L219.092 229.134H219.362L247.599 236.209L246.79 237.177L234.988 210.923L234.829 210.59L235.02 210.256C239.088 202.637 241.372 194.192 241.699 185.56C242.026 176.928 240.388 168.335 236.907 160.429C233.371 152.519 228.146 145.48 221.599 139.806C214.998 134.187 207.201 130.151 198.803 128.004C190.382 125.835 181.58 125.602 173.056 127.321C160.157 129.998 148.571 137.03 140.243 147.239C131.915 157.447 127.353 170.209 127.321 183.383L127.306 183.526ZM127.306 183.526C127.324 174.763 129.332 166.119 133.18 158.246C137.027 150.372 142.612 143.476 149.515 138.077C156.395 132.63 164.433 128.833 173.011 126.98C181.589 125.126 190.477 125.265 198.993 127.385C207.571 129.465 215.558 133.481 222.344 139.124C229.149 144.799 234.566 151.954 238.181 160.043C241.797 168.132 243.515 176.94 243.205 185.795C242.916 194.674 240.565 203.364 236.336 211.176V210.494L248.012 236.796L248.599 238.113L247.203 237.748L219.029 230.419L219.505 230.324C210.853 236.721 200.582 240.568 189.856 241.428C187.216 241.631 184.564 241.631 181.924 241.428C179.261 241.289 176.611 240.965 173.992 240.461C172.675 240.27 171.406 239.826 170.106 239.525C168.814 239.218 167.542 238.832 166.298 238.367L162.554 236.971C161.349 236.415 160.159 235.797 158.969 235.226C158.382 234.924 157.764 234.655 157.193 234.337L155.495 233.29C154.369 232.561 153.195 231.942 152.132 231.149L148.959 228.737C147.913 227.926 146.912 227.058 145.961 226.136C144.005 224.336 142.162 222.418 140.441 220.393C138.789 218.313 137.263 216.136 135.872 213.873C130.262 204.746 127.297 194.24 127.306 183.526Z" fill="black"/>
<path d="M158.496 157.496L158.496 157.496C160.229 155.76 162.287 154.383 164.553 153.444C166.818 152.504 169.247 152.021 171.7 152.021C174.153 152.021 176.581 152.504 178.847 153.444C181.113 154.383 183.171 155.76 184.904 157.496L184.904 157.496C187.516 160.107 189.295 163.435 190.016 167.058C190.737 170.68 190.367 174.436 188.954 177.848C187.54 181.261 185.147 184.178 182.076 186.23C179.004 188.282 175.394 189.378 171.7 189.378C168.006 189.378 164.395 188.282 161.324 186.23C158.253 184.178 155.859 181.261 154.446 177.848C153.032 174.436 152.663 170.68 153.384 167.058C154.105 163.435 155.883 160.107 158.496 157.496ZM163.921 159.964C163.187 160.109 162.512 160.468 161.981 160.997C161.628 161.349 161.348 161.767 161.156 162.227C160.965 162.688 160.867 163.182 160.867 163.68C160.867 164.179 160.965 164.673 161.156 165.133C161.348 165.594 161.628 166.012 161.981 166.364C162.512 166.892 163.187 167.251 163.921 167.396C164.655 167.541 165.416 167.465 166.107 167.178C166.798 166.891 167.389 166.405 167.805 165.783C168.22 165.16 168.442 164.429 168.442 163.68C168.442 162.932 168.22 162.2 167.805 161.578C167.389 160.955 166.798 160.47 166.107 160.182C165.416 159.895 164.655 159.819 163.921 159.964Z" stroke="black" stroke-width="0.5"/>
<path d="M199.396 202.006L196.389 202.93L197.313 199.939L197.452 199.487L197 199.627L193.701 200.645L193.142 200.086L194.066 195.649L194.144 195.277L193.772 195.353L189.319 196.262L186.141 193.085L187.16 189.787L187.299 189.334L186.847 189.474L183.549 190.492L181.786 188.729L189.761 180.754L215.141 206.135L216.052 215.005L207.166 214.109L204.976 211.92L205.901 207.483L205.978 207.11L205.605 207.188L201.168 208.112L198.674 205.633L199.708 202.32L199.849 201.867L199.396 202.006Z" stroke="black" stroke-width="0.5"/>
<path d="M210.802 209.055L210.583 209.274L187.066 185.757L187.285 185.539L210.802 209.055Z" fill="#EDE2C5" stroke="black" stroke-width="0.5"/>
<mask id="path-49-inside-1_70_2544" fill="white">
<path d="M155.241 170.708C155.269 175.062 157.013 179.229 160.096 182.305C163.172 185.327 167.323 187.005 171.636 186.969C175.949 186.933 180.071 185.187 183.098 182.114C186.079 179.069 187.749 174.978 187.749 170.716C187.749 166.455 186.079 162.363 183.098 159.318C180.071 156.247 175.951 154.501 171.639 154.462C167.328 154.423 163.177 156.096 160.096 159.112C157.013 162.187 155.269 166.355 155.241 170.708ZM155.241 170.708C155.237 166.326 156.963 162.12 160.043 159.004C163.124 155.888 167.31 154.113 171.692 154.067C174.991 154.03 178.227 154.974 180.988 156.779C183.75 158.584 185.912 161.17 187.201 164.207C188.49 167.244 188.847 170.596 188.226 173.837C187.606 177.077 186.036 180.06 183.717 182.406C181.397 184.753 178.433 186.357 175.199 187.014C171.966 187.672 168.611 187.354 165.559 186.1C162.507 184.846 159.897 182.714 158.06 179.973C156.223 177.233 155.242 174.008 155.241 170.708Z"/>
</mask>
<path d="M155.241 170.708C155.269 175.062 157.013 179.229 160.096 182.305C163.172 185.327 167.323 187.005 171.636 186.969C175.949 186.933 180.071 185.187 183.098 182.114C186.079 179.069 187.749 174.978 187.749 170.716C187.749 166.455 186.079 162.363 183.098 159.318C180.071 156.247 175.951 154.501 171.639 154.462C167.328 154.423 163.177 156.096 160.096 159.112C157.013 162.187 155.269 166.355 155.241 170.708ZM155.241 170.708C155.237 166.326 156.963 162.12 160.043 159.004C163.124 155.888 167.31 154.113 171.692 154.067C174.991 154.03 178.227 154.974 180.988 156.779C183.75 158.584 185.912 161.17 187.201 164.207C188.49 167.244 188.847 170.596 188.226 173.837C187.606 177.077 186.036 180.06 183.717 182.406C181.397 184.753 178.433 186.357 175.199 187.014C171.966 187.672 168.611 187.354 165.559 186.1C162.507 184.846 159.897 182.714 158.06 179.973C156.223 177.233 155.242 174.008 155.241 170.708Z" fill="black"/>
<path d="M160.096 182.305L159.389 183.013L159.395 183.018L160.096 182.305ZM183.098 182.114L183.81 182.816L183.812 182.814L183.098 182.114ZM183.098 159.318L183.812 158.619L183.81 158.616L183.098 159.318ZM160.096 159.112L159.396 158.398L159.389 158.404L160.096 159.112ZM171.692 154.067L171.702 155.067L171.703 155.067L171.692 154.067ZM154.241 170.715C154.271 175.332 156.121 179.751 159.389 183.013L160.802 181.597C157.906 178.708 156.267 174.793 156.241 170.702L154.241 170.715ZM159.395 183.018C162.661 186.226 167.067 188.007 171.644 187.969L171.628 185.969C167.58 186.003 163.684 184.428 160.796 181.591L159.395 183.018ZM171.644 187.969C176.222 187.931 180.598 186.078 183.81 182.816L182.385 181.413C179.545 184.297 175.676 185.936 171.628 185.969L171.644 187.969ZM183.812 182.814C186.977 179.582 188.749 175.239 188.749 170.716H186.749C186.749 174.716 185.182 178.557 182.383 181.415L183.812 182.814ZM188.749 170.716C188.749 166.193 186.977 161.85 183.812 158.619L182.383 160.018C185.182 162.876 186.749 166.717 186.749 170.716H188.749ZM183.81 158.616C180.598 155.357 176.225 153.503 171.648 153.462L171.63 155.462C175.677 155.498 179.545 157.137 182.386 160.02L183.81 158.616ZM171.648 153.462C167.072 153.421 162.666 155.196 159.396 158.398L160.795 159.827C163.687 156.995 167.583 155.426 171.63 155.462L171.648 153.462ZM159.389 158.404C156.121 161.666 154.271 166.085 154.241 170.702L156.241 170.715C156.267 166.624 157.906 162.709 160.802 159.82L159.389 158.404ZM156.241 170.707C156.237 166.589 157.859 162.636 160.754 159.707L159.332 158.301C156.066 161.604 154.237 166.064 154.241 170.709L156.241 170.707ZM160.754 159.707C163.65 156.778 167.584 155.111 171.702 155.067L171.681 153.068C167.036 153.116 162.598 154.997 159.332 158.301L160.754 159.707ZM171.703 155.067C174.804 155.032 177.846 155.919 180.441 157.616L181.536 155.942C178.608 154.028 175.178 153.028 171.68 153.068L171.703 155.067ZM180.441 157.616C183.037 159.313 185.069 161.743 186.281 164.598L188.122 163.817C186.756 160.597 184.463 157.856 181.536 155.942L180.441 157.616ZM186.281 164.598C187.492 167.453 187.827 170.603 187.244 173.649L189.209 174.025C189.866 170.589 189.488 167.036 188.122 163.817L186.281 164.598ZM187.244 173.649C186.661 176.694 185.186 179.498 183.006 181.703L184.428 183.109C186.887 180.622 188.551 177.46 189.209 174.025L187.244 173.649ZM183.006 181.703C180.825 183.909 178.039 185.416 175 186.034L175.399 187.994C178.826 187.297 181.969 185.597 184.428 183.109L183.006 181.703ZM175 186.034C171.961 186.653 168.807 186.353 165.939 185.175L165.179 187.025C168.414 188.354 171.971 188.691 175.399 187.994L175 186.034ZM165.939 185.175C163.07 183.997 160.617 181.992 158.89 179.416L157.229 180.53C159.176 183.435 161.944 185.696 165.179 187.025L165.939 185.175ZM158.89 179.416C157.164 176.84 156.242 173.809 156.241 170.708L154.241 170.708C154.242 174.206 155.281 177.625 157.229 180.53L158.89 179.416Z" fill="black" mask="url(#path-49-inside-1_70_2544)"/>
<path d="M243.173 535.476H35.582L8.4552 394.496H216.031L243.173 535.476Z" fill="#CFC4A7"/>
<path d="M234.734 535.476H27.1426L0 394.496H207.591L234.734 535.476Z" fill="#EDE2C5"/>
<path d="M130.002 464.994C130.185 466.607 130.022 468.241 129.523 469.785C129.025 471.33 128.202 472.75 127.11 473.952C126.019 475.153 124.683 476.108 123.193 476.751C121.703 477.395 120.092 477.714 118.469 477.685C115.021 477.624 111.716 476.296 109.183 473.956C106.65 471.616 105.066 468.427 104.732 464.994C104.546 463.381 104.707 461.746 105.205 460.2C105.703 458.655 106.525 457.233 107.617 456.031C108.71 454.829 110.046 453.875 111.538 453.232C113.029 452.589 114.641 452.272 116.264 452.303C119.711 452.368 123.014 453.697 125.547 456.036C128.079 458.376 129.665 461.563 130.002 464.994Z" fill="white"/>
</svg>
