<svg width="60" height="55" viewBox="0 0 60 55" fill="none" xmlns="http://www.w3.org/2000/svg">
<path d="M17.1288 20.1212L16.7408 19.8059L16.7408 19.8059L16.7405 19.8063L16.7393 19.8078L16.7343 19.8138L16.7147 19.8379L16.6385 19.931C16.5722 20.0116 16.4763 20.128 16.3581 20.27C16.1216 20.5543 15.7964 20.9409 15.4413 21.3511C14.7165 22.1881 13.9111 23.0706 13.4678 23.4199C13.4463 23.4368 13.4188 23.4477 13.3773 23.4474C13.3321 23.4471 13.272 23.4325 13.2093 23.3951L13.2077 23.3941C11.3596 22.3004 10.026 21.3692 9.10149 20.5713C8.1797 19.7758 7.70143 19.1436 7.50288 18.6497C7.50437 18.6448 7.50667 18.638 7.5102 18.629C7.52139 18.6008 7.53946 18.5645 7.56987 18.5104C7.58224 18.4883 7.59489 18.4664 7.60929 18.4414C7.61248 18.4359 7.61575 18.4302 7.61912 18.4244C7.63694 18.3934 7.65694 18.3585 7.67687 18.3221L7.67689 18.3221L7.67912 18.3179C8.14947 17.4382 9.40394 15.3461 11.0518 13.1702C12.7075 10.9839 14.7195 8.76852 16.6978 7.58561C17.1482 7.3172 18.0517 6.98599 19.0486 6.66959C20.0274 6.35896 21.0384 6.07999 21.6669 5.90824L21.6839 5.9036L21.7005 5.89777C22.5152 5.61213 23.0145 5.50573 23.3553 5.48879C23.6696 5.47317 23.8603 5.53251 24.0717 5.63201C26.1607 6.62088 27.616 7.11734 29.8241 7.11734L29.8303 7.11734C29.8794 7.11735 29.9412 7.11735 30.0062 7.11356C30.0197 7.11378 30.0353 7.11431 30.0571 7.11508L30.0586 7.11513C30.0854 7.11607 30.1215 7.11734 30.1601 7.11734C32.3682 7.11734 33.8235 6.62089 35.9125 5.63202C36.1238 5.53252 36.3146 5.47317 36.6289 5.48879C36.9697 5.50573 37.4689 5.61213 38.2837 5.89777L38.3003 5.9036L38.3173 5.90824C38.9458 6.07999 39.9568 6.35896 40.9356 6.66959C41.9323 6.98595 42.8357 7.3171 43.2862 7.58549C45.2647 8.77043 47.2767 10.986 48.9324 13.1717C50.5803 15.3471 51.8348 17.4382 52.305 18.3179L52.3073 18.3221C52.3321 18.3674 52.3627 18.42 52.3876 18.4626C52.3989 18.482 52.409 18.4994 52.4169 18.5131C52.4482 18.5679 52.4669 18.6044 52.4787 18.6331C52.4827 18.643 52.4853 18.6504 52.4869 18.6556C52.2892 19.1496 51.8118 19.7808 50.8921 20.5742C49.9673 21.3719 48.6327 22.3021 46.7846 23.3939L46.7827 23.3951C46.72 23.4325 46.6599 23.4471 46.6147 23.4474C46.5732 23.4477 46.5457 23.4368 46.5242 23.4199C46.0809 23.0706 45.2755 22.1881 44.5507 21.3511C44.1956 20.9409 43.8704 20.5543 43.6339 20.27C43.5157 20.128 43.4198 20.0116 43.3535 19.931L43.2773 19.8379L43.2577 19.8138L43.2527 19.8078L43.2515 19.8063L43.2512 19.8059L43.2512 19.8059L42.6178 19.0267L42.3777 20.0017L42.8632 20.1212C42.3777 20.0017 42.3777 20.0018 42.3776 20.0019L42.3776 20.0023L42.3773 20.0035L42.3762 20.0078L42.3723 20.0239L42.3577 20.0851C42.3451 20.1386 42.3268 20.2172 42.3039 20.3189C42.2582 20.5222 42.1939 20.8182 42.1192 21.1915C41.9698 21.9379 41.7783 22.9946 41.6094 24.2391C41.2725 26.7217 41.0216 29.9776 41.3863 33.0129C41.7439 36.0071 42.2309 38.6651 42.6286 40.5747C42.8274 41.5298 43.0041 42.2984 43.1312 42.8289C43.1948 43.0942 43.246 43.3001 43.2814 43.44C43.2991 43.51 43.3129 43.5635 43.3223 43.5997L43.3252 43.611C43.3249 43.6825 43.2835 43.7506 43.2164 43.7822L43.2126 43.7841C42.9683 43.9018 42.4365 44.0781 41.6395 44.2772C40.8547 44.4733 39.8433 44.6842 38.6606 44.8783C36.2952 45.2667 33.2582 45.5861 29.9963 45.59C26.7341 45.5841 23.6969 45.2648 21.3313 44.8769C20.1486 44.6829 19.1371 44.4724 18.3523 44.2766C17.5553 44.0778 17.0236 43.9017 16.7794 43.784L16.7756 43.7823C16.7077 43.7502 16.6667 43.6844 16.6668 43.6108L16.6698 43.5992C16.6791 43.563 16.6929 43.5094 16.7105 43.4394C16.7458 43.2994 16.7969 43.0935 16.8603 42.8281C16.9871 42.2973 17.1634 41.5284 17.362 40.5731C17.7591 38.6631 18.2462 36.0051 18.6057 33.0129L18.6057 33.0126C18.9685 29.9775 18.7176 26.7218 18.3811 24.2392C18.2125 22.9948 18.0214 21.9381 17.8723 21.1917C17.7977 20.8184 17.7336 20.5224 17.688 20.3191C17.6651 20.2174 17.6469 20.1389 17.6343 20.0854L17.6198 20.0241L17.6159 20.0081L17.6148 20.0037L17.6145 20.0025L17.6144 20.0021C17.6144 20.002 17.6144 20.0019 17.1288 20.1212ZM17.1288 20.1212L16.7408 19.8059L17.3746 19.0262L17.6144 20.0019L17.1288 20.1212Z" fill="#2A2A2A" stroke="#2A2A2A"/>
<path d="M25.8906 11.8741C24.0025 11.545 22.8872 10.3675 22.2292 9.06209C21.5795 7.77302 21.3955 6.3894 21.387 5.68695C21.4059 5.65297 21.4412 5.60116 21.4987 5.53113C21.6154 5.38898 21.785 5.21814 21.9829 5.03429C22.1785 4.85255 22.3895 4.66929 22.5841 4.50174C22.6103 4.47916 22.6364 4.45671 22.6623 4.43448C22.8222 4.2969 22.9722 4.16791 23.0777 4.06981C23.3174 3.84994 23.7933 3.4503 24.6576 3.69179C25.9286 4.05133 27.8199 4.29629 29.9513 4.30422L29.955 4.30421C32.0917 4.29628 33.9824 4.04712 35.2519 3.69198L35.253 3.69167C36.1233 3.44603 36.5985 3.84887 36.8286 4.06616L36.8286 4.06617L36.8312 4.0686C36.9362 4.16638 37.0859 4.29518 37.2457 4.43265C37.2723 4.45548 37.2991 4.47854 37.326 4.50174C37.5205 4.66932 37.7315 4.85265 37.927 5.03455C38.1248 5.21858 38.2943 5.38966 38.4109 5.53216C38.4689 5.60302 38.5043 5.65537 38.5231 5.68958C38.5148 6.39137 38.3301 7.7758 37.6791 9.0652C37.0203 10.3702 35.9041 11.5467 34.0161 11.8741L34.0157 11.8741C33.1563 12.0239 32.4531 11.7434 31.8847 11.3045C31.3067 10.8581 30.8882 10.2607 30.6425 9.84075L30.6425 9.84074L30.6397 9.83603C30.4819 9.57308 30.2213 9.46008 29.9915 9.4424L29.9627 9.44019L29.9339 9.4413C29.6754 9.45124 29.4179 9.58385 29.2666 9.83603L29.2666 9.83602L29.2642 9.83993C29.0182 10.2586 28.5996 10.8562 28.0214 11.3031C27.4527 11.7427 26.7497 12.0238 25.8906 11.8741ZM25.8906 11.8741L25.8047 12.3667L25.8906 11.8741ZM38.5341 5.71211C38.534 5.71209 38.5335 5.71089 38.5327 5.70857C38.5337 5.71097 38.5341 5.71213 38.5341 5.71211ZM21.3756 5.71018C21.3756 5.7102 21.376 5.70899 21.3771 5.70647C21.3763 5.7089 21.3757 5.71016 21.3756 5.71018Z" fill="white" stroke="#2A2A2A"/>
<path d="M20.9297 5.64062C21.1055 6.81641 21.4492 7.95703 22.0273 8.94531C22.5781 9.94141 23.3555 10.7734 24.3047 11.25C24.7773 11.4922 25.293 11.6406 25.8164 11.7344C26.3164 11.8242 26.7734 11.7695 27.207 11.582C27.6406 11.3984 28.043 11.0938 28.3906 10.707C28.5664 10.5156 28.7266 10.3047 28.875 10.0859C28.9492 9.97656 29.0195 9.86328 29.0859 9.74609L29.1406 9.64844C29.207 9.53125 29.3047 9.42578 29.4219 9.34375C29.6241 9.20319 29.8724 9.1455 30.1159 9.18256C30.3593 9.21962 30.5793 9.34861 30.7305 9.54297L30.7891 9.625L30.8047 9.64844L30.9219 9.83594C30.9961 9.95703 31.0742 10.0742 31.1484 10.1875C31.3008 10.4141 31.4609 10.625 31.6328 10.8164C31.9766 11.1992 32.375 11.4844 32.8086 11.6523C33.2422 11.8242 33.7305 11.8594 34.2344 11.7813C34.75 11.6914 35.2812 11.543 35.75 11.3086C36.7031 10.8438 37.4648 10.0117 37.9609 8.99219C38.2227 8.48828 38.4258 7.94141 38.582 7.375C38.7344 6.80859 38.8477 6.22656 38.9766 5.63672L39.0547 5.64453C38.9609 6.82812 38.8047 8.03516 38.3477 9.14844C37.9062 10.2617 37.1211 11.2656 36.0547 11.8477C35.5312 12.1484 34.9531 12.3398 34.3594 12.457C33.7656 12.5703 33.1367 12.5547 32.5625 12.3477C31.9844 12.1484 31.4805 11.7734 31.0703 11.332C30.8633 11.1094 30.6797 10.8711 30.5078 10.625C30.4219 10.5 30.3398 10.375 30.2578 10.25L30.1367 10.0625C30.1245 10.0383 30.1074 10.0168 30.0866 9.9993C30.0658 9.98185 30.0416 9.96879 30.0156 9.96094C29.9904 9.95461 29.964 9.95378 29.9384 9.9585C29.9128 9.96322 29.8885 9.97337 29.8672 9.98828C29.8477 10.0039 29.8281 10.0234 29.8125 10.043L29.7578 10.1406C29.6797 10.2695 29.6016 10.3984 29.5156 10.5234C29.3437 10.7695 29.1562 11.0117 28.9492 11.2305C28.5391 11.6719 28.0469 12.0508 27.4766 12.2734C26.9102 12.5 26.2734 12.543 25.6836 12.4141C25.0938 12.2969 24.5156 12.0977 23.9922 11.793C22.9336 11.1953 22.1484 10.2109 21.6445 9.125C21.1422 8.03189 20.8696 6.84727 20.8438 5.64453H20.9297V5.64062Z" fill="#2A2A2A"/>
<path d="M34.7863 5.50063C34.7851 5.50165 34.7839 5.50267 34.7827 5.50367L34.5615 5.50749C34.3099 5.51167 33.9494 5.51729 33.5138 5.52305C32.6426 5.53457 31.4719 5.54663 30.273 5.54883C29.0733 5.55102 27.8491 5.54332 26.8695 5.51552C26.3791 5.5016 25.9552 5.48278 25.6284 5.45816C25.4647 5.44583 25.3304 5.43241 25.2268 5.41821C25.1751 5.41113 25.1343 5.40429 25.1033 5.39803C25.0714 5.39157 25.0581 5.38735 25.0575 5.38716L25.0575 5.38715C24.7456 5.27968 24.4618 4.99337 24.1634 4.63192C24.1267 4.58735 24.088 4.53961 24.0486 4.49087C23.9478 4.36639 23.8418 4.23539 23.7478 4.134C23.6792 4.06 23.5973 3.97941 23.505 3.91315C23.4701 3.88808 23.4276 3.86066 23.3783 3.83574C23.6548 3.66305 24.0648 3.52713 24.6576 3.69276C25.9287 4.05229 27.8199 4.29725 29.9513 4.30518L29.955 4.30517C32.0917 4.29724 33.9824 4.04808 35.2519 3.69294L35.253 3.69263C35.7044 3.56522 36.0309 3.61951 36.2689 3.71326C36.3586 3.74857 36.4384 3.79022 36.5113 3.83509C36.2383 3.9519 36.0423 4.17616 35.8925 4.38218C35.6882 4.6631 35.3849 4.96713 35.118 5.21079C34.9872 5.33016 34.8703 5.43044 34.7863 5.50063Z" fill="#B7D5E5" stroke="#2A2A2A"/>
<path d="M13.4851 24.0914L13.4844 24.0909C10.8904 22.5283 8.72959 20.7597 6.81866 18.9031L6.81866 18.9031L6.8172 18.9017C6.81423 18.8989 6.81235 18.8951 6.81188 18.891C6.81141 18.8869 6.81239 18.8828 6.81463 18.8794L6.81464 18.8794L6.81565 18.8778L7.31565 18.1005L7.31567 18.1005L7.3177 18.0972C7.31893 18.0952 7.32059 18.0936 7.32255 18.0923C7.32452 18.091 7.32674 18.0902 7.32905 18.09C7.33137 18.0897 7.33371 18.0899 7.33592 18.0906C7.33813 18.0914 7.34015 18.0926 7.34183 18.0942L7.34183 18.0942L7.34245 18.0948C9.19138 19.869 11.7052 21.8171 14.1927 23.3263C14.2038 23.3336 14.2048 23.3478 14.1964 23.3567L14.1963 23.3569L13.5088 24.0912L13.5088 24.0912L13.5076 24.0926C13.5068 24.093 13.5049 24.0938 13.5014 24.0943C13.4945 24.0952 13.4886 24.0935 13.4851 24.0914ZM46.5154 24.0909L46.5147 24.0914C46.511 24.0936 46.5052 24.0951 46.4992 24.0943C46.4986 24.0942 46.498 24.0941 46.4975 24.094L46.4949 24.0912L45.8074 23.3569L45.807 23.3564C45.805 23.3543 45.8035 23.3518 45.8026 23.349C45.8017 23.3462 45.8015 23.3433 45.8018 23.3405L45.554 23.3077L45.8018 23.3404C45.8022 23.3376 45.8032 23.3348 45.8048 23.3324L45.5949 23.1965L45.8048 23.3324C45.8064 23.33 45.8085 23.3279 45.8109 23.3264L45.6796 23.1137L45.8093 23.3274C48.2973 21.8181 50.8119 19.8694 52.6613 18.0948L52.6619 18.0942C52.6636 18.0926 52.6656 18.0914 52.6678 18.0907C52.67 18.0899 52.6724 18.0897 52.6747 18.09C52.677 18.0902 52.6792 18.0911 52.6812 18.0923C52.6832 18.0936 52.6848 18.0952 52.686 18.0972L52.686 18.0972L52.6881 18.1005L53.1881 18.8778L53.1881 18.8778L53.1903 18.8812C53.1912 18.8825 53.1925 18.8854 53.1919 18.8903C53.1914 18.8951 53.1894 18.899 53.1863 18.9019L53.1851 18.9031C51.2743 20.7595 49.1095 22.5283 46.5154 24.0909Z" fill="white" stroke="#2A2A2A" stroke-width="0.5"/>
<path d="M30.078 5.15982C32.2178 5.15982 34.253 4.65064 35.0911 4.44097C35.1745 4.42011 35.246 4.4022 35.3046 4.38807C35.3749 4.37113 35.4339 4.35986 35.4829 4.35279C34.9515 5.61519 33.4403 7.45293 29.9999 7.45669C26.5607 7.45293 25.0494 5.61652 24.5175 4.35417C24.5643 4.36113 24.6201 4.37189 24.6857 4.38768C24.7314 4.39903 24.7848 4.41259 24.8455 4.42799C25.6499 4.63222 27.728 5.15982 29.914 5.15982H30.078Z" fill="white" stroke="#2A2A2A"/>
<path d="M1 50H41" stroke="black" stroke-width="2" stroke-linecap="round"/>
<path d="M12 54H52" stroke="black" stroke-width="2" stroke-linecap="round"/>
<path d="M45 50H59" stroke="black" stroke-width="2" stroke-linecap="round"/>
</svg>
