<svg width="60" height="44" viewBox="0 0 60 44" fill="none" xmlns="http://www.w3.org/2000/svg">
<g id="Group 427319930">
<path id="Vector" d="M30 0.458008C31.9339 0.458008 33.7885 1.22624 35.156 2.59369C36.5234 3.96114 37.2917 5.8158 37.2917 7.74967C37.2917 9.68355 36.5234 11.5382 35.156 12.9057C33.7885 14.2731 31.9339 15.0413 30 15.0413C28.0661 15.0413 26.2115 14.2731 24.844 12.9057C23.4766 11.5382 22.7083 9.68355 22.7083 7.74967C22.7083 5.8158 23.4766 3.96114 24.844 2.59369C26.2115 1.22624 28.0661 0.458008 30 0.458008ZM15.4167 5.66634C16.5833 5.66634 17.6667 5.97884 18.6042 6.54134C18.2917 9.52051 19.1667 12.4788 20.9583 14.7913C19.9167 16.7913 17.8333 18.1663 15.4167 18.1663C13.7591 18.1663 12.1694 17.5079 10.9972 16.3358C9.82515 15.1637 9.16667 13.5739 9.16667 11.9163C9.16667 10.2587 9.82515 8.66903 10.9972 7.49692C12.1694 6.32482 13.7591 5.66634 15.4167 5.66634ZM44.5833 5.66634C46.2409 5.66634 47.8306 6.32482 49.0028 7.49692C50.1749 8.66903 50.8333 10.2587 50.8333 11.9163C50.8333 13.5739 50.1749 15.1637 49.0028 16.3358C47.8306 17.5079 46.2409 18.1663 44.5833 18.1663C42.1667 18.1663 40.0833 16.7913 39.0417 14.7913C40.8581 12.4464 41.7012 9.49175 41.3958 6.54134C42.3333 5.97884 43.4167 5.66634 44.5833 5.66634ZM16.4583 27.0205C16.4583 22.708 22.5208 19.208 30 19.208C37.4792 19.208 43.5417 22.708 43.5417 27.0205V30.6663H16.4583V27.0205ZM5 30.6663V27.5413C5 24.6455 8.9375 22.208 14.2708 21.4997C13.0417 22.9163 12.2917 24.8747 12.2917 27.0205V30.6663H5ZM55 30.6663H47.7083V27.0205C47.7083 24.8747 46.9583 22.9163 45.7292 21.4997C51.0625 22.208 55 24.6455 55 27.5413V30.6663Z" fill="#2A2A2A"/>
<path id="Line 52" d="M1 39H41" stroke="black" stroke-width="2" stroke-linecap="round"/>
<path id="Line 54" d="M12 43H52" stroke="black" stroke-width="2" stroke-linecap="round"/>
<path id="Line 53" d="M45 39H59" stroke="black" stroke-width="2" stroke-linecap="round"/>
</g>
</svg>
